<svg width="300px" hight="150px" viewBox="0 0 200 200" xmlns="http://www.w3.org/2000/svg" xmlns:xlink="http://www.w3.org/1999/xlink">
<style>
		svg{background-color:white;}
		#icon-availability{fill:#81CCAA;}
		#icon-booking{fill:#B8E4C2;}
		#icon-cancellation{fill:#1F2600;}
		#icon-fees{fill:#F69C0D;}
		#icon-general{fill:#F6FDC4;}
		#icon-security{fill:#F6FDC4;}
	</style>
<symbol viewBox="0 0 41 40" id="icon-availability"><path fill-rule="evenodd" d="M40.04 19.2l-20.1 20.08c-.96.96-2.53.96-3.5 0L.73 23.58a2.47 2.47 0 0 1 0-3.5L20.82 0h19.22v19.2zM21.7 2.62L3.33 20.95a1.23 1.23 0 0 0 0 1.74l13.98 13.96c.48.48 1.27.48 1.75 0l18.35-18.33.12-15.83-15.85.12zm4.77 10.93a5 5 0 1 1 7.1 0 5.02 5.02 0 0 1-7.1 0zm5.37-5.36a2.5 2.5 0 1 0-3.55 3.54 2.5 2.5 0 0 0 3.54-3.55zM7.7 23.56l1.76-1.75 8.74 8.73-1.75 1.75-8.74-8.73z"></path></symbol>
<symbol viewBox="0 0 40 40" id="icon-booking"><path fill-rule="evenodd" d="M32.5 25v7.5L23.12 25H12.5A7.5 7.5 0 0 1 5 17.5v-10A7.5 7.5 0 0 1 12.5 0h20A7.5 7.5 0 0 1 40 7.5v10a7.5 7.5 0 0 1-7.5 7.5zm5-17.5a5 5 0 0 0-5-5h-20a5 5 0 0 0-5 5v10a5 5 0 0 0 5 5h10.83l6.67 5v-5h2.5a5 5 0 0 0 5-5v-10zM10 30v5l6.67-5h5.83v2.5h-5.62L7.5 40v-7.5A7.5 7.5 0 0 1 0 25V15c0-2.2.98-4.18 2.5-5.55v16.8c0 .43.23.8.57 1.02A4.98 4.98 0 0 0 7.5 30H10z"></path></symbol>
<symbol viewBox="0 0 35 40" id="icon-cancellation"><path fill-rule="evenodd" d="M0 40V5h8.75V2.5h3.75A2.5 2.5 0 0 1 15 0h5a2.5 2.5 0 0 1 2.5 2.5h3.75V5H35v35H0zM23.75 5H20V3.75c0-.7-.56-1.25-1.25-1.25h-2.5c-.7 0-1.25.56-1.25 1.25V5h-3.75v5h12.5V5zm8.75 2.5h-6.25v5H8.75v-5H2.5v30h30v-30zm-5 12.5h-20v-2.5h20V20zm0 5h-20v-2.5h20V25zM20 30H7.5v-2.5H20V30z"></path></symbol>
<symbol viewBox="0 0 32 40" id="icon-fees"><path fill-rule="evenodd" d="M32 33.34h-.27C30.45 37.1 23.93 40 16 40 8.08 40 1.55 37.1.27 33.34H0V9.33h.27A4.2 4.2 0 0 1 0 8c0-4.42 7.16-8 16-8s16 3.58 16 8c0 .46-.12.9-.27 1.33H32v24zM16 2.67C8.64 2.67 2.67 5.05 2.67 8c0 2.94 5.97 5.33 13.33 5.33S29.34 10.93 29.34 8c0-2.95-5.98-5.33-13.34-5.33zm13.34 9.74C26.47 14.58 21.57 16 16 16S5.53 14.57 2.67 12.4V16c0 2.95 5.97 5.33 13.33 5.33S29.33 18.95 29.33 16v-3.6zm0 8C26.47 22.58 21.57 24 16 24S5.53 22.57 2.67 20.4V24c0 2.95 5.97 5.33 13.33 5.33s13.33-2.4 13.33-5.33v-3.6zM16 32c-5.57 0-10.47-1.43-13.33-3.6V32c0 2.95 5.97 5.33 13.33 5.33S29.33 34.95 29.33 32v-3.6C26.48 30.58 21.58 32 16 32z"></path></symbol>
<symbol viewBox="0 0 33 40" id="icon-general"><path fill-rule="evenodd" d="M32.5 38.75c0 .7-.56 1.25-1.25 1.25h-30C.55 40 0 39.44 0 38.75V1.25C0 .55.56 0 1.25 0H22.5l10 10v28.75zM22.5 10h6.92L22.5 3.08V10zm0 2.5H20v-10H3.75c-.7 0-1.25.56-1.25 1.25v32.5c0 .7.56 1.25 1.25 1.25h25c.7 0 1.25-.56 1.25-1.25V12.5h-7.5zM8.75 30a1.25 1.25 0 1 1 0-2.5h15a1.25 1.25 0 1 1 0 2.5h-15zm0-7.5a1.25 1.25 0 0 1 0-2.5h15a1.25 1.25 0 1 1 0 2.5h-15z"></path></symbol>
<symbol viewBox="0 0 33 40" id="icon-security"><path fill-rule="evenodd" d="M27.5 40H5a5 5 0 0 1-5-5V20a5 5 0 0 1 5-5v-3.75a11.25 11.25 0 0 1 22.5 0V15a5 5 0 0 1 5 5v15a5 5 0 0 1-5 5zM25 11.25a8.75 8.75 0 0 0-17.5 0V15H25v-3.75zM30 20a2.5 2.5 0 0 0-2.5-2.5H5A2.5 2.5 0 0 0 2.5 20v15A2.5 2.5 0 0 0 5 37.5h22.5A2.5 2.5 0 0 0 30 35V20zM16.25 32.5c-.7 0-1.25-.56-1.25-1.25v-7.5a1.25 1.25 0 0 1 2.5 0v7.5c0 .7-.56 1.25-1.25 1.25z"></path></symbol></svg>
