<?xml version="1.0" encoding="utf-8"?><!DOCTYPE svg PUBLIC "-//W3C//DTD SVG 1.1//EN" "http://www.w3.org/Graphics/SVG/1.1/DTD/svg11.dtd">
<svg xmlns="http://www.w3.org/2000/svg" xmlns:xlink="http://www.w3.org/1999/xlink">
 
 <symbol viewBox="0 0 64 64" id="airplane"><path d="M52.2 10.3c.9 1.1 1.1 2.7.4 4.8-.7 2.1-1.8 3.9-3.5 5.5l-5.2 5.2L49 48.1c.1.4 0 .8-.4 1.1l-4.1 3.1c-.2.1-.4.2-.6.2h-.2c-.3-.1-.5-.2-.7-.5l-9-16.3-8.3 8.3 1.7 6.2c.1.4 0 .7-.3 1L24 54.3c-.2.2-.4.3-.7.3h-.1c-.3 0-.6-.2-.8-.4L16.5 46l-8.1-6.1c-.2-.1-.4-.4-.4-.7 0-.3.1-.5.3-.8l3.1-3.1c.2-.2.4-.3.7-.3h.3l6.2 1.7 8.3-8.3-16.3-9c-.3-.2-.5-.4-.5-.8 0-.3.1-.6.3-.9l4.1-4.1c.3-.3.6-.4 1-.3l21.4 5.1 5.1-5.1c1.6-1.6 3.5-2.8 5.5-3.5 2-.6 3.6-.4 4.7.5z"/></symbol><symbol id="alert" viewBox="0 0 64 64"><style>.st0{fill:#d0b152}.st1{fill:#f9c14f}.st2{fill:#fdd895}.st3{fill:#010101}.st4{fill:none}.st5{stroke:#000;stroke-width:4.8066;stroke-miterlimit:10}</style><path d="M56.5 47.4c.6 1.1.6 2.5-.1 3.6s-1.8 1.8-3.1 1.8H9.9c-1.3 0-2.5-.7-3.1-1.8-.6-1.1-.7-2.5-.1-3.6L28.5 7.6c.6-1.2 1.8-1.9 3.2-1.9 1.3 0 2.5.7 3.2 1.9l21.6 39.8zM35.7 21c0-.2-.1-.4-.3-.5-.2-.1-.4-.3-.7-.3h-6.2c-.3 0-.5.2-.7.3-.2.1-.3.4-.3.6l.6 12.9c0 .4.4.7 1 .7h5.2c.5 0 .9-.3 1-.7l.4-13zm-.4 18.2c0-.5-.4-.9-.9-.9H29c-.5 0-.9.4-.9.9v5.4c0 .5.4.9.9.9h5.4c.5 0 .9-.4.9-.9v-5.4z"/></symbol><symbol viewBox="0 0 64 64" id="apple"><path d="M53.3 29.6c-.2-2.3-1-4.5-2.1-6.5-.8-1.4-1.8-2.7-3.2-3.6-1.5-1-3.1-1.4-4.9-1.5-1.7-.1-3.4.2-5 .8-1.3.5-2.6 1.1-3.9 1.6-.5.2-1 .4-1.6.6v-3.5c2.5.1 4.7-.5 6.7-2s3.1-3.5 3.6-5.9c-.1 0-2.5 0-3.6.2-1.8.4-3.3 1.2-4.6 2.5-1.1 1.1-2.5 4.1-2.5 4.2-.7-2.2-1.8-4.1-3.4-5.6-.7.6-1.4 1.2-2.1 1.9 4.2 2.1 5.3 6 4.9 8.3 0 0-1.5-.5-2.1-.9-1.3-.7-2.5-1.4-3.9-1.8-1.9-.6-3.7-.8-5.7-.4-3 .6-5.2 2.3-6.9 4.8-2 3.1-2.8 6.5-2.6 10.2.1 2.3.6 4.6 1.3 6.8 1.1 3.2 2.7 6.2 4.6 9 1.5 2.1 3.3 3.8 5.7 5 1.8.9 3.7 1.2 5.7.6.8-.2 1.5-.5 2.2-.8 1.7-.6 3.4-.6 5.1.2 1.5.7 3 .8 4.6.4 3.5-1 6.4-2.9 8.6-5.8 4.2-5.7 5.8-11.9 5.1-18.8z"/></symbol><symbol id="area-chart" viewBox="0 0 64 64"><style>.st0{fill:#d0b152}.st1{fill:#f9c14f}.st2{fill:#fdd895}.st3{fill:#010101}.st4{fill:none}.st5{stroke:#000;stroke-width:4.8066;stroke-miterlimit:10}</style><path d="M57.7 51.2h-52v-39H9V48h48.8v3.2zm-3.3-6.5H12.2V30l11.4-14.6L38.2 30l9.8-8.1 6.4 22.8z"/></symbol><symbol viewBox="0 0 64 64" id="arrow-button"><path d="M55.9 26.1L48.7 22v5.9H.9v4.2h47.8v6.3l7.2-4.1 7.1-4.1z"/></symbol><symbol id="arrow-short" viewBox="0 0 64 64"><style>.st0{fill:#d0b152}.st1{fill:#f9c14f}.st2{fill:#fdd895}.st3{fill:#010101}.st4{fill:none}.st5{stroke:#000;stroke-width:4.8066;stroke-miterlimit:10}</style><path d="M49.3 32.4L32.8 48.8c-.6.6-1.4.9-2.3.9-.9 0-1.7-.4-2.3-.9l-1.9-1.9c-.6-.6-1-1.4-1-2.3s.4-1.7 1-2.3l7.4-7.4H16c-1.8 0-3-1.5-3-3.2v-3.2c0-1.7 1.1-3.2 3-3.2h17.8l-7.4-7.4c-.6-.6-1-1.4-1-2.3 0-.9.4-1.7 1-2.3l1.9-1.9c.6-.6 1.4-1 2.3-1 .9 0 1.7.4 2.3 1l16.5 16.5c.6.6.9 1.4.9 2.3-.1.7-.4 1.6-1 2.2z"/></symbol><symbol viewBox="0 0 64 64" id="asterisk"><path d="M43.6 37.3l-1.1 1.8c-.6 1-1.9 1.4-2.9.8l-4.4-2.6v5.1c0 1.2-1 2.1-2.1 2.1H31c-1.2 0-2.1-1-2.1-2.1v-5.1L24.3 40c-1 .6-2.3.2-2.9-.8l-1.1-1.8c-.6-1-.2-2.3.8-2.9l4.4-2.6-4.4-2.6c-1-.6-1.4-1.9-.8-2.9l1.1-1.8c.6-1 1.9-1.4 2.9-.8l4.4 2.6v-5.1c0-1.2 1-2.1 2.1-2.1h2.1c1.2 0 2.1 1 2.1 2.1v5.1l4.4-2.6c1-.6 2.3-.2 2.9.8l1.1 1.8c.6 1 .2 2.3-.8 2.9l-4.4 2.6 4.4 2.6c1.3.5 1.6 1.8 1 2.8z"/></symbol><symbol viewBox="0 0 64 64" id="award"><path d="M52 10h-6V6H18v4h-6c-1.1 0-2 .9-2 2 0 5.9 0 12 2.4 16.1 3.3 5.6 9.5 8.2 15.7 7.9.9 1.4 1.5 2.7 1.8 4.1V42c0 1.7-.7 3-1.6 4H26v2h-2v6h16v-6h-2v-2h-2.4c-.8-1-1.6-2.3-1.6-4v-2.3c.3-1.4.8-2.6 1.4-3.8 2.5.8 6.5-.4 8.9-1.3 2.8-1.1 4.6-2.8 6.8-5.6S54 25.1 54 12c0-1.1-.9-2-2-2zM17.8 28.7c-4.3-4.4-4-8.9-3.9-14.6H18c0 3.5-.1 4.9 1.2 8.3 1.3 3.5 3.7 6.6 6 9.5-3.2-.4-5.6-1.5-7.4-3.2 1.8 1.7-4-4.1 0 0zm28.4-.1c-2.1 2.1-4.5 3-8.1 3.3 2.3-2.8 4.5-5.3 6.3-8.9 1.8-3.6 1.6-5.2 1.6-9h4v4c.1 5.8-1.7 8.6-3.8 10.6z"/></symbol><symbol id="award-review" viewBox="0 0 64 64"><style>.st0{fill:#d0b152}.st1{fill:#f9c14f}.st2{fill:#fdd895}.st3{fill:#010101}.st4{fill:none}.st5{stroke:#000;stroke-width:4.8066;stroke-miterlimit:10}</style><path d="M40.2 37.7l-2.2-.6-.9 2.1-1.4-.8-3.8 10 2.5 7.5 3.9-6.7 6.7 2.7zM32 38.4l-1.7 1.5-1.4-1.8-2 1.1-.9-2.1-2.5.7-4.8 12.6 6.5-2.2 3.3 5.9 5.4-14zM45.1 24.2l1.5-1.5-1.6-1.3 1.1-1.8-1.9-1 .7-1.9-2-.6.2-2.1H41l-.2-2.1-2 .3-.7-2-1.9.8-1.1-1.8-1.7 1.2L32 8.9l-1.4 1.5-1.7-1.2-1.1 1.8-1.9-.8-.7 2-2-.3L23 14h-2.1l.2 2.1-2 .6.7 1.9-1.9 1 1.1 1.8-1.6 1.3 1.5 1.5-1.3 1.7 1.7 1.1-.9 1.9 2 .7-.5 2.1 2.1.3v2.1l2-.1.5 2 2-.6.8 1.9 1.9-1 1.2 1.7 1.6-1.4 1.6 1.4 1.1-1.6 2 .9.8-1.9 2 .6.5-2 2 .1V32l2.1-.3-.5-2.1 2-.7-.9-1.9 1.7-1.1z"/></symbol><symbol id="banner" viewBox="0 0 64 64"><style>.st0{fill:#d0b152}.st1{fill:#f9c14f}.st2{fill:#fdd895}.st3{fill:#010101}.st4{fill:none}</style><path d="M45.5 12.5c.4 0 .8.1 1.1.2.6.2 1 .6 1.4 1.1.3.5.5 1 .5 1.6v33.2c0 .6-.2 1.1-.5 1.6s-.8.8-1.4 1.1c-.3.1-.7.2-1.1.2-.8 0-1.5-.3-2.1-.8L32 39.7l-11.4 11c-.6.6-1.3.9-2.1.9-.4 0-.8-.1-1.1-.2-.6-.2-1-.6-1.4-1.1-.3-.5-.5-1-.5-1.6V15.4c0-.6.2-1.1.5-1.6s.8-.8 1.4-1.1c.4-.2.7-.2 1.1-.2h27z"/></symbol><symbol id="bar-chart" viewBox="0 0 64 64"><style>.st0{fill:#d0b152}.st1{fill:#f9c14f}.st2{fill:#fdd895}.st3{fill:#010101}.st4{fill:none}.st5{stroke:#000;stroke-width:4.8066;stroke-miterlimit:10}</style><path d="M59 51.2H5V10.7h3.4v37.1H59v3.4zm-37.1-6.8h-6.8V30.9h6.8v13.5zm10.1 0h-6.8v-27H32v27zm10.1 0h-6.8V24.2h6.8v20.2zm10.1 0h-6.8V14h6.8v30.4z"/></symbol><symbol viewBox="0 0 64 64" id="bed"><path d="M15.1 34.8h38c.4 0 .7.1 1 .4.3.3.4.6.4 1V46h-5.6v-5.6H15.1V46H9.5V19.3c0-.4.1-.7.4-1 .3-.3.6-.4 1-.4h2.8c.4 0 .7.1 1 .4.3.3.4.6.4 1v15.5zm11-3c1.1-1.1 1.6-2.4 1.6-4s-.5-2.9-1.6-4-2.4-1.6-4-1.6-2.9.5-4 1.6-1.6 2.4-1.6 4 .5 2.9 1.6 4 2.4 1.6 4 1.6 2.9-.5 4-1.6zm28.4 1.6V32c0-2.3-.8-4.3-2.5-6-1.6-1.6-3.6-2.5-6-2.5H30.6c-.4 0-.7.1-1 .4-.3.3-.4.6-.4 1v8.4h25.3z"/></symbol><symbol id="bike" viewBox="0 0 64 64"><style>.st0{fill:#d0b152}.st1{fill:#f9c14f}.st2{fill:#fdd895}.st3{fill:#010101}.st4{fill:none}.st5{stroke:#000;stroke-width:4.8066;stroke-miterlimit:10}</style><path d="M49.4 42.7c-6.4 0-11.6-5.2-11.6-11.6 0-3.4 1.5-6.5 3.9-8.6L40 19.9 30.9 32c-.3.4-.8.7-1.3.7h-5.1c-.8 5.6-5.6 9.9-11.5 9.9-6.4 0-11.6-5.2-11.6-11.6S6.6 19.5 13 19.5c2 0 3.9.5 5.6 1.4l3.5-4.7h-5.8c-.9 0-1.7-.8-1.7-1.7 0-.9.8-1.7 1.7-1.7h9.9v3.3h11.3l-2.2-3.3h-5.7c-.9 0-1.7-.8-1.7-1.7s.8-1.7 1.7-1.7h6.6c.5 0 1.1.3 1.4.7l6.9 10.4c1.5-.7 3.2-1.1 5-1.1 6.4 0 11.6 5.2 11.6 11.6s-5.3 11.7-11.7 11.7zM13 32.7c-1.4 0-2.1-1.6-1.3-2.6l4.9-6.5c-1.1-.5-2.3-.8-3.5-.8-4.6 0-8.3 3.7-8.3 8.3s3.7 8.3 8.3 8.3c4 0 7.4-2.8 8.1-6.6H13zm8.1-3.3c-.3-1.4-1-2.8-1.9-3.8l-2.9 3.8h4.8zm15.1-9.9H23.7l-2.6 3.4c1.7 1.7 2.9 4 3.3 6.5h4.3l7.5-9.9zm13.2 3.3c-1.1 0-2.1.2-3.1.6l4.5 6.7c.5.8.3 1.8-.4 2.3-.3.2-.6.3-.9.3-.5 0-1.1-.3-1.4-.8l-4.5-6.7c-1.5 1.5-2.4 3.5-2.4 5.8 0 4.6 3.7 8.3 8.3 8.3s8.3-3.7 8.3-8.3-3.8-8.2-8.4-8.2z"/></symbol><symbol id="binoculars" viewBox="0 0 64 64"><style>.st0{fill:#d0b152}.st1{fill:#f9c14f}.st2{fill:#fdd895}.anst3{fill:#010101}.st4{fill:none}.st5{stroke:#000;stroke-width:4.8066;stroke-miterlimit:10}</style><path class="anst3" d="M27.5 18.5v18c0 .4-.1.8-.4 1.1-.3.3-.7.4-1.1.4v13.5c0 .4-.1.8-.4 1.1s-.7.4-1.1.4h-12c-.4 0-.8-.1-1.1-.4s-.4-.7-.4-1.1v-12L16.8 19c.1-.4.4-.5.7-.5h10zm.7-6.7V17H20v-5.2c0-.2.1-.4.2-.5s.3-.2.5-.2h6.8c.2 0 .4.1.5.2s.2.2.2.5zm6.8 6.7V35h-6V18.5h6zm9-6.7V17h-8.2v-5.2c0-.2.1-.4.2-.5s.3-.2.5-.2h6.8c.2 0 .4.1.5.2s.2.2.2.5zm9 27.7v12c0 .4-.1.8-.4 1.1s-.7.4-1.1.4h-12c-.4 0-.8-.1-1.1-.4s-.4-.7-.4-1.1V38c-.4 0-.8-.1-1.1-.4-.3-.3-.4-.6-.4-1.1v-18h9.9c.4 0 .6.2.7.5L53 39.5z"/></symbol><symbol viewBox="0 0 64 64" id="bold"><path d="M13.1 47.6c1.6-.4 3.3-.4 4.8-1.1.9-1.5.8-4.1.8-5.8 0-.6.1-24.7-.6-25.9-.4-.7-4.1-.9-4.9-1l-.1-2.1c6-.1 12-.5 18-.5h3.4c5.7 0 12 2.7 12 9.3 0 4.5-3.4 6.2-7 7.8 4.8 1.1 9.1 4.3 9.1 9.6 0 8.7-7.9 11.6-15.3 11.6-2.2 0-4.4-.2-6.7-.2-4.5 0-9.1.4-13.6.6l.1-2.3zm16.3-19.9c5.2 0 8.9-1.5 8.9-7.3 0-4.9-4.4-6.6-8.6-6.6-1.1 0-2.2.2-3.3.3 0 2.5.2 5.1.2 7.6v5.7c1 .3 1.9.3 2.8.3zm1.1 19.5c5.8 0 9.5-2.3 9.5-8.5 0-1.6-.2-3.2-1-4.5-2.3-3.8-5.7-4-9.8-4-.8 0-1.8 0-2.5.3v8c0 1.7-.2 6.5.4 7.9 1 .5 2.2.8 3.4.8z"/></symbol><symbol viewBox="0 0 64 64" id="book"><path d="M56.8 23.5l-7.9 26.1c-.7 2.5-3.3 4.4-5.7 4.4H16.5c-2.9 0-6.1-2.3-7.2-5.3-.5-1.3-.5-2.6-.1-3.7.1-.6.2-1.2.2-1.8 0-.5-.2-.8-.2-1.2.1-.7.7-1.2 1.2-2 .9-1.4 1.8-3.8 2.2-5.3.1-.5-.1-1.2 0-1.7s.7-1 1-1.5c.8-1.3 1.8-3.9 1.9-5.2.1-.6-.2-1.3-.1-1.7.2-.7.8-1 1.3-1.5.7-1 1.8-3.7 2-5.2.1-.5-.2-1-.1-1.5s.8-1.1 1.3-1.8c1.2-1.8 1.4-5.7 5.1-4.7v.1c.5-.1 1-.3 1.5-.3h21.9c1.4 0 2.6.6 3.3 1.6.7 1 .9 2.4.5 3.7l-7.9 26.1c-1.4 4.4-2.1 5.4-5.8 5.4h-25c-.4 0-.8.1-1.1.4-.2.3-.3.6 0 1.2.6 1.7 2.6 2 4.1 2h26.6c1.1 0 2.3-.6 2.6-1.6L54.4 20c.2-.5.2-1.1.1-1.6.7.3 1.3.7 1.7 1.2.8 1.2 1 2.6.6 3.9zm-33 4.7h17.5c.5 0 1-.4 1.2-.9l.6-1.8c.2-.5-.1-.9-.6-.9H25c-.5 0-1 .4-1.2.9l-.6 1.8c-.2.5.1.9.6.9zm2.4-7.4h17.5c.5 0 1-.4 1.2-.9l.6-1.8c.2-.5-.1-.9-.6-.9H27.4c-.5 0-1 .4-1.2.9l-.6 1.8c-.2.5.1.9.6.9z"/></symbol><symbol id="briefcase" viewBox="0 0 64 64"><style>.st0{fill:#d0b152}.st1{fill:#f9c14f}.st2{fill:#fdd895}.st3{fill:#010101}.st4{fill:none}.st5{stroke:#000;stroke-width:4.8066;stroke-miterlimit:10}</style><path d="M9.5 30.7v-7.9c0-1.2 1.4-2.6 2.6-2.6h6.6v-1.3h4c0-1.8.7-6.6 5.3-6.6h8c4.9 0 5.3 4.9 5.3 6.6h4v1.3h6.6c1.5 0 2.6 1.2 2.6 2.6v7.9L47.9 36H36v-2.6h-8V36H16.1l-6.6-5.3zm0 17.1V34.7l5.3 4H28v2.6h8v-2.6h13.2l5.3-4v13.1c0 2.2-1.8 4-4 4h-37c-2.2 0-4-1.8-4-4zm27.8-29s.6-4-2.6-4h-5.3c-2.9 0-2.6 2.5-2.6 4h10.5z"/></symbol><symbol viewBox="0 0 64 64" id="bubble-chart"><circle cx="23.1" cy="35.3" r="7.6"/><ellipse transform="rotate(-5.732 33.25 22.39)" fill="#231F20" cx="33.3" cy="22.4" rx="5.6" ry="5.6"/><ellipse transform="rotate(-5.732 46.86 28.097)" fill="#231F20" cx="46.9" cy="28.1" rx="4.6" ry="4.6"/><path fill="#231F20" d="M13.2 45.1V16h-2.9v32H52v-2.9z"/></symbol><symbol id="building" viewBox="0 0 64 64"><style>.st0{fill:#d0b152}.st1{fill:#f9c14f}.st2{fill:#fdd895}.st3{fill:#010101}.st4{fill:none}.st5{stroke:#000;stroke-width:4.8066;stroke-miterlimit:10}</style><path d="M51.2 8.5V55c0 1-.8 1.8-1.8 1.8H13.6c-1 0-1.8-.8-1.8-1.8V8.5c0-1 .8-1.8 1.8-1.8h35.8c1 0 1.8.8 1.8 1.8zm-28.7 6.2c0-.5-.4-.9-.9-.9h-1.8c-.5 0-.9.4-.9.9v1.8c0 .5.4.9.9.9h1.8c.5 0 .9-.4.9-.9v-1.8zm0 7.2c0-.5-.4-.9-.9-.9h-1.8c-.5 0-.9.4-.9.9v1.8c0 .5.4.9.9.9h1.8c.5 0 .9-.4.9-.9v-1.8zm0 7.2c0-.5-.4-.9-.9-.9h-1.8c-.5 0-.9.4-.9.9v1.8c0 .5.4.9.9.9h1.8c.5 0 .9-.4.9-.9v-1.8zm0 7.1c0-.5-.4-.9-.9-.9h-1.8c-.5 0-.9.4-.9.9V38c0 .5.4.9.9.9h1.8c.5 0 .9-.4.9-.9v-1.8zm0 7.2c0-.5-.4-.9-.9-.9h-1.8c-.5 0-.9.4-.9.9v1.8c0 .5.4.9.9.9h1.8c.5 0 .9-.4.9-.9v-1.8zm3.6-26.9c0 .5.4.9.9.9h1.8c.5 0 .9-.4.9-.9v-1.8c0-.5-.4-.9-.9-.9H27c-.5 0-.9.4-.9.9v1.8zm0 7.2c0 .5.4.9.9.9h1.8c.5 0 .9-.4.9-.9v-1.8c0-.5-.4-.9-.9-.9H27c-.5 0-.9.4-.9.9v1.8zm0 7.1c0 .5.4.9.9.9h1.8c.5 0 .9-.4.9-.9V29c0-.5-.4-.9-.9-.9H27c-.5 0-.9.4-.9.9v1.8zm0 7.2c0 .5.4.9.9.9h1.8c.5 0 .9-.4.9-.9v-1.8c0-.5-.4-.9-.9-.9H27c-.5 0-.9.4-.9.9V38zm10.8 9c0-.5-.4-.9-.9-.9h-9c-.5 0-.9.4-.9.9v5.4c0 .5.4.9.9.9h9c.5 0 .9-.4.9-.9V47zm0-32.3c0-.5-.4-.9-.9-.9h-1.8c-.5 0-.9.4-.9.9v1.8c0 .5.4.9.9.9H36c.5 0 .9-.4.9-.9v-1.8zm0 7.2c0-.5-.4-.9-.9-.9h-1.8c-.5 0-.9.4-.9.9v1.8c0 .5.4.9.9.9H36c.5 0 .9-.4.9-.9v-1.8zm0 7.2c0-.5-.4-.9-.9-.9h-1.8c-.5 0-.9.4-.9.9v1.8c0 .5.4.9.9.9H36c.5 0 .9-.4.9-.9v-1.8zm0 7.1c0-.5-.4-.9-.9-.9h-1.8c-.5 0-.9.4-.9.9V38c0 .5.4.9.9.9H36c.5 0 .9-.4.9-.9v-1.8zM44 14.7c0-.5-.4-.9-.9-.9h-1.8c-.5 0-.9.4-.9.9v1.8c0 .5.4.9.9.9h1.8c.5 0 .9-.4.9-.9v-1.8zm0 7.2c0-.5-.4-.9-.9-.9h-1.8c-.5 0-.9.4-.9.9v1.8c0 .5.4.9.9.9h1.8c.5 0 .9-.4.9-.9v-1.8zm0 7.2c0-.5-.4-.9-.9-.9h-1.8c-.5 0-.9.4-.9.9v1.8c0 .5.4.9.9.9h1.8c.5 0 .9-.4.9-.9v-1.8zm0 7.1c0-.5-.4-.9-.9-.9h-1.8c-.5 0-.9.4-.9.9V38c0 .5.4.9.9.9h1.8c.5 0 .9-.4.9-.9v-1.8zm0 7.2c0-.5-.4-.9-.9-.9h-1.8c-.5 0-.9.4-.9.9v1.8c0 .5.4.9.9.9h1.8c.5 0 .9-.4.9-.9v-1.8z"/></symbol><symbol viewBox="0 0 64 64" id="bus"><title>bus</title><path class="atcls-1" d="M50.86 32.91v14.8h-3.15v3.14a3.14 3.14 0 1 1-6.29 0v-3.14H22.57v3.14a3.14 3.14 0 0 1-5.37 2.22 3 3 0 0 1-.92-2.22v-3.14h-3.14v-14.8a24.8 24.8 0 0 1 .62-5.48l2.53-11.15a4.78 4.78 0 0 1 2.39-3.36 16.21 16.21 0 0 1 5.65-2.19A37 37 0 0 1 32 10a37.06 37.06 0 0 1 7.67.74 16.21 16.21 0 0 1 5.65 2.19 4.78 4.78 0 0 1 2.39 3.36l2.58 11.15a24.87 24.87 0 0 1 .57 5.47zm-29.21 9.17a3.14 3.14 0 1 0-4.44-4.44 3.14 3.14 0 1 0 4.44 4.44zm24.94-11.95l-1.77-9.43a1.61 1.61 0 0 0-.55-.92 1.52 1.52 0 0 0-1-.36H20.73a1.51 1.51 0 0 0-1 .36 1.6 1.6 0 0 0-.55.92l-1.77 9.43a1.55 1.55 0 0 0 .34 1.3A1.49 1.49 0 0 0 19 32h26a1.49 1.49 0 0 0 1.2-.57 1.56 1.56 0 0 0 .39-1.3zm-5.9-14.19a1.18 1.18 0 0 0-.83-2H24.14a1.18 1.18 0 1 0 0 2.36h15.72a1.13 1.13 0 0 0 .83-.36zm6.1 26.14a3.14 3.14 0 1 0-2.22.92 3 3 0 0 0 2.22-.92z"/></symbol><symbol viewBox="0 0 64 64" id="business"><path d="M26.2 12.6h-3.8c0-3 2.6-5.6 5.7-5.6h7.7c3.2 0 5.7 2.6 5.7 5.6h-3.8c0-1.1-.9-2.1-1.9-2.1h-7.7c-1.1 0-1.9.9-1.9 2.1zM55 20c0-3.2-2.6-5.7-5.7-5.7H14.8C11.6 14.3 9 16.8 9 20v23.2c0 3.2 2.6 5.7 5.7 5.7h34.5c3.2 0 5.7-2.6 5.7-5.7V20z"/></symbol><symbol viewBox="0 0 64 64" id="calendar"><path d="M10 17.5v30.6c0 1.1.9 1.9 1.9 1.9h40.2c1.1 0 1.9-.9 1.9-1.9V17.5H10zm9.5 28.7h-5.7v-5.7h5.7v5.7zm0-7.7h-5.7v-5.7h5.7v5.7zm0-7.6h-5.7v-5.7h5.7v5.7zm7.7 15.3h-5.7v-5.7h5.7v5.7zm0-7.7h-5.7v-5.7h5.7v5.7zm0-7.6h-5.7v-5.7h5.7v5.7zm7.7 15.3h-5.7v-5.7h5.7v5.7zm0-7.7h-5.7v-5.7h5.7v5.7zm0-7.6h-5.7v-5.7h5.7v5.7zm7.6 15.3h-5.7v-5.7h5.7v5.7zm0-7.7h-5.7v-5.7h5.7v5.7zm0-7.6h-5.7v-5.7h5.7v5.7zm7.7 15.3h-5.7v-5.7h5.7v5.7zm0-7.7h-5.7v-5.7h5.7v5.7zm0-7.6h-5.7v-5.7h5.7v5.7zM54 9.8v5.7H10V9.8c0-1.1.9-1.9 1.9-1.9h3.8V6c0-1.1.9-1.9 1.9-1.9h1.9c1.1 0 1.9.9 1.9 1.9v1.9h21.1V6c0-1.1.9-1.9 1.9-1.9h1.9c1.1 0 1.9.9 1.9 1.9v1.9H52c1.1 0 2 .9 2 1.9z"/></symbol><symbol viewBox="0 0 64 64" id="camera"><path d="M45.6 17.9c1.4 0 2.5.5 3.5 1.4 1 1 1.4 2.1 1.4 3.5V40c0 1.4-.5 2.5-1.4 3.5-1 1-2.1 1.4-3.5 1.4H18.4c-1.4 0-2.5-.5-3.5-1.4-1-1-1.4-2.1-1.4-3.5V22.8c0-1.4.5-2.5 1.4-3.5s2.1-1.4 3.5-1.4l4.6.1 1-2.6c.2-.6.7-1.2 1.3-1.6.6-.5 1.3-.7 2-.7l9.6-.1c.7 0 1.3.2 2 .7.6.5 1.1 1 1.3 1.6l1 2.6h4.4zM26.4 37.5c1.7 1.7 3.7 2.5 6.1 2.5s4.4-.8 6.1-2.5c1.7-1.7 2.5-3.7 2.5-6.1 0-2.4-.8-4.4-2.5-6.1-1.7-1.7-3.7-2.5-6.1-2.5s-4.4.8-6.1 2.5c-1.7 1.7-2.5 3.7-2.5 6.1 0 2.4.8 4.5 2.5 6.1z"/><path d="M47.9 15.6h-6.6c-1.3-3.3-1-5.1-5.1-5.1H28c-4.1 0-3.9 1.9-5.1 5.1h-6.6c-2.8 0-5.1 2.3-5.1 5.1v21.6c0 2.8 2.3 5.1 5.1 5.1H48c2.8 0 5.1-2.3 5.1-5.1V20.8c-.1-2.9-2.4-5.2-5.2-5.2zM32 40.5c-5 0-9-4-9-9s4-9 9-9 9 4 9 9-4 9-9 9z"/><circle cx="32" cy="31.5" r="5"/></symbol><symbol viewBox="0 0 64 64" id="cars"><path d="M54.5 32.5c0-.8-.8-2.3-.8-2.5l-4.1-9s-2.5-7.4-7.4-7.4H23.4c-5 0-7.6 3.7-9 7.4l-4.1 9c-.6.9-.8 1.4-.8 2.5v13.1c0 1.2 1.2 2.5 2.5 2.5h5.7c1.3 0 2.5-1.2 2.5-2.5v-4.1h24.5v4.1c0 1.2 1.2 2.5 2.5 2.5H52c1.3 0 2.5-1.2 2.5-2.5V32.5zM16.9 21.8c1.5-4 4.1-5.7 6.5-5.7h18c2.5 0 4.3 1.8 5.7 5.7l2.5 5.7c-.9-.3-1.4-.8-2.5-.8H17.7c-1 0-2.4.6-3.3.8l2.5-5.7zm3.6 14.8h-5.1c-.9 0-1.7-.7-1.7-1.6 0-.9.7-2.1 1.7-2.1h5.1c.9 0 1.7 1.2 1.7 2.1 0 .9-.8 1.6-1.7 1.6zm18.1-.4H26.7c-.6 0-1.1-.4-1.1-1 0-.5.5-1 1.1-1h11.9c.6 0 1.1.4 1.1 1-.1.6-.5 1-1.1 1zm10.7.4h-5.1c-.9 0-1.7-.7-1.7-1.6 0-.9.7-2.1 1.7-2.1h5.1c.9 0 1.7 1.2 1.7 2.1 0 .9-.8 1.6-1.7 1.6z"/></symbol><symbol viewBox="0 0 64 64" id="check-circle"><path d="M32.6 8C20 7.7 9.4 17.7 9 30.3v.7c0 12.7 10.3 23 23 23s23-10.3 23-23c0-12.4-9.9-22.6-22.4-23zm9.6 11.6l4.6 4.6-13.7 13.6-4.6 4.6-4.5-4.6-6.8-6.8 4.6-4.6 6.8 6.8 13.6-13.6z"/></symbol><symbol viewBox="0 0 64 64" id="check-pro"><path d="M51.3 7L25.2 33.1 12.7 20.5 4 29.2l21.2 21.2L60 15.7z"/></symbol><symbol viewBox="0 0 64 64" id="chevron"><path d="M62.1 17.1c0 .5-.2 1-.6 1.4l-28.1 28c-.4.4-.9.6-1.4.6-.5 0-1-.2-1.4-.6l-28-28c-.4-.4-.6-.9-.6-1.4 0-.5.2-1 .6-1.4l3-3c.4-.4.9-.6 1.4-.6.5 0 1 .2 1.4.6l23.7 23.7 23.7-23.7c.4-.4.9-.6 1.4-.6.5 0 1 .2 1.4.6l3 3c.3.4.5.9.5 1.4z"/></symbol><symbol viewBox="0 0 64 64" id="circle"><path class="bbst3" d="M32.3 22c-5.5-.2-10.1 4.2-10.3 9.7v.3c0 5.5 4.5 10 10 10s10-4.5 10-10c0-5.4-4.3-9.8-9.7-10z"/></symbol><symbol viewBox="0 0 64 64" id="cloud"><title>flat-icons-2</title><path d="M53.43 39.13a8.57 8.57 0 0 1-8.57 8.57H20.57a9.63 9.63 0 0 1-7.06-2.94 10 10 0 0 1-1.35-12.46 9.84 9.84 0 0 1 4.17-3.65v-1a11.43 11.43 0 0 1 11.38-11.38 11.07 11.07 0 0 1 6.4 2 11.42 11.42 0 0 1 4.19 5.13A5.4 5.4 0 0 1 42 22a5.7 5.7 0 0 1 4.8 8.79 8.38 8.38 0 0 1 4.75 3 8.29 8.29 0 0 1 1.88 5.34z"/></symbol><symbol viewBox="0 0 32 32" id="cog"><path d="M29.18 19.07c-1.678-2.908-.668-6.634 2.256-8.328L28.29 5.295a6.022 6.022 0 0 1-3.057.83c-3.36 0-6.085-2.743-6.085-6.126h-6.29a6.023 6.023 0 0 1-.81 3.07c-1.68 2.907-5.41 3.896-8.34 2.21L.566 10.727A6.023 6.023 0 0 1 2.81 12.96c1.677 2.904.673 6.624-2.24 8.32l3.145 5.447a6.022 6.022 0 0 1 3.044-.82c3.35 0 6.066 2.725 6.083 6.092h6.29a6.032 6.032 0 0 1 .81-3.04c1.676-2.902 5.4-3.893 8.325-2.218l3.145-5.447a6.032 6.032 0 0 1-2.232-2.226zM16 22.48a6.48 6.48 0 1 1 0-12.96 6.48 6.48 0 0 1 0 12.96z"/></symbol><symbol viewBox="0 0 64 64" id="compare"><path d="M49.9 37.3H23v-3.6c0-.8-.5-1.6-1.4-1.9-.8-.3-1.8-.1-2.4.4l-9.8 9.1c-1.1 1.1-1.1 2.8 0 3.9l9.8 9.2c.6.6 1.6.8 2.4.5.8-.3 1.4-1.1 1.4-1.9v-3.6h26.9c1.2 0 2.1-.9 2.1-2v-8c0-1.2-1-2.1-2.1-2.1zm2.2-18.5l-9.8-9.2c-.6-.6-1.5-.8-2.3-.4s-1.4 1.1-1.4 1.9v3.6H11.7c-1.2 0-2.1.9-2.1 2v8c0 1.1 1 2 2.1 2h26.9v3.6c0 .8.5 1.6 1.4 1.9.8.3 1.8.1 2.4-.4l9.8-9.1c1.1-1.1 1.1-2.8-.1-3.9z"/></symbol><symbol viewBox="0 0 64 64" id="compass"><path d="M38.6 23.2l-12.9 6.1c-1.8.9-1.7 1.6.3 1.6h4.2c1 0 1.8.8 1.8 1.8v4c0 2 .7 2.2 1.5.3l5.9-12.9c.5-.9.1-1.3-.8-.9zM32 7.9c-12.7 0-23 10.3-23 23s10.3 23 23 23 23-10.3 23-23-10.3-23-23-23zm0 39.4c-9.1 0-16.4-7.4-16.4-16.4 0-9.1 7.3-16.4 16.4-16.4 9.1 0 16.4 7.3 16.4 16.4 0 9.1-7.3 16.4-16.4 16.4z"/></symbol><symbol viewBox="0 0 64 64" id="construction"><path d="M53.9 9.6c-3.3-.6-7-2.1-10.3-2.7-3.3-.7-1.9-2.9-3.8-4.2-1-.7-2.5-.5-3.2.5L7.2 45.9l5.7 4.1h4.3v-4.3h4.3v-4.3h4.3V37h4.3v-4.3h4.3v-4.3H39v-4.1h11.2c2 0 3.4-.4 3.8-1.6.4-1.3 1.9-5.6 2.3-6.9.6-2.3 1-5.3-2.4-6.2zM13.8 46c-.9.2-1.8-.4-2-1.4-.2-.9.4-1.8 1.4-2 .9-.2 1.8.4 2 1.4.2 1-.5 1.8-1.4 2zm37.8-30.5c-.3.7-1.9 4.1-1.9 4.1L32.4 17l3.8-5.6c.7-1 1.4-1.5 2.6-1.3l11.6 3.2c1.2.3 1.5 1.5 1.2 2.2z"/></symbol><symbol viewBox="0 0 64 64" id="creative"><path d="M55.4 9.9H9c-1 0-1.8.8-1.8 1.8v38c0 1 .8 1.8 1.8 1.8h46.4c1 0 1.8-.8 1.8-1.8v-38c0-1-.8-1.8-1.8-1.8zM53.1 34l-7.3-7.5s-2-2.1-4-2.1-4 2.1-4 2.1-5.5 6.3-7.6 8.3c3.3 1.4 8.4 9.7 4.5 7.2-3.9-2.3-10.7-5-10.7-5l-12.6 8.3V14.1h41.7V34zM15.2 22.4c0-2.5 2-4.6 4.6-4.6 2.5 0 4.6 2 4.6 4.6 0 2.5-2 4.6-4.6 4.6-2.6 0-4.6-2.1-4.6-4.6z"/></symbol><symbol viewBox="0 0 64 64" id="credit-cards"><path d="M52.7 15H11.3c-1 0-1.8.8-1.8 1.8v6.3h45v-6.3c0-1-.8-1.8-1.8-1.8zM9.5 27.6v19.8c0 1 .8 1.8 1.8 1.8h41.4c1 0 1.8-.8 1.8-1.8V27.6h-45zm14.4 18.9H12.2v-5.4h11.7v5.4z"/></symbol><symbol viewBox="0 0 64 64" id="deals"><path d="M55 39.2l-18.9 19L9 31.1V17.8l5.7-5.7h13.2L55 39.2zM16.2 19.3c-.8.8-.8 2 0 2.8.8.8 2 .8 2.8 0 .8-.8.8-2 0-2.8-.8-.7-2.1-.7-2.8 0z"/></symbol><symbol viewBox="0 0 64 64" id="diets"><path d="M50.7 16.5s5.2-3.2 1.4-6.8c0 0-5.2-4-8.7 1.5 0 0-.6-1-1.5-2-1.6-1.9-4-4-5.2-1.4 0 0-5.4-1.2-5 1.2 0 0 1.8 3.3 3.7 3.3-1.5.2-6 1.2-3.4 3.9 0 0 1.1 1.2 2.8 2 1.4.7 3.3 1.1 5.5.4 0 0-1.7 1.6-3.6 3.2-.8-.5-1.7-.8-2.7-1-.3-.1-.6-.1-.9-.1-3.1-.2-5.9 1.7-8.2 5.6.1 0 .2.1.3.1l3.3 2.5.1.1c.5.4.6 1.2.2 1.7-.3.4-.8.5-1.2.5-.1 0-.1 0-.2-.1-.1 0-.2-.1-.3-.2l-3.4-2.6-2.4 5 3.1 2.4c.5.4.6 1.2.2 1.7-.3.4-.8.5-1.2.5-.2 0-.3-.1-.5-.2l-2.9-2-2.6 5.3 1.6 1.3c.5.4.6 1.2.2 1.7-.3.4-.8.5-1.2.5-.2 0-.3-.1-.5-.2l-1.3-1L12 52c-.6 1.1-1.1 2.4-.1 3.1.3.2-.1.2.3.3.8.2 1.6-.1 2.3-.6l7.4-5.8 15.2-12s5.6-4.2 4.6-9c-.3-1.5-.9-2.5-1.6-3.4.8-1.3 1.9-2.7 3.5-3.9 0 0-.6 6.3 2.9.9 0 0 2.3 5.4 5.2 3.2 0 0 2.5-1.7-2.3-5.2 0 0 6.8 2.8 6.9.5.1 0 .2-2.8-5.6-3.6z"/></symbol><symbol viewBox="0 0 64 64" id="doctors"><path d="M57 50.2c0 2.9-.9 5.2-2.6 6.8-1.7 1.6-4 2.5-6.9 2.5h-31c-2.9 0-5.2-.8-6.9-2.5C7.9 55.4 7 53.1 7 50.2c0-1.6.1-3.2.2-4.7s.4-3.1.8-4.9c.4-1.8 1-3.4 1.7-4.7.7-1.4 1.6-2.6 2.9-3.7 1.2-1.1 2.7-1.8 4.3-2.2-.5 1.2-.8 2.7-.8 4.3v7.3c-1.4.5-2.5 1.3-3.3 2.5-.8 1.2-1.2 2.5-1.2 4 0 1.9.7 3.5 2 4.9 1.3 1.3 2.9 2 4.8 2s3.5-.7 4.8-2c1.3-1.3 2-3 2-4.9 0-1.5-.4-2.8-1.3-4-.8-1.2-1.9-2-3.3-2.5v-7.3c0-1.5.3-2.6.9-3.3 3.1 2.5 6.6 3.7 10.5 3.7 3.9 0 7.4-1.2 10.5-3.7.6.7.9 1.8.9 3.3v2.3c-2.5 0-4.7.9-6.4 2.7-1.8 1.8-2.7 4-2.7 6.5V49c-.8.7-1.1 1.5-1.1 2.5s.3 1.8 1 2.4c.7.7 1.5 1 2.4 1 .9 0 1.8-.3 2.4-1 .7-.7 1-1.5 1-2.4 0-1-.4-1.8-1.1-2.5v-3.2c0-1.2.4-2.3 1.3-3.2.9-.9 2-1.4 3.2-1.4 1.2 0 2.3.5 3.2 1.4.9.9 1.3 2 1.3 3.2V49c-.8.7-1.1 1.5-1.1 2.5s.3 1.8 1 2.4c.7.7 1.5 1 2.4 1 .9 0 1.8-.3 2.4-1 .7-.7 1-1.5 1-2.4 0-1-.4-1.8-1.1-2.5v-3.2c0-1.6-.4-3.1-1.2-4.6-.8-1.4-1.9-2.5-3.3-3.3v-1.5-1.7c0-.4 0-.9-.1-1.5 0-.6-.1-1.2-.2-1.7s-.3-1-.5-1.4c1.6.4 3 1.1 4.3 2.2 1.2 1.1 2.2 2.3 2.9 3.7.7 1.4 1.2 3 1.7 4.7.4 1.8.7 3.4.9 4.9s0 3 0 4.6zm-37-3.8c.4.5.7 1 .7 1.6 0 .6-.2 1.2-.7 1.6-.4.5-1 .7-1.6.7-.6 0-1.1-.2-1.6-.7-.4-.5-.7-1-.7-1.6 0-.6.2-1.2.7-1.6.4-.5 1-.7 1.6-.7.6 0 1.1.3 1.6.7zM41.6 8.5c2.7 2.7 4 5.9 4 9.7 0 3.8-1.3 7-4 9.7-2.7 2.7-5.9 4-9.6 4-3.8 0-7-1.3-9.6-4-2.7-2.7-4-5.9-4-9.7 0-3.8 1.3-7 4-9.7s5.9-4 9.6-4c3.8 0 7 1.3 9.6 4z"/></symbol><symbol viewBox="0 0 64 64" id="document"><path d="M35.6 22.7H50v26.9c0 .7-.6 1.3-1.3 1.3H15.3c-.7 0-1.3-.6-1.3-1.3V8.3c0-.7.6-1.3 1.3-1.3h18.9v14.3c0 .8.6 1.4 1.4 1.4zm.9-3.5c0 .7.6 1.4 1.3 1.4H50L36.5 7v12.2z"/></symbol><symbol viewBox="-67 69 64 64" id="document-text"><path d="M-14.7 93.6v26.5c0 1.3-1.1 2.4-2.4 2.4h-33.8c-1.3 0-2.4-1.1-2.4-2.4V79.9c0-1.3 1.1-2.4 2.4-2.4h20.1v13.7c0 1.3 1.1 2.4 2.4 2.4h13.7zm-9.7 4c0-.5-.4-.8-.8-.8h-17.7c-.5 0-.8.4-.8.8v1.6c0 .5.4.8.8.8h17.7c.5 0 .8-.4.8-.8v-1.6zm0 6.4c0-.5-.4-.8-.8-.8h-17.7c-.5 0-.8.4-.8.8v1.6c0 .5.4.8.8.8h17.7c.5 0 .8-.4.8-.8V104zm0 6.4c0-.5-.4-.8-.8-.8h-17.7c-.5 0-.8.4-.8.8v1.6c0 .5.4.8.8.8h17.7c.5 0 .8-.4.8-.8v-1.6zm8.7-20h-11.9V78.5c.4.2.7.5.9.7l10.3 10.3c.2.2.4.5.7.9z"/></symbol><symbol viewBox="0 0 64 64" id="dollar-sign"><path d="M34.6 50.1v4.8c0 .5-.4.9-.9.9H30c-.5 0-.9-.4-.9-.9v-4.8c-6.4-.9-9.8-4.7-10-4.9-.3-.3-.3-.8-.1-1.1l2.8-3.7c.1-.2.4-.3.6-.3.2 0 .5.1.7.2.1 0 3.9 3.7 8.7 3.7 2.7 0 5.5-1.4 5.5-4.5 0-2.6-3.2-3.9-6.9-5.4-4.9-1.9-11-4.4-11-11.2 0-5 3.9-9.1 9.6-10.2V7.9c0-.5.4-.9.9-.9h3.7c.5 0 .9.4.9.9v4.8c5.5.6 8.5 3.6 8.6 3.7.3.3.3.7.1 1l-2.2 4c-.1.2-.4.4-.6.4-.3.1-.5 0-.7-.2 0 0-3.3-2.9-7.4-2.9-3.5 0-5.8 1.7-5.8 4.2 0 2.9 3.3 4.2 7.2 5.7 5 1.9 10.7 4.1 10.7 10.7-.1 5.5-4 9.8-9.8 10.8z"/></symbol><symbol id="double-chevron" viewBox="0 0 64 64"><style>.st0{fill:#d0b152}.st1{fill:#f9c14f}.st2{fill:#fdd895}.st3{fill:#010101}.st4{fill:none}.st5{stroke:#000;stroke-width:4.8066;stroke-miterlimit:10}</style><path d="M34.8 28.4L16.9 46.3c-.2.2-.6.4-.9.4-.3 0-.6-.2-.9-.4l-1.9-1.9c-.2-.2-.4-.6-.4-.9 0-.3.2-.6.4-.9l15.1-15.1-15.1-15.1c-.2-.2-.4-.6-.4-.9 0-.3.2-.7.4-.9l1.9-1.9c.2-.2.6-.4.9-.4.3 0 .7.2.9.4l17.9 17.9c.2.2.4.6.4.9 0 .3-.1.7-.4.9zm14.8 0L31.7 46.3c-.2.2-.6.4-.9.4-.3 0-.6-.2-.9-.4L28 44.4c-.2-.2-.4-.6-.4-.9 0-.3.2-.6.4-.9l15.1-15.1L28 12.4c-.2-.2-.4-.6-.4-.9 0-.3.2-.7.4-.9l1.9-1.9c.2-.2.6-.4.9-.4.3 0 .7.2.9.4l17.9 17.9c.2.2.4.6.4.9-.1.3-.2.7-.4.9z"/></symbol><symbol viewBox="0 0 64 64" id="download"><path d="M54.7 49.4c0 1.5-1.2 2.6-2.6 2.6H11.7c-1.5 0-2.6-1.2-2.6-2.6v-8.8c0-1.5 1.2-2.6 2.6-2.6h12.8l3.7 3.7c1 1 2.3 1.5 3.7 1.5 1.4 0 2.7-.5 3.7-1.5l3.7-3.7H52c1.5 0 2.6 1.2 2.6 2.6v8.8zm-9.3-22.5L33.1 39.2c-.3.4-.8.5-1.2.5-.4 0-.9-.2-1.2-.5L18.4 26.9c-.5-.5-.7-1.3-.4-1.9.3-.6.9-1.1 1.6-1.1h7V11.6c0-1 .8-1.8 1.8-1.8h7c1 0 1.8.8 1.8 1.8v12.3h7c.7 0 1.3.4 1.6 1.1.3.6.2 1.4-.4 1.9zm-3 18.1c-1 0-1.8.8-1.8 1.8s.8 1.8 1.8 1.8 1.8-.8 1.8-1.8-.8-1.8-1.8-1.8zm7.1 0c-1 0-1.8.8-1.8 1.8s.8 1.8 1.8 1.8 1.8-.8 1.8-1.8c-.1-1-.9-1.8-1.8-1.8z"/></symbol><symbol viewBox="0 0 64 64" id="ellipsis"><path d="M21.9 35c0 1.7-1.4 3-3 3h-6.1c-1.7 0-3-1.4-3-3v-6c0-1.7 1.4-3 3-3h6.1c1.7 0 3 1.4 3 3v6zm16.2 0c0 1.7-1.4 3-3 3H29c-1.7 0-3-1.4-3-3v-6c0-1.7 1.4-3 3-3h6c1.7 0 3 1.4 3 3v6zm16.2 0c0 1.7-1.4 3-3 3h-6.1c-1.7 0-3-1.4-3-3v-6c0-1.7 1.4-3 3-3h6.1c1.7 0 3 1.4 3 3v6z"/></symbol><symbol viewBox="0 0 64 64" id="exclamation"><path d="M21.1 13.3c3.3-1.9 6.9-2.9 10.9-2.9 3.9 0 7.5 1 10.9 2.9 3.3 1.9 5.9 4.6 7.9 7.9 1.9 3.3 2.9 6.9 2.9 10.9s-1 7.5-2.9 10.9c-1.9 3.3-4.6 5.9-7.9 7.9-3.3 1.9-6.9 2.9-10.9 2.9-3.9 0-7.5-1-10.9-2.9-3.3-1.9-5.9-4.6-7.9-7.9-1.9-3.3-2.9-6.9-2.9-10.9s1-7.5 2.9-10.9c2-3.4 4.6-6 7.9-7.9zm14.5 22.5l.5-17.5c0-.2-.1-.4-.3-.5-.2-.2-.4-.2-.7-.2h-6.2c-.3 0-.5.1-.7.2-.2.1-.3.3-.3.5l.5 17.5c0 .2.1.4.3.5.2.1.4.2.7.2h5.2c.3 0 .5-.1.7-.2.1-.1.2-.3.3-.5zm0 9.7v-5.4c0-.3-.1-.5-.3-.7-.2-.2-.4-.3-.6-.3h-5.4c-.2 0-.5.1-.6.3-.2.2-.3.4-.3.6v5.4c0 .2.1.5.3.6.2.2.4.3.6.3h5.4c.2 0 .5-.1.6-.3.2 0 .3-.2.3-.5z"/></symbol><symbol id="external-link" viewBox="0 0 64 64"><style>.st0{fill:#d0b152}.st1{fill:#f9c14f}.st2{fill:#fdd895}.st3{fill:#010101}.st4{fill:none}</style><path d="M42.5 35.1v6.2c0 1.5-.5 2.9-1.7 4-1.1 1.1-2.4 1.6-4 1.6H20.6c-1.5 0-2.9-.5-4-1.6s-1.6-2.4-1.6-4V25.1c0-1.5.5-2.9 1.6-4s2.4-1.7 4-1.7h13.7c.2 0 .3.1.5.2.1.1.2.3.2.5v1.3c0 .2-.1.3-.2.4-.1.1-.3.2-.5.2H20.6c-.9 0-1.6.3-2.2.9-.6.6-.9 1.4-.9 2.2v16.2c0 .9.3 1.6.9 2.2.6.6 1.3.9 2.2.9h16.2c.9 0 1.6-.3 2.2-.9.6-.6.9-1.3.9-2.2v-6.2c0-.2.1-.3.2-.5.1-.1.3-.2.5-.2h1.2c.2 0 .3.1.5.2.1.2.2.3.2.5zM50 18.3v10c0 .3-.1.6-.4.9-.2.2-.5.4-.9.4-.3 0-.6-.1-.9-.4l-3.4-3.4-12.7 12.6c-.1.1-.3.2-.5.2s-.3-.1-.5-.2l-2.2-2.2c-.1-.1-.2-.3-.2-.4 0-.2.1-.3.2-.5l12.7-12.7-3.4-3.4c-.2-.2-.4-.5-.4-.9 0-.3.1-.6.4-.9.2-.2.5-.4.9-.4h10c.3 0 .6.1.9.4.3.2.4.5.4.9z"/></symbol><symbol viewBox="0 0 64 64" id="facebook"><path d="M24.8 14.3v6.5H20v7.9h4.8v23.6h9.8V28.7h6.6s.6-3.8.9-8h-7.4v-5.4c0-.8 1.1-1.9 2.1-1.9h5.3V5.1h-7.2c-10.4.1-10.1 8-10.1 9.2z"/></symbol><symbol viewBox="0 0 64 64" id="flag"><path d="M18.7 12.3c0 1.3-.6 2.2-1.7 2.9v33c0 .2-.1.4-.2.6-.2.2-.4.2-.6.2h-1.7c-.2 0-.4-.1-.6-.2-.2-.2-.2-.4-.2-.6v-33c-1.1-.7-1.7-1.6-1.7-2.9 0-.9.3-1.7 1-2.4s1.4-1 2.4-1 1.7.3 2.4 1c.5.7.9 1.5.9 2.4zM57 14v19.9c0 .4-.1.8-.3 1-.2.2-.6.5-1 .7-3.7 2-6.9 3-9.6 3-1.1 0-2.1-.2-3.2-.6-1.1-.4-2-.8-2.8-1.2s-1.8-.9-3-1.2-2.6-.6-3.8-.6c-3.3 0-7.4 1.3-12.1 3.8-.3.2-.6.2-.9.2-.5 0-.8-.2-1.2-.5-.3-.3-.5-.7-.5-1.2V18c0-.6.3-1 .8-1.4.4-.2 1.1-.6 2.1-1.1 4.1-2.1 7.8-3.1 11-3.1 1.9 0 3.6.3 5.2.8s3.5 1.3 5.7 2.3c.7.3 1.4.5 2.3.5.9 0 2-.2 3.1-.5 1.1-.4 2.1-.8 2.9-1.2.8-.5 1.6-.9 2.3-1.2.7-.4 1.2-.5 1.4-.5.5 0 .8.2 1.2.5.2.1.4.4.4.9z"/></symbol><symbol viewBox="0 0 64 64" id="folder"><path d="M53 24.6H10.5c-1.5 0-2.4.9-2.4 2.3 0 .5.1 1 .1 1.6.3 3.6.7 7.2 1 10.7.3 3.7.7 7.4 1 11.1.2 1.9.8 2.4 2.8 2.4H51.4c1.2-.1 1.9-.9 2-2 .1-.7.1-1.4.2-2.2.3-3.5.7-7 1-10.5.3-3.5.6-7 1-10.4.2-2-.5-3-2.6-3zM8.1 20.1H51l.3-2c.1-.4.1-.7.1-1.1 0-.6-.1-1.2-.3-1.8-.3-.9-1-1.7-1.9-2.2-.9-.5-1.8-.7-2.8-.7H28.7l-.1-.1c-.6-.9-1.3-1.7-2.1-2.6-.3-.4-.7-.6-1.1-.9-.4-.2-.9-.4-1.7-.5H12.5c-1.1 0-2.1.5-2.9 1.1-.4.3-.7.8-1 1.3-.2.5-.4 1.1-.4 1.7V20.1z"/></symbol><symbol viewBox="0 0 64 64" id="football"><path d="M33 8.7c-4.1 1.7-8.3 4.3-11.9 7.8-3.8 3.8-6.4 8.2-8.1 12.5 2.4 1.5 6.1 4.1 9.7 7.7 4.6 4.6 7.6 9.3 8.8 11.4 4.5-1.7 9.1-4.4 13.1-8.3 3.4-3.4 5.9-7.3 7.6-11.3-.8-1.4-3.9-6.9-9.2-12.1-3.8-3.5-7.6-6.2-10-7.7zm1.3 11.7c-.3.3-.6.4-1 .4s-.7-.1-1-.4l-1.7-1.7-2 2 1.7 1.7c.3.3.4.6.4 1s-.1.7-.4 1c-.3.3-.6.4-1 .4s-.7-.1-1-.4l-1.7-1.7-2 2 1.7 1.7c.3.3.4.6.4 1s-.1.7-.4 1c-.3.3-.6.4-1 .4s-.7-.1-1-.4l-1.7-1.7-1.1 1.1c-.3.3-.6.4-1 .4s-.7-.1-1-.4c-.5-.5-.5-1.4 0-1.9l1.1-1.1-1.7-1.7c-.3-.3-.4-.6-.4-1s.1-.7.4-1c.3-.3.6-.4 1-.4s.7.1 1 .4l1.7 1.7 2-2-1.5-1.8c-.3-.3-.4-.6-.4-1s.1-.7.4-1c.3-.3.6-.4 1-.4s.7.1 1 .4l1.7 1.7 2-2-1.8-1.6c-.3-.3-.4-.6-.4-1s.1-.7.4-1c.3-.3.6-.4 1-.4s.7.1 1 .4l1.7 1.7 1.2-1.2c.3-.3.6-.4 1-.4s.7.1 1 .4c.3.3.4.6.4 1s-.1.7-.4 1l-1.2 1.2 1.7 1.7c.3.3.4.6.4 1-.1.3-.3.7-.5.9zM11 35.6c-1.1 5.9-.5 10.9 1.4 12.8 1.9 1.9 6.7 2.5 12.4 1.5-1.6-2.4-3.9-5.5-7-8.5-2.3-2.4-4.7-4.3-6.8-5.8zM53 8c-1.8-1.8-6.4-2.5-11.9-1.6 2 1.4 4.2 3.3 6.4 5.5 3 3 5.4 6.2 7 8.5 1-5.8.4-10.6-1.5-12.4z"/></symbol><symbol viewBox="0 0 64 64" id="full-list"><path d="M13.8 24.2C11.2 24.2 9 22 9 19.3s2.2-4.8 4.8-4.8 4.8 2.2 4.8 4.8-2.1 4.9-4.8 4.9zm0 12.9c-2.7 0-4.8-2.2-4.8-4.8s2.2-4.8 4.8-4.8 4.8 2.2 4.8 4.8-2.1 4.8-4.8 4.8zm0 12.9C11.2 50 9 47.8 9 45.2c0-2.7 2.2-4.8 4.8-4.8s4.8 2.2 4.8 4.8c.1 2.6-2.1 4.8-4.8 4.8zm40.4-28.3c0 .4-.4.8-.8.8H22.7c-.4 0-.8-.4-.8-.8v-4.8c0-.4.4-.8.8-.8h30.7c.4 0 .8.4.8.8v4.8zm0 13c0 .4-.4.8-.8.8H22.7c-.4 0-.8-.4-.8-.8v-4.8c0-.4.4-.8.8-.8h30.7c.4 0 .8.4.8.8v4.8zm0 12.9c0 .4-.4.8-.8.8H22.7c-.4 0-.8-.4-.8-.8v-4.8c0-.4.4-.8.8-.8h30.7c.4 0 .8.4.8.8v4.8z"/></symbol><symbol id="fullscreen" viewBox="-273 365 64 64"><style>.bzst0{fill:#010101}</style><path class="bzst0" d="M-227.6 387.8l-9.2 9.2 9.2 9.2 3.8-3.8c.5-.5 1.1-.7 1.8-.4s1 .8 1 1.5v11.7c0 .5-.2.8-.5 1.2-.3.3-.7.5-1.2.5h-11.6c-.7 0-1.2-.3-1.5-1-.3-.7-.2-1.3.4-1.8l3.8-3.8-9.4-9.1-9.2 9.2 3.8 3.8c.5.5.7 1.1.4 1.8s-.8 1-1.5 1h-11.8c-.5 0-.8-.2-1.2-.5-.3-.3-.5-.7-.5-1.2v-11.6c0-.7.3-1.2 1-1.5.7-.3 1.3-.2 1.8.4l3.8 3.8 9.2-9.2-9.2-9.2-3.8 3.8c-.3.3-.7.5-1.2.5-.2 0-.4 0-.6-.1-.7-.3-1-.8-1-1.5v-12c0-.5.2-.8.5-1.2.3-.3.7-.5 1.2-.5h11.7c.7 0 1.2.3 1.5 1 .3.7.2 1.3-.4 1.8l-3.8 3.7 9.2 9.2 9.2-9.2-3.8-3.7c-.5-.5-.7-1.1-.4-1.8.3-.7.8-1 1.5-1h11.7c.5 0 .8.2 1.2.5.3.3.5.7.5 1.2v11.7c0 .7-.3 1.2-1 1.5 0 .1-.3.1-.5.1-.5 0-.8-.2-1.2-.5l-3.7-3.7z"/></symbol><symbol viewBox="-177 269 256 256" id="gallery-arrow"><path d="M-95 285L17 397-95 509z"/></symbol><symbol viewBox="0 0 64 64" id="gavel"><path d="M54 51.2L51.3 54c-.6.6-1.5 1-2.4 1s-1.7-.4-2.3-1l-9.4-9.5c-.6-.6-1-1.5-1-2.3 0-1 .4-1.8 1.1-2.5L30.6 33l-3.3 3.3c-.2.2-.5.4-.9.4-.3 0-.7-.1-.9-.4.8.8 1.5 1.3 1.5 2.5 0 .7-.3 1.3-.7 1.8-.9.9-1.8 2.2-3.2 2.2-.7 0-1.3-.3-1.8-.7L10.7 31.5c-.5-.5-.7-1.1-.7-1.8 0-1.4 1.3-2.3 2.2-3.2.5-.5 1.1-.7 1.8-.7 1.2 0 1.8.7 2.5 1.5-.2-.2-.4-.5-.4-.9 0-.3.1-.7.4-.9l9-9c.2-.2.5-.4.9-.4.3 0 .6.1.9.4-.8-.8-1.5-1.3-1.5-2.5 0-.7.3-1.3.7-1.8.9-.9 1.8-2.2 3.2-2.2.6 0 1.3.3 1.8.7l10.6 10.6c.5.5.7 1.1.7 1.8 0 1.4-1.3 2.3-2.2 3.2-.5.5-1.1.7-1.8.7-1.2 0-1.8-.7-2.5-1.5.2.2.4.5.4.9 0 .3-.1.6-.4.9L33 30.6l6.7 6.7c.7-.7 1.5-1.1 2.5-1.1.9 0 1.7.4 2.4 1l9.4 9.4c.6.6 1 1.5 1 2.4s-.4 1.6-1 2.2z"/></symbol><symbol viewBox="0 0 64 64" id="gears"><path d="M38 35.6c0 .3-.2.7-.5.7l-3.6.6c-.2.6-.4 1.2-.7 1.8l2.1 2.7c.1.1.2.3.2.5s0 .3-.2.4c-.5.6-3.1 3.5-3.8 3.5-.2 0-.4-.1-.5-.2l-2.7-2.1c-.6.3-1.2.5-1.8.7-.1 1.2-.2 2.5-.5 3.6-.1.3-.4.6-.7.6h-4.4c-.3 0-.7-.3-.7-.6l-.5-3.6c-.6-.2-1.2-.4-1.8-.7l-2.8 2.1c-.1.1-.3.2-.5.2s-.3-.1-.5-.2c-.6-.6-3.4-3.1-3.4-3.7 0-.2.1-.3.2-.4l2.1-2.7c-.3-.6-.6-1.3-.8-1.9l-3.6-.6c-.3 0-.6-.4-.6-.7v-4.3c0-.3.2-.7.5-.7l3.6-.6c.2-.6.4-1.2.7-1.8l-2.1-2.7c-.1-.1-.2-.3-.2-.5s0-.3.2-.5c.5-.6 3.1-3.5 3.8-3.5.2 0 .4.1.5.2l2.7 2.1c.6-.3 1.2-.5 1.8-.7.1-1.2.2-2.5.5-3.6.1-.3.4-.6.7-.6h4.4c.3 0 .7.3.7.6l.5 3.6c.6.2 1.2.4 1.8.7l2.8-2.1c.1-.1.3-.2.5-.2s.3.1.5.2c.6.6 3.4 3.1 3.4 3.7 0 .2-.1.3-.2.4-.7.9-1.4 1.8-2 2.7.3.6.6 1.3.8 1.9l3.6.5c.3.1.6.4.6.7v4.5zm-15-8.2c-3.3 0-6 2.7-6 6s2.7 6 6 6 6-2.7 6-6-2.7-6-6-6zM53 23c0 .4-3 .7-3.5.7-.2.4-.4.8-.7 1.2.2.5 1.2 2.8 1.2 3.2 0 .1 0 .1-.1.2-.3.2-2.8 1.7-2.9 1.7-.3 0-2.1-2.3-2.3-2.7h-1.4c-.2.4-2 2.7-2.3 2.7-.1 0-2.6-1.5-2.9-1.7-.1 0-.1-.1-.1-.2 0-.4 1-2.8 1.2-3.2-.3-.4-.5-.8-.7-1.2-.5 0-3.5-.4-3.5-.7v-3.3c0-.4 3-.7 3.5-.7.2-.4.4-.8.7-1.2-.2-.5-1.2-2.9-1.2-3.3 0 0 0-.1.1-.2.3-.1 2.8-1.6 2.9-1.6.3 0 2.1 2.3 2.3 2.7h1.4c.7-.9 1.4-1.8 2.2-2.6h.1c.1 0 2.6 1.5 2.9 1.6.1 0 .1.1.1.2 0 .4-1 2.8-1.2 3.2.3.4.5.8.7 1.2.5 0 3.5.4 3.5.7V23zm0 24c0 .4-3 .7-3.5.7-.2.4-.4.8-.7 1.2.2.5 1.2 2.8 1.2 3.2 0 .1 0 .1-.1.2-.3.2-2.8 1.7-2.9 1.7-.3 0-2.1-2.3-2.3-2.7h-1.4c-.2.4-2 2.7-2.3 2.7-.1 0-2.6-1.5-2.9-1.7-.1 0-.1-.1-.1-.2 0-.4 1-2.8 1.2-3.2-.3-.4-.5-.8-.7-1.2-.5 0-3.5-.4-3.5-.7v-3.3c0-.4 3-.7 3.5-.7.2-.4.4-.8.7-1.2-.2-.5-1.2-2.9-1.2-3.3 0 0 0-.1.1-.2.3-.1 2.8-1.6 2.9-1.6.3 0 2.1 2.3 2.3 2.7h1.4c.7-.9 1.4-1.8 2.2-2.6h.1c.1 0 2.6 1.5 2.9 1.6.1 0 .1.1.1.2 0 .4-1 2.8-1.2 3.2.3.4.5.8.7 1.2.5 0 3.5.4 3.5.7V47zm-9-28.6c-1.6 0-3 1.4-3 3 0 1.7 1.4 3 3 3 1.7 0 3-1.4 3-3s-1.4-3-3-3zm0 24c-1.6 0-3 1.4-3 3 0 1.7 1.4 3 3 3 1.7 0 3-1.4 3-3s-1.4-3-3-3z"/></symbol><symbol viewBox="0 0 64 64" id="google-plus"><path d="M22.4 48C12.3 48 4 39.7 4 29.5S12.3 11 22.5 11c5 0 9.1 1.8 12.4 4.8l-5 4.8c-1.4-1.3-3.8-2.8-7.4-2.8-6.3 0-11.4 5.2-11.4 11.7s5.1 11.7 11.4 11.7c7.3 0 10-5.3 10.5-8H22.4v-6.3h17.4c.2.9.3 1.9.3 3.1.1 10.5-7 18-17.7 18zM62 32.2h-5.3v5.3h-5.3v-5.3h-5.3v-5.3h5.3v-5.3h5.3v5.3H62v5.3z"/></symbol><symbol viewBox="0 0 64 64" id="hamburger"><path d="M11 12h42v7H11zM11 28h42v7H11zM11 44h42v7H11z"/></symbol><symbol id="health-care" viewBox="0 0 64 64"><style>.st0{fill:#d0b152}.st1{fill:#f9c14f}.st2{fill:#fdd895}.cfst3{fill:#010101}.st4{fill:none}</style><path class="cfst3" d="M54.4 23.3c0-4-3.2-7.2-7.2-7.2S40 19.3 40 23.3c0 3.5 2.4 6.3 5.7 7.1v14.5c0 5.7-4.7 10.4-10.4 10.4s-10.4-4.7-10.4-10.4v-2.1c5.8-.8 12-5.7 12-9.9V15.4c0-3.4-2-6.3-5-7.5-.4-1.4-1.7-2.4-3.2-2.4-1.9 0-3.4 1.5-3.4 3.4s1.5 3.4 3.4 3.4c1 0 1.8-.4 2.5-1.1 1.5.9 2.5 2.4 2.5 4.2v17.5c0 2.3-5.5 6.7-10.4 6.7s-10.4-4.4-10.4-6.7V15.4c0-1.8 1-3.4 2.4-4.2.6.7 1.5 1.1 2.5 1.1 1.9 0 3.4-1.5 3.4-3.4s-1.5-3.4-3.4-3.4c-1.5 0-2.8 1-3.2 2.4-2.9 1.3-4.9 4.2-4.9 7.5v17.5c0 4.2 6.2 9 12 9.8v2.1c0 7.5 6.1 13.7 13.7 13.7s13.7-6.1 13.7-13.7V30.7c0-.1 0-.3-.1-.4 3-.7 5.4-3.6 5.4-7zm-7.2 4c-2.2 0-3.9-1.8-3.9-3.9s1.8-3.9 3.9-3.9c2.2 0 3.9 1.8 3.9 3.9 0 2.1-1.7 3.9-3.9 3.9z"/></symbol><symbol viewBox="0 0 64 64" id="health-conditions"><path d="M60 22.6c0 3-1.1 6.1-3.2 9.4H45.3l-3.5-6.9c-.2-.4-.4-.6-.8-.8-.4-.3-.8-.3-1.2-.3-.9.1-1.5.6-1.8 1.4l-4 13.4-6.1-21.4c-.1-.4-.4-.8-.7-1-.4-.3-.8-.4-1.2-.4-.5 0-.9.1-1.2.4-.4.3-.6.6-.7 1.1L20.4 32H7.2C5.1 28.8 4 25.6 4 22.6c0-4.6 1.3-8.2 4-10.8 2.6-2.6 6.3-3.9 11-3.9 1.3 0 2.6.2 4 .7 1.3.4 2.6 1.1 3.8 1.8 1.2.8 2.2 1.5 3 2.1l2.4 2.1c.8-.7 1.5-1.5 2.4-2.1.8-.7 1.8-1.4 3-2.1 1.2-.8 2.4-1.4 3.8-1.8 1.3-.4 2.7-.7 4-.7 4.7 0 8.3 1.3 11 3.9C58.7 14.5 60 18 60 22.6zM44 36h9.5l-.3.3c-.1.1-.2.2-.3.2l-.1.1-19.4 18.8c-.4.4-.9.6-1.4.6-.5 0-1-.2-1.4-.6L11.1 36.6c-.1 0-.3-.3-.7-.6H22c.5 0 .9-.1 1.2-.4.4-.3.6-.6.7-1.1l2.2-8.8L32 46.5c.1.4.4.8.7 1 .4.3.8.4 1.2.4.4 0 .8-.1 1.2-.4.4-.3.6-.6.7-1l4.6-15.2 1.8 3.5c.4.8 1 1.2 1.8 1.2z"/></symbol><symbol viewBox="0 0 64 64" id="health-plans"><path d="M28.5 34c.1 0 .8-.2.8.7V37c0 .1 0 .7-.8.7h-2.4V40c0 .1.1.7-.8.7h-2.4c-.1 0-.8 0-.8-.7v-2.2h-2.4c-.1 0-.8.1-.8-.7v-2.2c0-.1 0-.7.8-.7H22V32c0-.4.2-.7.8-.7h2.4c.9 0 .8.6.8.7v2h2.5zM24.7 19.5h14.7c1 0 1.9-.8 1.9-1.7v-1.7c0-.9-.8-1.7-1.9-1.7h-3.7v-1.5c0-.9-.8-1.9-1.9-1.9h-3.7c-1 0-1.9.9-1.9 1.9v1.5h-3.7c-1 0-1.9.8-1.9 1.7v1.7c.2.9 1.1 1.7 2.1 1.7z"/><path fill="none" d="M36 43.1h10.6v1.2H36zM36 27.4h5.3v2.4H36zM36 38.3h13.2v1.2H36zM14.8 44.4h18.5v-17H14.8v17zM43.9 27.4h6.6v2.4h-6.6zM36 32.2h14.6v1.2H36z"/><path d="M50.5 16.5h-6.6v2.4c0 2.2-1.6 2.4-4 2.4H24.1c-2.4 0-4-.3-4-2.4v-2.4h-6.6c-2.1 0-4 1.7-4 3.6v26.7c0 1.9 1.9 3.6 4 3.6h37.1c2.1 0 4-1.7 4-3.6V20.1c-.1-1.9-2-3.6-4.1-3.6zM36 27.4h5.3v2.4H36v-2.4zm-2.7 17H14.8v-17h18.5v17zm9.3 0H36v-1.2h6.6v1.2zm5.3-3.7H36v-1.2h11.9v1.2zm2.6-3.6H36v-1.2h14.6v1.2zm0-3.7H36v-1.2h14.6v1.2zm0-3.6h-6.6v-2.4h6.6v2.4z"/></symbol><symbol viewBox="0 0 64 64" id="health-products"><path d="M46.4 9.5H17.3c-.6 0-1.3.8-1.3 1.3v7.9c0 .6.8 1.3 1.3 1.3h1.3v33.1c0 .6.7 1.3 1.3 1.3h23.8c.6 0 1.3-.5 1.3-1.1V20.1h1.3c.6 0 1.3-.8 1.3-1.3v-7.9c.2-.7-.5-1.4-1.2-1.4zM21.3 21.4h21.2v25.1H21.3V21.4z"/><path d="M23.9 24.1h15.9v5.3H23.9zM23.9 36h15.9v2.6H23.9zM23.9 32h15.9v1.3H23.9zM23.9 41.3h5.3v2.6h-5.3zM34.5 41.3h5.3v2.6h-5.3z"/></symbol><symbol id="help" viewBox="0 0 64 64"><style>.st0{fill:#d0b152}.st1{fill:#f9c14f}.st2{fill:#fdd895}.st3{fill:#010101}.st4{fill:none}.st5{stroke:#000;stroke-width:4.8066;stroke-miterlimit:10}</style><path d="M32.1 51C19.4 51 9 40.7 9 27.9S19.4 4.8 32.1 4.8s23.1 10.4 23.1 23.1S44.9 51 32.1 51zm.6-38.5c-4.9 0-8.6 2.1-11.2 6.4-.3.4-.1 1 .2 1.3l4 3c.1.1.4.2.6.2.3 0 .6-.1.8-.4 1.4-1.8 2-2.4 2.6-2.8.5-.4 1.5-.7 2.6-.7 1.9 0 3.7 1.2 3.7 2.6 0 1.6-.8 2.4-2.7 3.2-2.1 1-5.1 3.5-5.1 6.4v1.1c0 .5.4 1 1 1H35c.5 0 1-.4 1-1 0-.7.9-2.2 2.3-3 2.3-1.3 5.4-3 5.4-7.6 0-5.6-5.8-9.7-11-9.7zM36 36.6c0-.5-.4-1-1-1h-5.8c-.5 0-1 .4-1 1v5.8c0 .5.4 1 1 1H35c.5 0 1-.4 1-1v-5.8z"/></symbol><symbol viewBox="0 0 64 64" id="high-schools"><path d="M22.7 22.5c.2 0 7.3-8.6 9.3-10.6.6.7 7.8 10.6 7.9 10.6h2.6c-3.5-4.1-7.1-9.1-10.6-13.2-3.5 3.7-8.2 9.3-11.9 13.2h2.7z"/><path d="M46.6 29.1v-5.3c2.1-.8 4.5 2.8 6.6 1.3v-5.3c-2.1 1.4-4.5-.8-6.6 0v-1.3h-1.3v10.6H40v-5.3l-8-9.2-7.9 9.3v5.3H9.5V49H28v-9.3h8V49h18.5V29.1h-7.9zM16.1 43.7h-4v-4h4v4zm0-5.3h-4v-4h4v4zm4.6 5.3h-4v-4h4v4zm0-5.3h-4v-4h4v4zm4.7 5.3h-4v-4h4v4zm0-5.3h-4v-4h4v4zm6.6-9.9c-2.3 0-4.2-1.9-4.2-4.2s1.9-4.2 4.2-4.2c2.3 0 4.2 1.9 4.2 4.2s-1.9 4.2-4.2 4.2zm10.6 15.2h-4v-4h4v4zm0-5.3h-4v-4h4v4zm4.6 5.3h-4v-4h4v4zm0-5.3h-4v-4h4v4zm4.7 5.3h-4v-4h4v4zm0-5.3h-4v-4h4v4z"/><path d="M32 22v2.1h-1.7v.9h2.5v-3z"/></symbol><symbol id="high-volume" viewBox="-273 365 64 64"><style>.clst0{fill:#010101}</style><path class="clst0" d="M-234 382h8v8h-8zM-234 393h8v8h-8zM-234 404h8v8h-8zM-245 393h8v8h-8zM-245 404h8v8h-8zM-256 404h8v8h-8z"/></symbol><symbol viewBox="0 0 64 64" id="higher-education"><path d="M55 24.5c0 .3-.1.5-.4.6L32.7 32h-.4l-12.7-4c-.6.4-1 1.2-1.4 2.2-.4 1-.6 2.2-.7 3.5.8.5 1.2 1.2 1.2 2.1 0 .9-.4 1.6-1.1 2.1l1.1 8.5c0 .2 0 .3-.2.5-.1.1-.3.2-.5.2h-3.8c-.2 0-.4-.1-.5-.2-.1-.1-.2-.3-.2-.5l1.1-8.5c-.8-.5-1.1-1.2-1.1-2.1 0-1 .4-1.7 1.3-2.2.1-2.7.8-4.8 1.9-6.4l-6.5-2c-.1-.2-.2-.4-.2-.7 0-.3.1-.5.4-.6L32.3 17h.4l21.9 6.9c.3.1.4.3.4.6zm-10.4 6.3L45 37c.1.9-.5 1.7-1.6 2.5s-2.6 1.4-4.6 1.8c-1.9.4-4 .7-6.3.7s-4.4-.2-6.3-.7c-1.9-.4-3.5-1.1-4.6-1.8-1.1-.8-1.7-1.6-1.6-2.5l.4-6.2 11.2 3.5c.3.1.6.1.9.1.3 0 .7 0 .9-.1l11.2-3.5z"/></symbol><symbol viewBox="0 0 64 64" id="home"><path d="M32 8.1V8L9.5 30.4h6.6v20h11.7V37.1h8.3v13.3h11.7v-20h6.7z"/></symbol><symbol viewBox="0 0 64 64" id="hospitals"><path d="M43 32h2c.5 0 1-.5 1-1v-2c0-.5-.5-1-1-1h-2c-.5 0-1 .5-1 1v2c0 .6.5 1 1 1zM37 28h-2c-.5 0-1 .4-1 1v2c0 .5.5 1 1 1h2c.5 0 1-.5 1-1v-2c0-.6-.4-1-1-1zM29 28h-2c-.5 0-1 .4-1 1v2c0 .5.5 1 1 1h2c.5 0 1-.5 1-1v-2c0-.6-.4-1-1-1zM21 28h-2c-.5 0-1 .4-1 1v2c0 .5.5 1 1 1h2c.5 0 1-.5 1-1v-2c0-.6-.4-1-1-1zM43 41h2c.5 0 1-.5 1-1v-2c0-.5-.5-1-1-1h-2c-.5 0-1 .5-1 1v2c0 .6.5 1 1 1zM37 37h-2c-.5 0-1 .4-1 1v2c0 .5.5 1 1 1h2c.5 0 1-.5 1-1v-2c0-.6-.4-1-1-1zM29 37h-2c-.5 0-1 .4-1 1v2c0 .5.5 1 1 1h2c.5 0 1-.5 1-1v-2c0-.6-.4-1-1-1z"/><path d="M51.9 16H42V6c0-1.1-.9-2-2-2H24c-1.1 0-2 .9-2 2v10h-9.9c-1.2 0-2.1.9-2.1 2.1v39.8c0 1.2.9 2.1 2.1 2.1h39.5c1.2 0 2.4-.9 2.4-2.1V18.1c0-1.2-.9-2.1-2.1-2.1zM26 9c0-.3.1-.5.3-.7s.4-.3.7-.3h2c.3 0 .5.1.7.3.2.2.3.4.3.7v3h4V9c0-.3.1-.5.3-.7.2-.2.4-.3.7-.3h2c.3 0 .5.1.7.3.2.2.3.4.3.7v10c0 .3-.1.5-.3.7-.2.2-.4.3-.7.3h-2c-.3 0-.5-.1-.7-.3-.2-.2-.3-.4-.3-.7v-3h-4v3c0 .3-.1.5-.3.7-.2.2-.4.3-.7.3h-2c-.3 0-.5-.1-.7-.3s-.3-.4-.3-.7V9zm24 47H38v-7c0-.5-.5-1-1-1H27c-.5 0-1 .5-1 1v7H14V20h8v2c0 1.1.9 2 2 2h16c1.1 0 2-.9 2-2v-2h8v36z"/><path d="M21 37h-2c-.5 0-1 .4-1 1v2c0 .5.5 1 1 1h2c.5 0 1-.5 1-1v-2c0-.6-.4-1-1-1zM45 45h-2c-.5 0-1 .4-1 1v2c0 .5.5 1 1 1h2c.5 0 1-.5 1-1v-2c0-.6-.4-1-1-1zM21 45h-2c-.5 0-1 .4-1 1v2c0 .5.5 1 1 1h2c.5 0 1-.5 1-1v-2c0-.6-.4-1-1-1z"/></symbol><symbol id="hotel" viewBox="0 0 64 64"><style>.st0{fill:#d0b152}.st1{fill:#f9c14f}.st2{fill:#fdd895}.cpst3{fill:#010101}.st4{fill:none}.st5{stroke:#000;stroke-width:4.8066;stroke-miterlimit:10}</style><path class="cpst3" d="M9 57v-2h2v-2h2V15h38v38h2v2h2v2H36v-6h-8v6H9zm4-44l4-4h9l2-2h8l2 2h9l4 4H13zm5 11h8v-4h-8v4zm0 8h8v-4h-8v4zm0 8h8v-4h-8v4zm0 8h8v-4h-8v4zm10-24h8v-4h-8v4zm0 8h8v-4h-8v4zm0 8h8v-4h-8v4zm0 8h8v-4h-8v4zm10-24h8v-4h-8v4zm0 8h8v-4h-8v4zm0 8h8v-4h-8v4zm0 8h8v-4h-8v4z"/></symbol><symbol id="info" viewBox="0 0 64 64"><style>.st0{fill:#d0b152}.st1{fill:#f9c14f}.st2{fill:#fdd895}.st3{fill:#010101}.st4{fill:none}.st5{stroke:#000;stroke-width:4.8066;stroke-miterlimit:10}</style><path d="M32.8 51C20 51 9.7 40.7 9.7 27.9S20 4.8 32.8 4.8s23.1 10.4 23.1 23.1S45.6 51 32.8 51zm7.7-13.5c0-.5-.4-1-1-1h-2.9V21.2c0-.5-.4-1-1-1H26c-.5 0-1 .4-1 1V26c0 .5.4 1 1 1h2.9v9.6H26c-.5 0-1 .4-1 1v4.8c0 .5.4 1 1 1h13.5c.5 0 1-.4 1-1v-4.9zm-3.8-27c0-.5-.4-1-1-1h-5.8c-.5 0-1 .4-1 1v4.8c0 .5.4 1 1 1h5.8c.5 0 1-.4 1-1v-4.8z"/></symbol><symbol viewBox="0 0 64 64" id="instagram"><title>flat-icons-2</title><path class="crcls-1" d="M51.71 32.05q0 5.88-.13 8.14-.26 5.34-3.18 8.27t-8.27 3.18q-2.26.13-8.14.13t-8.14-.13q-5.34-.26-8.27-3.18t-3.18-8.27q-.13-2.26-.13-8.14t.13-8.14q.26-5.34 3.18-8.27t8.27-3.18q2.26-.13 8.14-.13t8.14.13q5.34.26 8.27 3.18t3.18 8.27q.13 2.26.13 8.14zM34 15.87h-6.67q-.92 0-2.48.08a20.46 20.46 0 0 0-2.64.26 10.3 10.3 0 0 0-1.83.48 6.72 6.72 0 0 0-3.75 3.75 10.25 10.25 0 0 0-.47 1.84 20.46 20.46 0 0 0-.26 2.64q-.06 1.55-.08 2.48t0 2.71v6.71q0 .93.08 2.48a20.43 20.43 0 0 0 .26 2.64 10.24 10.24 0 0 0 .47 1.84 6.72 6.72 0 0 0 3.75 3.75 10.3 10.3 0 0 0 1.83.48 20.29 20.29 0 0 0 2.64.26q1.55.06 2.48.08h9.34q.92 0 2.48-.08a20.29 20.29 0 0 0 2.64-.26 10.34 10.34 0 0 0 1.84-.48 6.72 6.72 0 0 0 3.75-3.75 10.4 10.4 0 0 0 .47-1.84 20.43 20.43 0 0 0 .26-2.64q.06-1.55.08-2.48t0-2.71v-2-2-2.71q0-.93-.08-2.5a20.46 20.46 0 0 0-.26-2.64 10.42 10.42 0 0 0-.47-1.84 6.72 6.72 0 0 0-3.75-3.75 10.34 10.34 0 0 0-1.84-.48 20.46 20.46 0 0 0-2.64-.26q-1.55-.06-2.48-.08H34zm5.2 9a9.75 9.75 0 0 1 3 7.16A10.08 10.08 0 0 1 32 42.17a10.08 10.08 0 0 1-10.11-10.12A10.08 10.08 0 0 1 32 21.94a9.75 9.75 0 0 1 7.16 2.95zM36.65 36.7a6.57 6.57 0 0 0 0-9.29 6.57 6.57 0 0 0-9.29 0 6.57 6.57 0 0 0 0 9.29 6.57 6.57 0 0 0 9.29 0zm7.55-16.84a2.35 2.35 0 1 1-1.67-.69 2.27 2.27 0 0 1 1.66.69z"/></symbol><symbol viewBox="0 0 64 64" id="investing"><path d="M9.5 41.3h13.2v13.2H9.5zM25.4 33.3h13.2v21.2H25.4zM41.3 28h13.2v26.5H41.3z"/><path d="M25.4 22.9l7.9 7.9L48 16.2l3.9 3.9V9.5H41.3l3.9 3.9-11.9 11.8-7.9-7.9L9.5 33.2v5.4l.1.1z"/></symbol><symbol viewBox="0 0 64 64" id="italic"><path d="M19.5 47.8c1.6-.5 3.4-.7 4.9-1.5.6-.7.9-1.7 1-2.5.3-1.7 5.8-26.5 5.8-28.5v-.6c-1.4-.8-3.1-.6-4.6-.8l.5-2.6c3.3.2 6.6.4 9.8.4 2.7 0 5.4-.3 8-.4-.1.8-.3 1.5-.5 2.2-1.7.6-3.6.9-5.3 1.6-.6 1.4-.7 2.9-.9 4.3-1.2 6.5-2.8 13-4.2 19.5-.3 1.2-1.5 6.2-1.4 7.3v.5c1.5.4 3.1.5 4.7.8-.1.8-.2 1.7-.4 2.5-.6 0-1.1.1-1.6.1-1.4 0-2.9-.5-4.4-.5-1.7 0-3.5-.1-5.2-.1-2.2 0-4.4.4-6.7.5l.5-2.2z"/></symbol><symbol id="laptop" viewBox="0 0 64 64"><style>.st0{fill:#d0b152}.st1{fill:#f9c14f}.st2{fill:#fdd895}.st3{fill:#010101}.st4{fill:none}.st5{stroke:#000;stroke-width:4.8066;stroke-miterlimit:10}</style><path d="M59.7 40.8v2.7c0 1.5-2.1 2.7-4.6 2.7H9.4c-2.5 0-4.6-1.2-4.6-2.7v-2.7H59.7zm-47.5-6.4V14.2c0-2.5 2.1-4.6 4.6-4.6h31.1c2.5 0 4.6 2.1 4.6 4.6v20.1c0 2.5-2.1 4.6-4.6 4.6H16.7c-2.5 0-4.5-2-4.5-4.5zm3.6 0c0 .5.4.9.9.9h31.1c.5 0 .9-.4.9-.9V14.2c0-.5-.4-.9-.9-.9H16.7c-.5 0-.9.4-.9.9v20.2zM35 43c0-.3-.2-.5-.5-.5H30c-.3 0-.5.2-.5.5s.2.5.5.5h4.6c.2 0 .4-.2.4-.5z"/></symbol><symbol viewBox="0 0 64 64" id="law"><path d="M32 7L8 20.9h48zM15 23.9h5v20h-5zM25 23.9h5v20h-5zM35 23.9h5v20h-5zM45 23.9h5v20h-5zM11 46.9h42v5.2H11z"/></symbol><symbol id="line-chart" viewBox="0 0 64 64"><style>.st0{fill:#d0b152}.st1{fill:#f9c14f}.st2{fill:#fdd895}.st3{fill:#010101}.st4{fill:none}.st5{stroke:#000;stroke-width:4.8066;stroke-miterlimit:10}</style><path d="M56.7 45.7h-50V8.2h3.1v34.4h46.9v3.1zm-3.1-23c0 .7-.8 1-1.3.5l-3-3-15.4 15.5c-.3.3-.8.3-1.1 0L27.1 30 16.9 40.2l-4.7-4.7 14.3-14.3c.3-.3.8-.3 1.1 0l5.7 5.7 11.3-11.3-3-3c-.5-.5-.1-1.3.5-1.3h10.6c.4 0 .8.3.8.8v10.6z"/></symbol><symbol viewBox="0 0 482.136 482.135" id="link"><path d="M455.482 198.184L326.83 326.832c-35.536 35.54-93.11 35.54-128.647 0l-42.88-42.886 42.88-42.876 42.884 42.876c11.845 11.822 31.064 11.846 42.886 0l128.644-128.643c11.816-11.83 11.816-31.066 0-42.9l-42.88-42.88c-11.823-11.815-31.065-11.815-42.888 0l-45.93 45.935c-21.29-12.53-45.49-17.905-69.448-16.29l72.5-72.527c35.536-35.52 93.137-35.52 128.645 0l42.886 42.882c35.535 35.523 35.535 93.14 0 128.662zM201.206 366.698l-45.903 45.9c-11.845 11.846-31.064 11.817-42.88 0l-42.885-42.88c-11.845-11.822-11.845-31.042 0-42.887l128.646-128.647c11.82-11.814 31.07-11.814 42.884 0l42.886 42.886 42.876-42.887-42.876-42.88c-35.54-35.522-93.113-35.522-128.65 0L26.654 283.945c-35.537 35.545-35.537 93.146 0 128.652L69.54 455.48c35.51 35.54 93.11 35.54 128.646 0l72.496-72.5c-23.956 1.598-48.092-3.783-69.474-16.282z"/></symbol><symbol viewBox="0 0 64 64" id="linkedin"><path d="M11.7 18.3h8.8v28.4h-8.8V18.3zm4.4-14.1c2.8 0 5.1 2.3 5.1 5.1s-2.3 5.1-5.1 5.1S11 12.1 11 9.3s2.3-5.1 5.1-5.1m9.3 14.1h8.5v3.9h.1c1.2-2.2 4.1-4.6 8.4-4.6 9 0 10.6 5.9 10.6 13.6v15.6h-8.8V32.9c0-3.3-.1-7.5-4.6-7.5-4.6 0-5.3 3.6-5.3 7.3v14.1h-8.8V18.3z"/></symbol><symbol id="list-thick" viewBox="0 0 64 64"><style>.st0{fill:#d0b152}.st1{fill:#f9c14f}.st2{fill:#fdd895}.st3{fill:#010101}.st4{fill:none}.st5{stroke:#000;stroke-width:4.8066;stroke-miterlimit:10}</style><path d="M20.7 14.6c0 1.5-1.2 2.8-2.8 2.8H8.8c-1.5 0-2.8-1.2-2.8-2.8V9.1c0-1.5 1.2-2.8 2.8-2.8H18c1.5 0 2.8 1.2 2.8 2.8v5.5zm0 14.7c0 1.5-1.2 2.8-2.8 2.8H8.8c-1.5 0-2.8-1.2-2.8-2.8v-5.5C6 22.3 7.2 21 8.8 21H18c1.5 0 2.8 1.2 2.8 2.8v5.5zm0 14.7c0 1.5-1.2 2.8-2.8 2.8H8.8C7.2 46.8 6 45.5 6 44v-5.5c0-1.5 1.2-2.8 2.8-2.8H18c1.5 0 2.8 1.2 2.8 2.8V44zm36.8-29.4c0 1.5-1.2 2.8-2.8 2.8H27.1c-1.5 0-2.8-1.2-2.8-2.8V9.1c0-1.5 1.2-2.8 2.8-2.8h27.6c1.5 0 2.8 1.2 2.8 2.8v5.5zm0 14.7c0 1.5-1.2 2.8-2.8 2.8H27.1c-1.5 0-2.8-1.2-2.8-2.8v-5.5c0-1.5 1.2-2.8 2.8-2.8h27.6c1.5 0 2.8 1.2 2.8 2.8v5.5zm0 14.7c0 1.5-1.2 2.8-2.8 2.8H27.1c-1.5 0-2.8-1.2-2.8-2.8v-5.5c0-1.5 1.2-2.8 2.8-2.8h27.6c1.5 0 2.8 1.2 2.8 2.8V44z"/></symbol><symbol viewBox="0 0 64 64" id="lock"><path d="M49.4 29v18c0 .8-.3 1.5-.9 2.1-.5.6-1.2.9-2.1.9h-30c-.8 0-1.5-.3-2.1-.9-.6-.6-.9-1.3-.9-2.1V29c0-.8.3-1.5.9-2.1.6-.6 1.3-.9 2.1-.9h1v-6c0-3.8 1.4-7.1 4.1-9.9 2.8-2.7 6-4.1 9.9-4.1s7.1 1.4 9.9 4.1c2.7 2.8 4.1 6 4.1 9.9v6h1c.8 0 1.5.3 2.1.9.7.6.9 1.3.9 2.1zm-26-3h16v-6c0-2.2-.8-4.1-2.3-5.7-1.6-1.6-3.4-2.3-5.7-2.3-2.2 0-4.1.8-5.7 2.3-1.6 1.6-2.3 3.4-2.3 5.7v6z"/></symbol><symbol id="log-out" viewBox="0 0 64 64"><style>.st0{fill:#d0b152}.st1{fill:#f9c14f}.st2{fill:#fdd895}.st3{fill:#010101}.st4{fill:none}.st5{stroke:#000;stroke-width:4.8066;stroke-miterlimit:10}</style><path d="M28.2 47.8h-9.9c-4.9 0-8.9-4-8.9-8.9V17c0-4.9 4-8.9 8.9-8.9h9.9c.5 0 1 .5 1 1 0 .9.4 3-1 3h-9.9c-2.7 0-5 2.2-5 5v21.8c0 2.7 2.2 5 5 5h8.9c.8 0 2-.2 2 1 0 .8.4 2.9-1 2.9zm29.2-18.5L40.5 46.2c-.4.4-.9.6-1.4.6-1.1 0-2-.9-2-2v-8.9H23.3c-1.1 0-2-.9-2-2V22c0-1.1.9-2 2-2h13.9v-8.9c0-1.1.9-2 2-2 .5 0 1 .2 1.4.6l16.8 16.8c.4.4.6.9.6 1.4s-.3 1.1-.6 1.4z"/></symbol><symbol viewBox="0 0 64 64" id="login"><path d="M30.9 8C17.4 8 6.4 19 6.4 32.5S17.4 57 30.9 57s24.5-11 24.5-24.5S44.5 8 30.9 8zm13.5 38.6c0-.3.1-.6.1-.9 0-4.4-1-11.1-6.7-11.1-.6 0-3.1 2.7-6.9 2.7-3.8 0-6.3-2.7-6.9-2.7-5.7 0-6.7 6.7-6.7 11.1 0 .2 0 .4.1.6-3.6-3.5-5.8-8.4-5.8-13.8 0-10.8 8.7-19.5 19.5-19.5s19.5 8.7 19.5 19.5c-.2 5.5-2.5 10.6-6.2 14.1z"/><circle cx="30.8" cy="28.4" r="7.4"/></symbol><symbol viewBox="0 0 64 64" id="mail"><path d="M32.6 33.3c-.4.2-.9.2-1.2 0L6 21v-3.8c0-.8.6-1.4 1.4-1.4h49.2c.8 0 1.4.6 1.4 1.4V21L32.6 33.3zM6 24.4v23.2c0 .8.6 1.4 1.4 1.4h49.2c.8 0 1.4-.6 1.4-1.4V24.4L32.6 36.8c-.4.2-.9.2-1.2 0L6 24.4z"/></symbol><symbol viewBox="0 0 64 64" id="map"><title>flat-icons-2</title><path d="M23.43 11.91a.72.72 0 0 1 .71.71v32.87a.63.63 0 0 1-.38.63L13 51.83a.66.66 0 0 1-.33.09.72.72 0 0 1-.67-.72V18.34a.63.63 0 0 1 .38-.62L23.09 12a.66.66 0 0 1 .34-.09zm2.86 0a.7.7 0 0 1 .31.07L38 17.7a.7.7 0 0 1 .4.65V51.2a.72.72 0 0 1-1 .65L26 46.13a.7.7 0 0 1-.4-.65V12.63a.72.72 0 0 1 .69-.72zm25 0a.72.72 0 0 1 .71.71v32.87a.63.63 0 0 1-.38.63l-10.71 5.71a.66.66 0 0 1-.33.09.72.72 0 0 1-.71-.71V18.34a.63.63 0 0 1 .38-.62L51 12a.66.66 0 0 1 .29-.09z"/></symbol><symbol viewBox="0 0 64 64" id="map-marker"><path d="M32 3c-9.9 0-18 8.4-18 18.7C14 34.2 32 57 32 57s18-22.8 18-35.3C50 11.4 41.9 3 32 3zm0 27c-4.3 0-7.9-3.5-7.9-7.9s3.5-7.9 7.9-7.9 7.9 3.5 7.9 7.9S36.3 30 32 30z"/></symbol><symbol id="martini" viewBox="0 0 64 64"><style>.st0{fill:#d0b152}.st1{fill:#f9c14f}.st2{fill:#fdd895}.dgst3{fill:#010101}.st4{fill:none}.st5{stroke:#000;stroke-width:4.8066;stroke-miterlimit:10}</style><path class="dgst3" d="M12 10.8h40l-18 22v15l12 4v1H18v-1l12-4v-15l-18-22zm6 3l12 16-7-16h-5z"/></symbol><symbol viewBox="0 0 64 64" id="med-kit"><path d="M15.9 48.6h-.8c-3.1 0-5.6-2.5-5.6-5.6V22.1c0-3.1 2.5-5.6 5.6-5.6h.8v32.1zm29.8 0H18.3V16.4h4v-4c0-1.3 1.1-2.4 2.4-2.4h14.5c1.3 0 2.4 1.1 2.4 2.4v4h4v32.2zm-4.1-18.5c0-.5-.4-.8-.8-.8h-5.6v-5.6c0-.5-.4-.8-.8-.8h-4.8c-.5 0-.8.4-.8.8v5.6h-5.6c-.5 0-.8.4-.8.8v4.8c0 .5.4.8.8.8h5.6v5.6c0 .5.4.8.8.8h4.8c.5 0 .8-.4.8-.8v-5.6h5.6c.5 0 .8-.4.8-.8v-4.8zm-3.2-13.7v-3.2H25.6v3.2h12.8zm16.1 26.5c0 3.1-2.5 5.6-5.6 5.6h-.8V16.4h.8c3.1 0 5.6 2.5 5.6 5.6v20.9z"/></symbol><symbol id="methodology" viewBox="0 0 64 64"><style>.st0{fill:#d0b152}.st1{fill:#f9c14f}.st2{fill:#fdd895}.st3{fill:#010101}.st4{fill:none}</style><path d="M16.3 19.8h4v4h-4zM16.3 28.2h4v4h-4zM16.3 36.7h4v4h-4zM16.3 45.1h4v4h-4zM24.9 19.8h20.7v4H24.9zM24.9 28.2h20.7v4H24.9zM24.9 36.7h20.7v4H24.9zM24.9 45.1h20.7v4H24.9z"/><path d="M50.6 6.7H10.7c-1.7 0-3 1.4-3 3v45c0 1.7 1.4 3 3 3h39.9c1.7 0 3-1.4 3-3v-45c.1-1.7-1.3-3-3-3zm-.5 11.6v35.4H11.7V15.3h38.4v3z"/></symbol><symbol viewBox="0 0 64 64" id="mini-badge"><path d="M55.7 10.4h-48V40l24 11.2 24-11.2z"/></symbol><symbol id="minus" viewBox="0 0 64 64"><style>.st0{fill:#d0b152}.st1{fill:#f9c14f}.st2{fill:#fdd895}.st3{fill:#010101}.st4{fill:none}.st5{stroke:#000;stroke-width:4.8066;stroke-miterlimit:10}</style><path d="M8.5 26h47v12h-47z"/></symbol><symbol viewBox="0 0 64 64" id="minus-unexpand"><path d="M-1071 97.5h47v12h-47zM-17.4 21.2c-1.9-3.3-4.5-5.9-7.8-7.8s-6.9-2.9-10.8-2.9c-3.9 0-7.5 1-10.8 2.9-3.3 1.9-5.9 4.5-7.8 7.8-1.9 3.3-2.9 6.9-2.9 10.8 0 3.9 1 7.5 2.9 10.8 1.9 3.3 4.5 5.9 7.8 7.8 3.3 1.9 6.9 2.9 10.8 2.9 3.9 0 7.5-1 10.8-2.9 3.3-1.9 5.9-4.5 7.8-7.8 1.9-3.3 2.9-6.9 2.9-10.8-.1-3.9-1-7.5-2.9-10.8zm-6.1 12.6c0 .5-.2.9-.5 1.3-.4.4-.8.5-1.3.5h-7.1v7.1c0 .5-.2.9-.5 1.3-.4.4-.8.5-1.3.5h-3.6c-.5 0-.9-.2-1.3-.5-.4-.4-.5-.8-.5-1.3v-7.1h-7.1c-.5 0-.9-.2-1.3-.5-.4-.4-.5-.8-.5-1.3v-3.6c0-.5.2-.9.5-1.3.4-.4.8-.5 1.3-.5h7.1v-7.1c0-.5.2-.9.5-1.3.4-.4.8-.5 1.3-.5h3.6c.5 0 .9.2 1.3.5.4.4.5.8.5 1.3v7.1h7.1c.5 0 .9.2 1.3.5.4.4.5.8.5 1.3v3.6zM50.6 21.2c-1.9-3.3-4.5-5.9-7.8-7.8s-6.9-2.9-10.8-2.9-7.5 1-10.8 2.9-5.9 4.5-7.8 7.8c-1.9 3.3-2.9 6.9-2.9 10.8 0 3.9 1 7.5 2.9 10.8 1.9 3.3 4.5 5.9 7.8 7.8 3.3 1.9 6.9 2.9 10.8 2.9s7.5-1 10.8-2.9c3.3-1.9 5.9-4.5 7.8-7.8 1.9-3.3 2.9-6.9 2.9-10.8-.1-3.9-1-7.5-2.9-10.8zm-6.1 12.6c0 .5-.2.9-.5 1.3-.4.4-.8.5-1.3.5H21.3c-.5 0-.9-.2-1.3-.5-.4-.4-.5-.8-.5-1.3v-3.6c0-.5.2-.9.5-1.3.4-.4.8-.5 1.3-.5h21.4c.5 0 .9.2 1.3.5.4.4.5.8.5 1.3v3.6z"/><path d="M589.6 404.9c1.4 0 2.5.5 3.5 1.4 1 1 1.4 2.1 1.4 3.5V427c0 1.4-.5 2.5-1.4 3.5-1 1-2.1 1.4-3.5 1.4h-27.1c-1.4 0-2.5-.5-3.5-1.4-1-1-1.4-2.1-1.4-3.5v-17.2c0-1.4.5-2.5 1.4-3.5s2.1-1.4 3.5-1.4l4.6.1 1-2.6c.2-.6.7-1.2 1.3-1.6.6-.5 1.3-.7 2-.7l9.6-.1c.7 0 1.3.2 2 .7.6.5 1.1 1 1.3 1.6l1 2.6h4.3zm-19.2 19.6c1.7 1.7 3.7 2.5 6.1 2.5s4.4-.8 6.1-2.5 2.5-3.7 2.5-6.1c0-2.4-.8-4.4-2.5-6.1s-3.7-2.5-6.1-2.5-4.4.8-6.1 2.5c-1.7 1.7-2.5 3.7-2.5 6.1 0 2.4.8 4.5 2.5 6.1z" opacity=".2"/></symbol><symbol viewBox="0 0 64 64" id="money"><path d="M52.2 17.7h-47c-.6 0-1.1.5-1.1 1.1v31.4c0 .6.5 1.1 1.1 1.1h47c.6 0 1.1-.5 1.1-1.1V18.8c0-.6-.5-1.1-1.1-1.1zm-3.4 24.7c-2.5 0-4.5 2-4.5 4.5H13c0-2.5-2-4.5-4.5-4.5V26.7c2.5 0 4.5-2 4.5-4.5h31.4c0 2.5 2 4.5 4.5 4.5v15.7z"/><circle cx="28.6" cy="34.5" r="8.4"/><path d="M58.9 11h-47c-.6 0-1.1.5-1.1 1.1v3.4h43.7c.6 0 1.1.5 1.1 1.1v28H59c.6 0 1.1-.5 1.1-1.1V12.1c-.1-.6-.6-1.1-1.2-1.1z"/></symbol><symbol viewBox="0 0 64 64" id="nest-egg"><path d="M12.3 44.5c.8 1 1.7 1.9 2.8 2.8h3.3c-2.2-.8-4.3-1.8-6.1-2.8zM21.4 48.3c-1.5.1-3.1.1-4.7.2 3.9 2.6 9.2 4.3 15.4 4.3 4.5 0 8.4-.9 11.7-2.3-8.4.5-15.9-.4-22.4-2.2zM47.6 48.5c3.2-2.2 5.5-4.9 6.4-7.7-9.2 4.4-15.8 6.2-25.9 7.1 5.2.9 11.6 1.3 19.5.6zM45.9 28.3c-1.1-8.5-8.1-17.1-13.6-17.1s-12.6 8.6-13.7 17.1c-5.7 1.4-9.1 3.9-9.1 8.1 0 1 .2 2 .5 2.9 2.8 1.7 7.3 4.5 14.4 6.4 8.8-.6 20.5-2.5 30-8.2 0-.4.1-.7.1-1.1 0-4.3-3.2-6.8-8.6-8.1zm-31.6 6.9c0-1.6 1.6-3 4.2-4 .1 3.2.8 6.2 2.1 8.6-3.8-1-6.3-2.5-6.3-4.6zm29.5 4.6c.1-.2.3-.3.4-.5 1-2.3 1.7-5 1.8-7.9 2.3 1 3.8 2.3 3.8 3.8 0 2-2.5 3.6-6 4.6z"/></symbol><symbol viewBox="0 0 64 64" id="newspaper"><path fill="none" d="M12.1 24.2v15.9c0 4.1 4 5.1 4 0V24.2h-4z"/><path d="M16.1 14.9v5.3H9.5v22.5c0 6.6 7.2 6.6 7.9 6.6h31.8c3.9 0 5.3-1.7 5.3-4V14.9H16.1zm0 25.1c0 5.1-4 4.1-4 0V24.1h4V40zm6.6-19.8h25.1v4H22.7v-4zm10.6 22.5H21.4v-1.3h11.9v1.3zm0-4H21.4v-1.3h11.9v1.3zm0-4H21.4v-1.3h11.9v1.3zm0-3.9H21.4v-1.3h11.9v1.3zm15.9 11.9H36V29.5h13.2v13.2z"/></symbol><symbol viewBox="0 0 64 64" id="number-list"><path d="M18.4 36.9H9.2c-.1-.5-.2-.9-.2-1.4 0-4.7 5.7-5.4 5.7-7.5 0-.9-.5-1.3-1.4-1.3-.9 0-1.6.8-2 1.5l-2.1-1.5C10 25 11.7 24 13.7 24c2.3 0 4.4 1.4 4.4 3.9 0 3.7-5.5 4.6-5.6 6.5h3.2v-1.5h2.6v4zm-4.9 16.2c-1.6 0-3.2-.5-4.3-1.7l1.4-2.2c.7.6 1.7 1.1 2.7 1.1.9 0 1.8-.4 1.8-1.4 0-1.4-1.6-1.5-2.6-1.4l-.7-1.4c.9-1.2 1.7-2.4 2.8-3.4h-2.4V44H9.5v-3.8h8.4v2.2l-2.4 2.9c1.7.4 2.8 1.7 2.8 3.5 0 2.7-2.2 4.3-4.8 4.3zm4.9-32.3H9.9v-2.5h2.7V11.9h-.1c-.3.6-.8.9-1.3 1.4l-1.8-1.9L13 8.1h2.7v10.2h2.7v2.5zm35.5-.8c0 .4-.4.8-.8.8H22.4c-.5 0-.8-.4-.8-.8v-4.8c0-.4.4-.8.8-.8h30.7c.4 0 .8.4.8.8V20zm0 12.9c0 .4-.4.8-.8.8H22.4c-.5 0-.8-.4-.8-.8V28c0-.5.4-.8.8-.8h30.7c.4 0 .8.4.8.8v4.9zm0 12.9c0 .4-.4.8-.8.8H22.4c-.5 0-.8-.4-.8-.8V41c0-.5.4-.8.8-.8h30.7c.4 0 .8.4.8.8v4.8z"/></symbol><symbol viewBox="0 0 64 64" id="paint-brush"><path d="M35.2 39.1v1.8c.2 7.2-4.8 12.1-12 12.1C14.7 53 11 46.2 11 38.5c.9.6 4.2 3.2 5.2 3.2.6 0 1.2-.4 1.4-.9 2.1-5.6 5.5-6.6 11.1-6.8 1.4 2.5 3.8 4.4 6.5 5.1zm20.8-27c0 1.3-.5 2.6-1.1 3.8-2 3.7-8.5 16-11.7 18.9-1.5 1.4-3.3 2.3-5.5 2.3-4.2 0-7.7-3.6-7.7-7.8 0-2 .8-4 2.3-5.3l16-14.5c.9-.8 2-1.4 3.3-1.4 2.3-.1 4.4 1.6 4.4 4z"/></symbol><symbol viewBox="0 0 64 64" id="pen"><path d="M34.5 20.2l11.3 11.3L23.3 54H12V42.7l22.5-22.5zM21.8 50.5l2.5-2.5-6.4-6.4-2.5 2.5V47h3.5v3.5h2.9zM36 25.4c0-.4-.2-.6-.6-.6-.2 0-.3.1-.5.2L20.3 39.7c-.1.1-.2.3-.2.5 0 .4.2.6.6.6.2 0 .3-.1.5-.2l14.7-14.7c0-.1.1-.3.1-.5zm17-2.6c0 1-.3 1.8-1 2.4l-4.5 4.5-11.3-11.2 4.5-4.5c.6-.7 1.5-1 2.4-1 1 0 1.8.3 2.5 1l6.4 6.3c.7.8 1 1.6 1 2.5z"/></symbol><symbol viewBox="0 0 64 64" id="people"><title>flat-icons-2</title><path class="dscls-1" d="M23.81 31.41a7.7 7.7 0 0 0-5.92 2.86h-3a5.11 5.11 0 0 1-3.08-.9 3.06 3.06 0 0 1-1.25-2.64q0-7.88 2.77-7.88a4.26 4.26 0 0 1 1 .47 14.65 14.65 0 0 0 2.18.95 7.82 7.82 0 0 0 2.66.48 9 9 0 0 0 3-.51A11.16 11.16 0 0 0 22 25.7a9.83 9.83 0 0 0 1.81 5.71zm-.63-18.32a5.71 5.71 0 0 1 0 8.08 5.71 5.71 0 0 1-8.08 0 5.5 5.5 0 0 1-1.67-4 5.71 5.71 0 0 1 5.71-5.71 5.51 5.51 0 0 1 4.04 1.63zm24.53 32.54a5.56 5.56 0 0 1-1.63 4.23 6 6 0 0 1-4.33 1.55h-19.5a6 6 0 0 1-4.33-1.55 5.56 5.56 0 0 1-1.63-4.23q0-1.18.08-2.31a22.91 22.91 0 0 1 .31-2.43 18.85 18.85 0 0 1 .59-2.42 11.53 11.53 0 0 1 1-2.18 7.84 7.84 0 0 1 1.38-1.81 5.84 5.84 0 0 1 1.91-1.2 6.72 6.72 0 0 1 2.44-.44 2.64 2.64 0 0 1 1 .48l1.63 1.07A10 10 0 0 0 35 35.47a9.76 9.76 0 0 0 2.39-1.07L39 33.32a2.63 2.63 0 0 1 1-.48 6.72 6.72 0 0 1 2.49.45 5.84 5.84 0 0 1 1.91 1.2 7.87 7.87 0 0 1 1.38 1.81 11.53 11.53 0 0 1 1 2.18 19 19 0 0 1 .59 2.42 22.66 22.66 0 0 1 .31 2.43q.03 1.12.03 2.3zm-9.65-26a8.26 8.26 0 0 1 2.51 6.06A8.57 8.57 0 0 1 32 34.27a8.57 8.57 0 0 1-8.57-8.57A8.57 8.57 0 0 1 32 17.13a8.26 8.26 0 0 1 6.06 2.51zm10.84-6.54a5.51 5.51 0 0 1 1.67 4 5.71 5.71 0 1 1-9.75-4 5.71 5.71 0 0 1 8.08 0zm4.53 17.63a3.06 3.06 0 0 1-1.25 2.64 5.11 5.11 0 0 1-3.08.9h-3a7.7 7.7 0 0 0-5.92-2.86A9.82 9.82 0 0 0 42 25.7a11.16 11.16 0 0 0-.11-1.47 9 9 0 0 0 3 .51 7.83 7.83 0 0 0 2.66-.48 14.65 14.65 0 0 0 2.18-.95 4.28 4.28 0 0 1 1-.47q2.7 0 2.7 7.88z"/></symbol><symbol viewBox="0 0 64 64" id="people-female"><path d="M52 36.5c0 .8-.3 1.5-.9 2.1s-1.3.9-2.1.9c-1.1 0-1.9-.4-2.5-1.3l-7.1-10.7H38v4.1l7.7 12.8c.2.3.3.7.3 1 0 .5-.2 1-.6 1.4s-.9.6-1.4.6h-6V56c0 1-.3 1.8-1 2.5s-1.5 1-2.5 1h-5c-1 0-1.8-.3-2.5-1S26 57 26 56v-8.5h-6c-.5 0-1-.2-1.4-.6s-.6-.9-.6-1.4c0-.4.1-.7.3-1L26 31.6v-4.1h-1.4l-7.1 10.7c-.6.9-1.4 1.3-2.5 1.3-.8 0-1.5-.3-2.1-.9s-.9-1.3-.9-2.1c0-.6.2-1.2.5-1.7l8-12c1.5-2.2 3.4-3.3 5.5-3.3h12c2.1 0 4 1.1 5.5 3.3l8 12c.3.5.5 1.1.5 1.7zm-15-30c1.4 1.4 2 3 2 5s-.7 3.6-2 5-3 2-5 2-3.6-.7-5-2-2-3-2-5 .7-3.6 2-5 3-2 5-2 3.6.7 5 2z"/></symbol><symbol viewBox="0 0 64 64" id="people-male"><path d="M48 25.5v13c0 .8-.3 1.5-.9 2.1s-1.3.9-2.1.9-1.5-.3-2.1-.9-.9-1.3-.9-2.1v-11h-2V56c0 1-.3 1.8-1 2.5s-1.5 1-2.5 1-1.8-.3-2.5-1-1-1.5-1-2.5V41.5h-2V56c0 1-.3 1.8-1 2.5s-1.5 1-2.5 1-1.8-.3-2.5-1-1-1.5-1-2.5V27.5h-2v11c0 .8-.3 1.5-.9 2.1s-1.3.9-2.1.9-1.5-.3-2.1-.9-.9-1.3-.9-2.1v-13c0-1.7.6-3.1 1.8-4.2s2.6-1.8 4.2-1.8h20c1.7 0 3.1.6 4.2 1.8s1.8 2.5 1.8 4.2zm-11-19c1.4 1.4 2 3 2 5s-.7 3.6-2 5-3 2-5 2-3.6-.7-5-2-2-3-2-5 .7-3.6 2-5 3-2 5-2 3.6.7 5 2z"/></symbol><symbol viewBox="0 0 64 64" id="person"><title>Artboard 1 copy 28</title><path class="dvcls-1" d="M49.14 45.47a7.76 7.76 0 0 1-1.67 5 5 5 0 0 1-4 2.09H20.56a5 5 0 0 1-4-2.09 7.76 7.76 0 0 1-1.67-5 38.59 38.59 0 0 1 .23-4.3 23 23 0 0 1 .84-4.07 13.54 13.54 0 0 1 1.57-3.51A7.48 7.48 0 0 1 20 31.21a7 7 0 0 1 3.6-.92 12 12 0 0 0 16.77 0 7 7 0 0 1 3.6.92 7.49 7.49 0 0 1 2.52 2.38 13.54 13.54 0 0 1 1.57 3.51 23 23 0 0 1 .84 4.07 38.35 38.35 0 0 1 .24 4.3zm-9.87-31a9.91 9.91 0 0 1 3 7.27 9.91 9.91 0 0 1-3 7.27 10.28 10.28 0 0 1-14.54 0 9.91 9.91 0 0 1-3-7.27 9.91 9.91 0 0 1 3-7.27 10.28 10.28 0 0 1 14.54 0z"/></symbol><symbol viewBox="0 0 64 64" id="phone"><path d="M9.1 14.6l6.7-6.7c.9-.9 2.4-.7 3.2.4l5.7 8c.8 1.1.6 2.6-.4 3.5l-4.9 4.9c2.4 3.4 5.4 7.1 9.4 11 4 4 7.6 6.9 11 9.4l4.9-4.9c.9-.9 2.5-1.1 3.6-.3l7.9 5.6c1.1.8 1.3 2.3.4 3.2l-6.7 6.7s-11.6 1-26.7-14.1S9.1 14.6 9.1 14.6z"/></symbol><symbol id="plus" viewBox="0 0 64 64"><style>.st0{fill:#d0b152}.st1{fill:#f9c14f}.st2{fill:#fdd895}.st3{fill:#010101}.st4{fill:none}.st5{stroke:#000;stroke-width:4.8066;stroke-miterlimit:10}</style><path d="M8.5 23.3h47v12h-47z"/><path d="M26 5.8h12v47H26z"/></symbol><symbol viewBox="0 0 64 64" id="plus-expand"><path d="M-1003 97.5h47v12h-47zM50.6 21.2c-1.9-3.3-4.5-5.9-7.8-7.8s-6.9-2.9-10.8-2.9c-3.9 0-7.5 1-10.8 2.9-3.3 1.9-5.9 4.5-7.8 7.8-1.9 3.3-2.9 6.9-2.9 10.8 0 3.9 1 7.5 2.9 10.8 1.9 3.3 4.5 5.9 7.8 7.8 3.3 1.9 6.9 2.9 10.8 2.9 3.9 0 7.5-1 10.8-2.9 3.3-1.9 5.9-4.5 7.8-7.8 1.9-3.3 2.9-6.9 2.9-10.8-.1-3.9-1-7.5-2.9-10.8zm-6.1 12.6c0 .5-.2.9-.5 1.3-.4.4-.8.5-1.3.5h-7.1v7.1c0 .5-.2.9-.5 1.3-.4.4-.8.5-1.3.5h-3.6c-.5 0-.9-.2-1.3-.5-.4-.4-.5-.8-.5-1.3v-7.1h-7.1c-.5 0-.9-.2-1.3-.5-.4-.4-.5-.8-.5-1.3v-3.6c0-.5.2-.9.5-1.3.4-.4.8-.5 1.3-.5h7.1v-7.1c0-.5.2-.9.5-1.3.4-.4.8-.5 1.3-.5h3.6c.5 0 .9.2 1.3.5.4.4.5.8.5 1.3v7.1h7.1c.5 0 .9.2 1.3.5.4.4.5.8.5 1.3v3.6zM118.6 21.2c-1.9-3.3-4.5-5.9-7.8-7.8s-6.9-2.9-10.8-2.9-7.5 1-10.8 2.9-5.9 4.5-7.8 7.8c-1.9 3.3-2.9 6.9-2.9 10.8 0 3.9 1 7.5 2.9 10.8 1.9 3.3 4.5 5.9 7.8 7.8 3.3 1.9 6.9 2.9 10.8 2.9s7.5-1 10.8-2.9c3.3-1.9 5.9-4.5 7.8-7.8 1.9-3.3 2.9-6.9 2.9-10.8-.1-3.9-1-7.5-2.9-10.8zm-6.1 12.6c0 .5-.2.9-.5 1.3-.4.4-.8.5-1.3.5H89.3c-.5 0-.9-.2-1.3-.5-.4-.4-.5-.8-.5-1.3v-3.6c0-.5.2-.9.5-1.3.4-.4.8-.5 1.3-.5h21.4c.5 0 .9.2 1.3.5.4.4.5.8.5 1.3v3.6z"/><path d="M657.6 404.9c1.4 0 2.5.5 3.5 1.4 1 1 1.4 2.1 1.4 3.5V427c0 1.4-.5 2.5-1.4 3.5-1 1-2.1 1.4-3.5 1.4h-27.1c-1.4 0-2.5-.5-3.5-1.4-1-1-1.4-2.1-1.4-3.5v-17.2c0-1.4.5-2.5 1.4-3.5s2.1-1.4 3.5-1.4l4.6.1 1-2.6c.2-.6.7-1.2 1.3-1.6.6-.5 1.3-.7 2-.7l9.6-.1c.7 0 1.3.2 2 .7.6.5 1.1 1 1.3 1.6l1 2.6h4.3zm-19.2 19.6c1.7 1.7 3.7 2.5 6.1 2.5s4.4-.8 6.1-2.5 2.5-3.7 2.5-6.1c0-2.4-.8-4.4-2.5-6.1s-3.7-2.5-6.1-2.5-4.4.8-6.1 2.5c-1.7 1.7-2.5 3.7-2.5 6.1 0 2.4.8 4.5 2.5 6.1z" opacity=".2"/></symbol><symbol viewBox="0 0 64 64" id="print"><path d="M59.8 46.2c0 .6-.5 1.1-1.1 1.1h-7.6v5.4c0 1.8-1.5 3.2-3.2 3.2H15.4c-1.8 0-3.2-1.5-3.2-3.2v-5.4H4.6c-.6 0-1.1-.5-1.1-1.1v-14c0-3.6 2.9-6.5 6.5-6.5h2.2V7.2c0-1.8 1.5-3.2 3.2-3.2h22.8c1.8 0 4.3 1 5.6 2.3l5.1 5.1c1.3 1.3 2.3 3.8 2.3 5.6v8.7h2.2c3.6 0 6.5 2.9 6.5 6.5v14zM46.8 30V17h-5.4c-1.8 0-3.2-1.5-3.2-3.2V8.3H16.5V30h30.3zm0 21.7V43H16.5v8.7h30.3zM53.3 30c-1.2 0-2.2 1-2.2 2.2 0 1.2 1 2.2 2.2 2.2s2.2-1 2.2-2.2c0-1.2-1-2.2-2.2-2.2z"/></symbol><symbol viewBox="0 0 64 64" id="question"><path d="M58.5 28.4c0 10.1-11.7 18.3-26.2 18.3-3.8 0-7.4-.6-10.6-1.6L11 51.7c-.5.3-.8 0-.7-.5l2.5-10.5C8.6 37.4 6 33.1 6 28.4c0-10.1 11.7-18.3 26.2-18.3 14.5.1 26.3 8.2 26.3 18.3z"/></symbol><symbol id="quote" viewBox="0 0 64 64"><style>.st0{fill:#d0b152}.st1{fill:#f9c14f}.st2{fill:#fdd895}.st3{fill:#010101}.st4{fill:none}</style><path d="M29.9 20.2c-1.8 1-3.2 1.9-4.2 2.6-1.1.7-2.2 1.7-3.3 2.9-1 1.1-1.8 2.3-2.4 3.5-.6 1.2-1 2.8-1.2 4.7h2.7c2.3 0 4.1.6 5.5 1.7 1.3 1.1 2 2.8 2 5 0 1.6-.6 3-1.8 4.4-1.2 1.4-2.8 2-4.8 2-3.2 0-5.5-1.1-6.9-3.2-1.4-2.1-2.1-4.9-2.1-8.3 0-2.4.5-4.6 1.6-6.6 1-2 2.3-3.8 3.8-5.3 1.5-1.6 3.1-3 4.9-4.1 1.7-1.1 3.1-2 4.3-2.7l1.9 3.4zm20.7 0c-1.8 1-3.2 1.9-4.2 2.6-1.1.7-2.2 1.7-3.3 2.9-1.1 1.2-1.9 2.3-2.4 3.5-.5 1.2-.9 2.8-1.1 4.7h2.7c2.3 0 4.1.6 5.5 1.7 1.3 1.1 2 2.8 2 5 0 1.6-.6 3-1.8 4.4-1.2 1.4-2.8 2-4.8 2-3.2 0-5.5-1.1-6.9-3.2-1.4-2.1-2.1-4.9-2.1-8.3 0-2.4.5-4.6 1.6-6.6 1-2 2.3-3.8 3.8-5.3 1.5-1.6 3.2-3 4.9-4.1 1.7-1.1 3.2-2 4.3-2.7l1.8 3.4z"/></symbol><symbol id="rain" viewBox="0 0 64 64"><style>.st0{fill:#d0b152}.st1{fill:#f9c14f}.st2{fill:#fdd895}.st3{fill:#010101}.st4{fill:none}.st5{stroke:#000;stroke-width:4.8066;stroke-miterlimit:10}</style><path d="M41.4 5.7s-16.5 23.4-16.5 33c0 9 7.2 16.3 16.2 16.5h.6c9-.2 16.2-7.5 16.2-16.5 0-9.6-16.5-33-16.5-33zM7.9 22c0 4.5 3.6 8.1 8 8.2h.2c4.4-.1 8-3.7 8-8.2 0-4.7-8.2-16.3-8.2-16.3s-8 11.5-8 16.3z"/></symbol><symbol viewBox="0 0 64 64" id="real-estate"><path d="M52.9 15.3H23.8V10l-4-2.6-4 2.6v5.3h-5.3v7.9h5.3V51h7.9V23.3h6.6v5.3h-4v15.9h25.1V28.6h-4v-5.3h5.3l2.6-4-2.4-4zM33 28.6v-5.3h11.9v5.3H33z"/></symbol><symbol viewBox="0 0 64 64" id="reddit"><path d="M54.8 33.6c.2.9.4 1.8.4 2.8 0 9.2-10.4 16.6-23.1 16.6C19.3 53 9 45.6 9 36.4c0-.9.1-1.9.3-2.7-1.9-1-3.3-2.9-3.3-5.2 0-3.2 2.6-5.8 5.8-5.8 1.7 0 3.1.7 4.2 1.8 3.9-2.7 9.1-4.5 14.9-4.7l3.4-15.1c.1-.5.7-.9 1.2-.7l10.7 2.3c.7-1.4 2.2-2.4 3.9-2.4 2.4 0 4.3 1.9 4.3 4.3s-1.9 4.4-4.3 4.4-4.3-1.9-4.3-4.3L36 6.1l-3 13.7c5.8.2 11.1 1.9 15 4.6 1-1.1 2.5-1.8 4.1-1.8 3.2 0 5.8 2.6 5.8 5.8.1 2.3-1.2 4.3-3.1 5.2zm-32.3 5c2.4 0 4.4-1.9 4.4-4.4 0-2.4-1.9-4.3-4.4-4.3-2.4 0-4.3 1.9-4.3 4.3s1.9 4.4 4.3 4.4zM41.6 43c-.4-.4-1.1-.4-1.5 0-1.7 1.8-5.5 2.4-8.1 2.4s-6.4-.6-8.1-2.4c-.4-.4-1.1-.4-1.5 0-.4.4-.4 1.1 0 1.5 2.8 2.8 8.1 3 9.6 3 1.6 0 6.9-.2 9.6-3 .5-.4.5-1 0-1.5zm4.3-8.8c0-2.4-1.9-4.3-4.3-4.3s-4.4 1.9-4.4 4.3 1.9 4.4 4.4 4.4c2.3 0 4.3-2 4.3-4.4z"/></symbol><symbol id="rollover" viewBox="0 0 64 64"><style>.st0{fill:#d0b152}.st1{fill:#f9c14f}.st2{fill:#fdd895}.st3{fill:#010101}.st4{fill:none}.st5{stroke:#000;stroke-width:4.8066;stroke-miterlimit:10}</style><path d="M32.9 55.8c-7.4 0-14.4-3.3-19.1-9-.3-.4-.3-1 .1-1.4l4.4-4.5c.2-.2.5-.3.8-.3.3 0 .6.2.7.4 3.2 4.1 7.9 6.4 13.1 6.4 9.1 0 16.6-7.4 16.6-16.6S42 14.3 32.9 14.3c-4.2 0-8.3 1.6-11.3 4.4l4.4 4.5c.6.6.8 1.5.5 2.2-.3.8-1.1 1.3-1.9 1.3H10.1C9 26.7 8 25.8 8 24.6V10.2c0-.8.5-1.6 1.3-1.9.7-.3 1.6-.2 2.2.4l4.2 4.2C20.3 8.6 26.5 6 32.9 6c13.7 0 24.9 11.2 24.9 24.9S46.5 55.8 32.9 55.8zM37 36.1c0 .6-.5 1-1 1H25.6c-.6 0-1-.5-1-1V34c0-.6.5-1 1-1h7.3V21.6c0-.6.5-1 1-1H36c.6 0 1 .5 1 1v14.5z"/></symbol><symbol viewBox="0 0 64 64" id="runner"><path d="M53 30.4c-.5.8-1.4 1-2.2 1-2.1.1-4.3.2-6.4.3h-.8c-1 .1-1.7-.4-2.1-1.2-.6-1.2-1.2-2.5-1.8-3.8-.1-.2-.2-.3-.3-.6-1.6 2.5-3.1 5-4.7 7.5.1.1.3.2.4.3 2 1.3 4 2.7 5.9 4 1.4 1 1.7 2.2.9 3.8-1.8 3.4-3.6 6.9-5.5 10.3-.4.8-1.1 1.4-1.7 2-.4.4-.9.5-1.4.4-.7-.2-1.2-.7-1.1-1.6.1-.8.3-1.7.6-2.5 1.1-2.9 2.3-5.8 3.5-8.6.1-.2.1-.4.2-.6-.1-.1-.3-.2-.4-.3-2.5-1.7-5.1-3.3-7.6-5-1.8-1.2-2.4-2.7-1.5-4.8.3-.6.6-1.3 1-1.9l5.1-7.5c.1-.1.2-.3.3-.5-.9-.2-1.8-.3-2.7-.6-1.1-.4-2-.2-3 .4-1.8 1-3.6 1.9-5.4 2.8-.4.2-.9.3-1.4.4-.8.1-1.3-.5-1.1-1.3.2-.9.8-1.4 1.5-1.9 2-1.6 4.1-3.1 6.1-4.7.5-.4 1.1-.5 1.7-.4 2.5.5 5 1.1 7.5 1.6.3.1.6.2.8.3 1.2.8 2.3 1.6 3.5 2.3.5.3.7.7.9 1.2.9 2 1.8 4.1 2.7 6.1.2.4.5.6.9.6 1.9.1 3.9.3 5.8.5.7.1 1.3.4 1.6 1.1.2.4.2.7.2.9z"/><path d="M25 35.7c.8 1.6 2.3 2.5 3.7 3.6L26 43.2c-.1.2-.3.3-.5.4-.5.4-1.2.6-1.8.5-3.4-.2-6.7-.4-10.1-.7-.6 0-1.2-.3-1.7-.5-.6-.2-.9-.7-.9-1.3 0-.7.2-1.2.8-1.5.6-.3 1.2-.5 1.8-.5 2.8-.2 5.5-.4 8.3-.6.5 0 .9-.2 1.2-.6.6-.8 1.3-1.7 1.9-2.7zM43.2 9.5c2.1-.1 4.2 1.4 4.3 4 .1 2.1-1.5 4.1-4 4.2-2.1.1-4.2-1.4-4.3-4-.1-2.1 1.5-4.1 4-4.2z"/></symbol><symbol viewBox="0 0 548 411" id="sass"><title>Fill 1</title><path d="M387.313 310.68c-1.738-1.236-1.45-5.234 4.267-17.686 2.244-4.89 7.364-13.12 16.265-20.986 1.03 3.235 1.66 6.337 1.642 9.225-.115 19.266-13.86 26.46-22.174 29.448zm-73.168 16.68c-2.33 1.22-4.466 1.985-5.46 1.394-.727-.435.962-2.04.962-2.04s11.88-12.78 16.56-18.6c2.722-3.384 5.878-7.4 9.317-11.894.028.45.043.894.043 1.334-.035 15.312-14.826 25.65-21.422 29.806zm-94.978-45.318c-5.496 13.4-17 47.678-24 45.84-6.01-1.576-9.67-27.634-1.2-53.28 4.263-12.908 13.37-28.333 18.72-34.32 8.613-9.634 18.096-12.785 20.4-8.88 2.937 4.978-10.474 42.24-13.92 50.64zm-114.96 78.152c-15.78 17.215-37.826 23.72-47.28 18.24-10.208-5.918-6.165-31.262 13.2-49.53 11.803-11.133 27.04-21.387 37.148-27.703 2.3-1.383 5.68-3.416 9.787-5.877.68-.388 1.065-.603 1.065-.603l-.015-.026 2.444-1.462c7.046 26.002.214 48.894-16.35 66.962zm367.21-123.798c-19.145.1-35.727 4.697-49.627 11.548-5.084-10.146-10.23-19.072-11.093-25.71-1.01-7.747-2.178-12.37-.96-21.6 1.22-9.23 6.56-22.3 6.48-23.278-.077-.98-1.197-5.68-12.24-5.76-11.042-.08-20.488 2.123-21.6 5.04-1.11 2.915-3.237 9.477-4.56 16.32-1.934 10.012-22.047 45.722-33.467 64.404-3.735-7.29-6.91-13.72-7.573-18.804-1.008-7.748-2.178-12.37-.96-21.6 1.22-9.23 6.56-22.302 6.48-23.28-.077-.98-1.196-5.68-12.24-5.76-11.042-.08-20.488 2.123-21.6 5.04-1.11 2.915-2.298 9.728-4.56 16.32-2.262 6.59-28.998 66.16-36 81.6a469.97 469.97 0 0 1-8.865 18.504l-.014-.024s-.135.287-.368.772c-1.876 3.674-2.993 5.707-2.993 5.707l.033.076c-1.488 2.7-3.083 5.205-3.873 5.205-.552 0-1.657-7.182.24-17.04 3.98-20.664 13.536-52.89 13.44-54-.05-.57 1.777-6.184-6.24-9.12-7.793-2.852-10.568 1.905-11.28 1.92-.688.015-1.2 1.68-1.2 1.68s8.682-36.24-16.56-36.24c-15.78 0-37.648 17.264-48.42 32.912a14207.304 14207.304 0 0 0-54.492 29.874c-.39-.43-.78-.864-1.18-1.292-30.607-32.655-87.188-55.752-84.788-99.653.873-15.96 6.42-57.984 108.72-108.96 83.8-41.758 150.887-30.267 162.48-4.8 16.563 36.383-35.853 104.005-122.88 113.76-33.158 3.717-50.617-9.133-54.96-13.92-4.57-5.038-5.253-5.265-6.96-4.32-2.78 1.54-1.018 5.99 0 8.64 2.6 6.763 13.26 18.755 31.44 24.72 15.992 5.248 54.922 8.13 102-10.08 52.73-20.396 93.904-77.134 81.81-124.56-12.3-48.235-92.276-64.092-167.97-37.2-45.048 16.004-93.815 41.123-128.88 73.92-41.69 38.997-48.34 72.938-45.6 87.12C10.27 224.865 79.727 257.68 107.54 282c-1.374.758-2.66 1.47-3.832 2.115-13.944 6.898-66.888 34.605-80.13 63.88-15.022 33.207 2.39 57.032 13.92 60.24 35.718 9.94 72.37-7.938 92.07-37.32 19.693-29.373 17.288-67.62 8.25-85.08-.113-.217-.237-.43-.352-.644 3.6-2.13 7.272-4.297 10.91-6.434a716.93 716.93 0 0 1 20.11-11.345c-3.382 9.27-5.86 20.38-7.15 36.425-1.513 18.85 6.212 43.215 16.32 52.8 4.452 4.22 9.807 4.32 13.2 4.32 11.764 0 17.132-9.786 23.04-21.36 7.25-14.195 13.68-30.72 13.68-30.72s-8.07 44.64 13.922 44.64c8.013 0 16.074-10.39 19.664-15.69l.015.09s.21-.345.617-1.037c.832-1.272 1.303-2.082 1.303-2.082l.042-.23c3.22-5.593 10.364-18.344 21.078-39.37 13.842-27.168 27.12-61.2 27.12-61.2s1.234 8.32 5.28 22.08c2.38 8.095 7.435 17.044 11.424 25.626-3.21 4.455-5.185 7.014-5.185 7.014l.054.133c-2.565 3.405-5.442 7.08-8.452 10.665-10.925 13.012-23.938 27.87-25.68 32.16-2.053 5.053-1.568 8.77 2.4 11.76 2.897 2.184 8.056 2.523 13.44 2.16 9.817-.66 16.725-3.095 20.133-4.578 5.314-1.88 11.5-4.834 17.308-9.102 10.717-7.88 17.18-19.15 16.56-34.08-.344-8.228-2.968-16.383-6.287-24.082a654.94 654.94 0 0 0 2.927-4.238c16.895-24.7 30-51.84 30-51.84s1.235 8.32 5.28 22.08c2.048 6.965 6.087 14.562 9.72 22.014-15.887 12.907-25.74 27.905-29.16 37.745-6.325 18.197-1.37 26.443 7.92 28.32 4.21.85 10.154-1.078 14.626-2.97 5.564-1.846 12.25-4.92 18.495-9.51 10.717-7.878 21.02-18.91 20.4-33.84-.284-6.797-2.127-13.543-4.628-20.024 13.466-5.608 30.9-8.727 53.108-6.134 47.64 5.563 56.986 35.31 55.2 47.76-1.787 12.45-11.78 19.293-15.12 21.36-3.34 2.066-4.36 2.783-4.08 4.32.406 2.234 1.95 2.148 4.8 1.668 3.92-.662 25.016-10.127 25.92-33.108 1.146-29.176-26.807-61.224-76.32-60.96z"/></symbol><symbol id="scales" viewBox="0 0 64 64"><style>.st0{fill:#d0b152}.st1{fill:#f9c14f}.st2{fill:#fdd895}.st3{fill:#010101}.st4{fill:none}.st5{stroke:#000;stroke-width:4.8066;stroke-miterlimit:10}</style><path d="M16.3 41c-4 0-11-2-11-7.1 0-1 8.6-16.2 9.6-18.1.3-.5.8-.8 1.4-.8.6 0 1.1.3 1.4.8 1.1 1.9 9.6 17.1 9.6 18.1.1 5.1-6.9 7.1-11 7.1zm-9.4-7.1h18.9l-9.4-17.3-9.5 17.3zm26.8-19.1v31.7h14.9c.4 0 .8.3.8.8v1.6c0 .4-.3.8-.8.8h-33c-.4 0-.8-.3-.8-.8v-1.6c0-.4.3-.8.8-.8h14.9V14.8c-1.3-.5-2.4-1.6-2.9-2.9h-12c-.4 0-.8-.3-.8-.8V9.5c0-.4.3-.8.8-.8h12.1c.7-1.8 2.4-3.1 4.5-3.1s3.8 1.3 4.5 3.1h12.1c.4 0 .8.3.8.8v1.6c0 .4-.3.8-.8.8H36.5c-.4 1.3-1.5 2.4-2.8 2.9zm.4-4.5c0-1.1-.9-2-2-2s-2 .9-2 2 .9 2 2 2 2-.9 2-2zM47.8 41c-4 0-11-2-11-7.1 0-1 8.6-16.2 9.6-18.1.3-.5.8-.8 1.4-.8s1.1.3 1.4.8c1.1 1.9 9.6 17.1 9.6 18.1 0 5.1-7 7.1-11 7.1zm-9.4-7.1h18.9l-9.4-17.3-9.5 17.3z"/></symbol><symbol viewBox="0 0 64 64" id="search"><path d="M57.5 52l-11-11c2.5-3.5 4-7.8 4-12.4 0-11.9-9.6-21.5-21.5-21.5S7.5 16.8 7.5 28.6c0 11.9 9.7 21.5 21.5 21.5 5 0 9.5-1.7 13.2-4.5l8.3 8.3.3.3 2.2 2.2 4.5-4.4zM29 45c-9.1 0-16.4-7.4-16.4-16.5S20 12 29 12c9.1 0 16.5 7.4 16.5 16.5 0 3.8-1.3 7.2-3.4 10-.7.9-1.5 1.8-2.4 2.5-2.9 2.6-6.6 4-10.7 4z"/></symbol><symbol viewBox="0 0 64 64" id="senior-care"><path d="M30.9 41.4c0 4.8-1.2 9.9-1.3 10.3-.2.3-.5.3-.8.2-.2-.1-3.2-.9-3.7-.9-.4-.2-.3-.5-.4-.8l-1.1-5.7h.9c-.5-3.3-1.6-8-1.6-10.6 0-2.6.8-5.1.8-5.5.1-.3.6-1.2 1.3-.5.8.9 3.2 1.6 4.2 1.9.2.1.5.2.5.2v1.6c.2 2.5 1.2 5.1 1.2 9.8m10.2 9.3s-2.5-13.4-2.5-13.9c-.2-.6-.5-1.8-.5-4.1 0-5.7 3.1-9.7 3.2-9.8.1-.1.5-.6 1.2.2.7 1 2.7 3.7 3.5 4.4.7.7 2.1 2.2 4.5 4-.6.5-.5 1.1-.5 1.1.3 0 .7 0 1.1-.1 0 0-.1-.3.1-.5.2.2 1 .8 1.6.9l-3.3 20 .8.2 3.3-20.2c.6-.1 1-.5 1-.9s-.2-.7-.6-1c-.5-.4-3.4-2.5-5.6-5.4-1.5-2-3.2-4.8-4.5-9.7-.2-.7.3-.9.5-.9s.5.1.8.1c2.6 0 3.5-2.2 3.5-3.3 0-1.1-.9-3.7-3.8-3.7-2.6 0-3.7 2.6-3.7 3.7 0 .8-.2.9-.6 1.1-.9.5-3.1 1.4-5.9 4.7-3.5 4.1-4.1 9-4.1 9s-.2-.2-.5-.2c-1.6-.5-3.9-2.5-3.9-3.8 0-1.3 1.4-4.6 1.4-4.7.1-.2.2-.4.8-.5 2.5-.2 3.2-3 3.2-3.7 0-.8-.7-3.7-3.8-3.7-3.1 0-3.7 2.9-3.7 3.7 0 .8.2 1.1.2 1.5 0 .3-.3.6-.6.9-6 5.3-11.5 14.9-11.5 28.4h2.7l-.6 8.6h5c.9 0 .8-.8.3-.9-.7-.3-2.2-.9-2.4-.9-.2-.2-.5-.4-.2-1l1.5-5.7h1.9l2.8 8.6h12.6c.2 0 .5-.2.7-.5.1-.3-.4-.5-.5-.6-.2 0-1.5-.5-1.6-.7-.1-.1-.4-.2-.3-.7.1-.4.9-4.4.9-9 .5 1.4 1.4 3.5 1.9 5.5.6 2 1.2 4.8 1.3 5.4.2.6.6.5.6.5h4.8c.2 0 .5-.2.5-.5 0-.4-.4-.5-.4-.5s-2-.6-2.3-.7c-.3-.2-.3-.4-.3-.7"/></symbol><symbol viewBox="0 0 64 64" id="ship"><path d="M14.4 45.9c-.3.3-.6.4-1 .4s-.7-.1-1-.4L9.5 43l2-2 1.9 1.8 1.9-1.8c.3-.3.6-.4 1-.4s.7.1 1 .4l1.9 1.8 1.4-1.4v-6.6l-4.7-7c-.3-.4-.3-.8-.2-1.3.1-.5.4-.8.9-.9l4-1.3v-6.7h2.9v-2.9h5.7v-2.9h5.7v2.9h5.7v2.9h2.9v6.7l4 1.3c.4.1.7.5.9.9.1.5.1.9-.2 1.3l-4.7 7v6.6l.4-.4c.3-.3.6-.4 1-.4s.7.1 1 .4l1.9 1.8 1.9-1.8c.3-.3.6-.4 1-.4s.7.1 1 .4l2.9 2.9-2 2-2-1.9-1.9 1.9c-.3.3-.6.4-1 .4s-.7-.1-1-.4L44.9 44 43 45.9c-.3.3-.6.4-1 .4s-.7-.1-1-.4L39.2 44l-1.9 1.9c-.3.3-.6.4-1 .4s-.7-.1-1-.4L33.4 44l-1.9 1.9c-.3.3-.6.4-1 .4s-.7-.1-1-.4L27.7 44l-1.9 1.9c-.3.3-.6.4-1 .4s-.7-.1-1-.4L22 44l-1.9 1.9c-.3.3-.6.4-1 .4s-.7-.1-1-.4L16.2 44l-1.8 1.9zm35.2.9c.3-.3.6-.4 1-.4s.7.1 1 .4l2.9 2.9-2 2-1.9-1.9-1.9 1.9c-.3.3-.6.4-1 .4s-.7-.1-1-.4l-1.9-1.9-1.8 1.8c-.3.3-.6.4-1 .4s-.7-.1-1-.4l-1.9-1.9-1.9 1.9c-.3.3-.6.4-1 .4s-.7-.1-1-.4l-1.9-1.9-1.9 1.9c-.3.3-.6.4-1 .4s-.7-.1-1-.4l-1.9-1.9-1.9 1.9c-.3.3-.6.4-1 .4s-.7-.1-1-.4L22 49.8l-1.9 1.9c-.3.3-.6.4-1 .4s-.7-.1-1-.4l-1.9-1.9-1.9 1.9c-.3.3-.6.4-1 .4s-.7-.1-1-.4l-2.9-2.9 2-2 1.9 1.9 1.9-1.9c.3-.3.6-.4 1-.4s.7.1 1 .4l1.9 1.9 1.9-1.9c.3-.3.6-.4 1-.4s.7.1 1 .4l1.9 1.9 1.9-1.9c.3-.3.6-.4 1-.4s.7.1 1 .4l1.9 1.9 1.9-1.9c.3-.3.6-.4 1-.4s.7.1 1 .4l1.9 1.9 1.9-1.9c.3-.3.6-.4 1-.4s.7.1 1 .4l1.9 1.9 1.9-1.9c.3-.3.6-.4 1-.4s.7.1 1 .4l1.9 1.9 1.5-1.9zM23.4 20.5v2.9l8.6-2.9 8.6 2.9v-2.9h-2.9v-2.9H26.3v2.9h-2.9z"/></symbol><symbol viewBox="0 0 64 64" id="social-service"><path d="M52.1 14.3h-8v2c0 2.5-1.5 4-4 4h-16c-2.6 0-4-1.5-4-4v-2h-8c-2.2 0-4 1.8-4 4v28c0 2.2 1.8 4 4 4h40c2.2 0 4-1.8 4-4v-28c0-2.2-1.8-4-4-4zm-20 28.2c0 1-.9 1.8-2 1.8h-14c-1.1 0-2-.8-2-1.8V28.1c0-1 .9-1.8 2-1.8h14c1.1 0 2 .8 2 1.8v14.4zm14-.2v2m2-8h-12v-2h12v2zm2-4h-14v-2h14v2zm0-4h-6v-2h6v2zm-8 0h-6v-2h6v2zm-18-10H40c1.1 0 2-.9 2-2v-2c0-1.1-.9-2-2-2h-4v-1.8c0-1.1-.9-2.2-2-2.2h-4c-1.1 0-2 1.1-2 2.2v1.8h-4c-1.1 0-2 .9-2 2v2c.1 1.1 1 2 2.1 2zm-7.2 20.3c0-.6.1-.8.5-1 .3-.2 3.3-1.2 4.4-1.6v-1.1c-.6-.2-1.2-1.1-1.2-1.6v-2.5c0-1.3.9-2.4 2.5-2.4s2.5 1.1 2.5 2.4v2.5c0 .6-.7 1.5-1.2 1.6V36c1.1.5 4 1.4 4.4 1.6.4.2.5.5.5 1v1.3c0 .1-.1.3-.3.3H17.2c-.1 0-.3-.1-.3-.3v-1.3z"/></symbol><symbol id="sort" viewBox="0 0 64 64"><style>.st0{fill:#d0b152}.st1{fill:#f9c14f}.st2{fill:#fdd895}.enst3{fill:#010101}.st4{fill:none}.st5{stroke:#000;stroke-width:4.8066;stroke-miterlimit:10}</style><path class="enst3" d="M26.3 37.7H34l-13 13-13-13h8.3V10c0-1.1.6-2.3 1.7-2.3h6c1.1 0 2.3 1.2 2.3 2.3v27.7zM43 6.7l-13 13h8.3V48c0 1.1.6 1.7 1.7 1.7h6c1.1 0 2.3-.6 2.3-1.7V19.7H56l-13-13z" id="ensorting_1_"/></symbol><symbol id="star" viewBox="0 0 64 64"><style>.st0{fill:#d0b152}.st1{fill:#f9c14f}.st2{fill:#fdd895}.st3{fill:#010101}.st4{fill:none}.st5{stroke:#000;stroke-width:4.8066;stroke-miterlimit:10}</style><path d="M55.5 24.2c0 .4-.2.9-.7 1.4l-10.3 10 2.4 14.1v.6c0 .4-.1.7-.3 1s-.5.4-.9.4-.7-.1-1.1-.3L32 44.7l-12.7 6.7c-.4.2-.8.3-1.1.3-.4 0-.7-.1-.9-.4s-.3-.6-.3-1c0-.1 0-.3.1-.6l2.4-14.1-10.3-10c-.5-.5-.7-1-.7-1.4 0-.7.5-1.1 1.6-1.3l14.2-2.1L30.6 8c.4-.8.8-1.1 1.4-1.1.6 0 1 .4 1.4 1.2L39.8 21 54 23.1c1 0 1.5.4 1.5 1.1z"/></symbol><symbol id="star-rating" viewBox="0 0 64 64"><style>.st0{fill:#f9c14f}.st1{fill:#fdd895}.st2{fill:#d0b152}</style><path d="M54.2 4H9.8C8.2 4 7 5.2 7 6.8v44.4C7 52.8 8.2 54 9.8 54h44.4c1.5 0 2.8-1.2 2.8-2.8V6.8C57 5.2 55.8 4 54.2 4zm-3 19.3L40 31.4c-.4.3-.5.8-.4 1.2l4.1 13.2c.1.3 0 .4-.1.4s-.2 0-.3-.1l-11-8.1c-.2-.1-.4-.2-.6-.2-.2 0-.5.1-.6.2l-11.2 8.2c-.1.1-.2.1-.3.1-.1 0-.2-.1-.1-.4l4.4-13.2c.1-.4 0-1-.4-1.2l-11-8.1c-.3-.3-.3-.5.2-.5h13.7c.4 0 .9-.3 1-.8l4.4-13.2c.1-.2.2-.3.2-.3.1 0 .2.1.2.3l4.1 13.2c.1.4.6.8 1 .8H51c.5-.1.6.1.2.4z"/></symbol><symbol viewBox="0 0 64 64" id="stumbleupon"><path d="M38.3 27.7l5.3-1.6v-3.7c0-3.1-1.2-5.8-3.5-8s-5-3.3-8.2-3.3c-3.2 0-6 1-8.2 3.3-2.3 2.2-3.4 4.8-3.4 7.9v16.8c0 .8-.3 1.5-.8 2s-1.2.8-1.9.8c-.8 0-1.4-.2-1.9-.8-.5-.5-.8-1.2-.8-2V32H6v7.2c0 3.2 1.1 6 3.4 8.2 2.3 2.3 5 3.4 8.2 3.4 3.2 0 6-1.1 8.3-3.3 2.3-2.2 3.4-4.9 3.4-8.1V22.8c0-.8.3-1.5.8-1.9.5-.5 1.2-.8 1.9-.8.8 0 1.4.2 1.9.8.5.5.8 1.2.8 1.9V26l3.6 1.7zm10.8 11.8c0 .8-.2 1.5-.8 1.9-.5.5-1.2.8-2 .8s-1.4-.2-1.9-.8c-.5-.5-.8-1.2-.8-1.9v-7.3l-5.3 1.6-3.6-1.6v7.3c0 3.2 1.1 5.9 3.4 8.2 2.3 2.2 5 3.3 8.2 3.3 3.2 0 6-1.1 8.2-3.4 2.3-2.3 3.4-5 3.4-8.2V32H49l.1 7.5z"/></symbol><symbol id="sun" viewBox="0 0 64 64"><style>.st0{fill:#d0b152}.st1{fill:#f9c14f}.st2{fill:#fdd895}.st3{fill:#010101}.st4{fill:none}.st5{stroke:#000;stroke-width:4.8066;stroke-miterlimit:10}</style><path d="M57 38l-8.7 2.8v9.1c0 .3-.1.6-.4.8-.3.2-.6.2-.9.1L38.5 48l-5.3 7.4c-.2.2-.5.4-.8.4-.3 0-.6-.1-.8-.4L26.3 48l-8.7 2.8c-.3.1-.6.1-.9-.1-.2-.2-.4-.5-.4-.8v-9.1L7.7 38c-.3-.1-.5-.3-.6-.6-.1-.3-.1-.6.1-.9l5.3-7.4-5.3-7.4c-.1-.1-.2-.4-.1-.7.1-.3.3-.5.6-.6l8.7-2.8V8.5c0-.3.1-.6.4-.8.3-.2.6-.2.9-.1l8.7 2.8L31.6 3c.4-.5 1.2-.5 1.5 0l5.3 7.4 8.7-2.8c.3-.1.6-.1.9.1.2.2.4.5.4.8v9.1l8.7 2.8c.3.1.5.3.6.6.1.3.1.6-.1.9l-5.3 7.4 5.3 7.4c.2.2.2.6.1.9-.1.1-.4.3-.7.4zM32.4 12.1c-9.4 0-17.1 7.6-17.1 17.1S23 46.3 32.4 46.3s17.1-7.6 17.1-17.1-7.7-17.1-17.1-17.1z"/></symbol><symbol id="switch" viewBox="0 0 64 64"><defs><style>.escls-1{fill:#231f20}</style></defs><title>switch</title><path class="escls-1" d="M50 23.77a.64.64 0 0 1-.19.48l-6.61 6.61a.64.64 0 0 1-.47.19.67.67 0 0 1-.66-.66v-4h-5.28a5 5 0 0 0-1.8.31 4 4 0 0 0-1.42.93 8.37 8.37 0 0 0-1.05 1.27 17.57 17.57 0 0 0-.93 1.6q-.66 1.28-1.61 3.53-.6 1.36-1 2.29t-1.12 2.17a17.52 17.52 0 0 1-1.32 2.07A16.44 16.44 0 0 1 25 42.3a8.44 8.44 0 0 1-1.86 1.41 10.22 10.22 0 0 1-2.2.87 10 10 0 0 1-2.64.34h-4.64a.64.64 0 0 1-.66-.66v-4a.64.64 0 0 1 .66-.66h4.63a5 5 0 0 0 1.8-.31 4.06 4.06 0 0 0 1.42-.93 8.37 8.37 0 0 0 1.05-1.27 17.79 17.79 0 0 0 .93-1.6q.66-1.28 1.61-3.53.6-1.36 1-2.29t1.12-2.17a17.58 17.58 0 0 1 1.32-2.06 16.65 16.65 0 0 1 1.53-1.71 8.39 8.39 0 0 1 1.86-1.41 10.21 10.21 0 0 1 2.2-.87 9.92 9.92 0 0 1 2.64-.34h5.29v-4a.64.64 0 0 1 .66-.66.78.78 0 0 1 .5.21l6.59 6.59a.64.64 0 0 1 .19.52zm-23.25 2a38.2 38.2 0 0 0-2.83 5.64q-.46-.93-.76-1.5a13.6 13.6 0 0 0-.84-1.31 5.74 5.74 0 0 0-1.05-1.17 4.92 4.92 0 0 0-1.3-.72 4.64 4.64 0 0 0-1.68-.3h-4.63a.64.64 0 0 1-.66-.66v-4a.64.64 0 0 1 .66-.66h4.63a10 10 0 0 1 8.46 4.69zM50 42.27a.64.64 0 0 1-.19.48l-6.61 6.61a.64.64 0 0 1-.47.19.67.67 0 0 1-.66-.66v-4h-4.93c-.62 0-1.11-.05-1.47-.1l-1.32-.22a5.52 5.52 0 0 1-1.3-.38q-.52-.24-1.2-.59a5.89 5.89 0 0 1-1.22-.83q-.54-.47-1.14-1.1a12 12 0 0 1-1.16-1.43 41.6 41.6 0 0 0 2.81-5.64q.45.93.76 1.5a13.48 13.48 0 0 0 .84 1.31 5.8 5.8 0 0 0 1.05 1.17 4.89 4.89 0 0 0 1.3.72 4.64 4.64 0 0 0 1.68.3h5.29v-4a.64.64 0 0 1 .66-.66.78.78 0 0 1 .5.21l6.59 6.59a.64.64 0 0 1 .19.53z"/></symbol><symbol id="table" viewBox="0 0 64 64"><style>.st0{fill:#d0b152}.st1{fill:#f9c14f}.st2{fill:#fdd895}.st3{fill:#010101}.st4{fill:none}.st5{stroke:#000;stroke-width:4.8066;stroke-miterlimit:10}</style><path d="M53.3 46.6c0 2.3-1.8 4.1-4.1 4.1H14.7c-2.3 0-4.1-1.8-4.1-4.1V18.7c0-2.3 1.8-4.1 4.1-4.1h34.5c2.3 0 4.1 1.8 4.1 4.1v27.9zM23.8 22c0-.5-.4-.8-.8-.8h-8.2c-.5 0-.8.4-.8.8v4.9c0 .5.4.8.8.8H23c.5 0 .8-.4.8-.8V22zm0 9.9c0-.5-.4-.8-.8-.8h-8.2c-.5 0-.8.4-.8.8v4.9c0 .5.4.8.8.8H23c.5 0 .8-.4.8-.8v-4.9zm0 9.8c0-.5-.4-.8-.8-.8h-8.2c-.5 0-.8.4-.8.8v4.9c0 .5.4.8.8.8H23c.5 0 .8-.4.8-.8v-4.9zM36.9 22c0-.5-.4-.8-.8-.8h-8.2c-.5 0-.8.4-.8.8v4.9c0 .5.4.8.8.8h8.2c.5 0 .8-.4.8-.8V22zm0 9.9c0-.5-.4-.8-.8-.8h-8.2c-.5 0-.8.4-.8.8v4.9c0 .5.4.8.8.8h8.2c.5 0 .8-.4.8-.8v-4.9zm0 9.8c0-.5-.4-.8-.8-.8h-8.2c-.5 0-.8.4-.8.8v4.9c0 .5.4.8.8.8h8.2c.5 0 .8-.4.8-.8v-4.9zM50 22c0-.5-.4-.8-.8-.8H41c-.5 0-.8.4-.8.8v4.9c0 .5.4.8.8.8h8.2c.5 0 .8-.4.8-.8V22zm0 9.9c0-.5-.4-.8-.8-.8H41c-.5 0-.8.4-.8.8v4.9c0 .5.4.8.8.8h8.2c.5 0 .8-.4.8-.8v-4.9zm0 9.8c0-.5-.4-.8-.8-.8H41c-.5 0-.8.4-.8.8v4.9c0 .5.4.8.8.8h8.2c.5 0 .8-.4.8-.8v-4.9z"/></symbol><symbol viewBox="0 0 64 64" id="talk"><title>flat-icons-2</title><path class="eucls-1" d="M17.39 18.29a24.13 24.13 0 0 1 9.47-1.83 24.13 24.13 0 0 1 9.47 1.83 17 17 0 0 1 6.87 5 10.67 10.67 0 0 1 0 13.77 17 17 0 0 1-6.87 5 24.12 24.12 0 0 1-9.47 1.83 26.87 26.87 0 0 1-4.71-.43 22.5 22.5 0 0 1-7.45 3.43 22.41 22.41 0 0 1-2.3.43h-.09a.84.84 0 0 1-.55-.21.88.88 0 0 1-.31-.56.56.56 0 0 1 0-.17 1 1 0 0 1 0-.17.56.56 0 0 1 .05-.21l.07-.13.09-.15.11-.13.12-.13.11-.1q.13-.16.62-.67t.7-.79l.6-.78a6.81 6.81 0 0 0 .67-1q.28-.54.55-1.18a15.66 15.66 0 0 1-5.24-4.77 10.52 10.52 0 0 1-1.9-6 10.82 10.82 0 0 1 2.52-6.88 17 17 0 0 1 6.87-5zm17.13 3a20.86 20.86 0 0 0-7.66-1.39 20.86 20.86 0 0 0-7.66 1.39 14.35 14.35 0 0 0-5.67 3.78 7.61 7.61 0 0 0-2.1 5.12 7.29 7.29 0 0 0 1.42 4.23 12.31 12.31 0 0 0 4 3.54l2.6 1.5-.95 2.23q.91-.53 1.66-1l1.18-.83 1.42.27a23.08 23.08 0 0 0 4.1.38 20.85 20.85 0 0 0 7.66-1.39 14.34 14.34 0 0 0 5.67-3.78 7.27 7.27 0 0 0 0-10.23 14.35 14.35 0 0 0-5.67-3.83zm14.36 26.48q.27.64.55 1.18a6.76 6.76 0 0 0 .67 1l.6.78q.21.28.7.79t.6.69l.11.12.12.13.11.13.09.15.07.13a.58.58 0 0 1 .05.16 1.07 1.07 0 0 1 0 .17.55.55 0 0 1 0 .17 1 1 0 0 1-.35.59.81.81 0 0 1-.59.19 21.4 21.4 0 0 1-9.75-3.86 26.87 26.87 0 0 1-4.71.43A22.5 22.5 0 0 1 24.5 47.2q1.55.11 2.36.11a28.29 28.29 0 0 0 8.28-1.21 23.71 23.71 0 0 0 7.07-3.46A17.94 17.94 0 0 0 47.35 37a13.78 13.78 0 0 0 1.18-10.9A15.88 15.88 0 0 1 54 30.87 10.46 10.46 0 0 1 54.1 43a15.72 15.72 0 0 1-5.22 4.77z"/></symbol><symbol id="thumbs-up" viewBox="0 0 64 64"><style>.st0{fill:#d0b152}.st1{fill:#f9c14f}.st2{fill:#fdd895}.st3{fill:#010101}.st4{fill:none}.st5{stroke:#000;stroke-width:4.8066;stroke-miterlimit:10}</style><path d="M18.6 25.2h-8.5c-.9 0-1.6.7-1.6 1.6v19.3c0 .9.7 1.6 1.6 1.6h8.5c.9 0 1.6-.7 1.6-1.6V26.9c0-.9-.7-1.7-1.6-1.7zm-4.2 19.3c-1.2 0-2.1-1-2.1-2.1 0-1.2 1-2.1 2.1-2.1s2.1 1 2.1 2.1c0 1.2-1 2.1-2.1 2.1zM54.9 31.5c1.1-1.2 1.6-2.7 1.6-4.4 0-1.5-.6-2.8-1.7-4-1.1-1.1-2.5-1.7-4-1.7h-8.2c.1-.3.2-.5.2-.7l.3-.6c.1-.2.2-.4.3-.5.4-.7.6-1.2.8-1.6.2-.4.4-1 .6-1.8.2-.7.3-1.5.3-2.2v-1.1c0-.3-.1-.7-.1-1.3-.1-.6-.2-1.1-.4-1.5-.1-.4-.4-.8-.7-1.3-.3-.5-.7-.9-1.2-1.2-.4-.3-1-.6-1.7-.8-.7-.2-1.5-.3-2.4-.3-.5 0-1 .2-1.3.6-.4.4-.7.9-1 1.5-.3.6-.5 1.1-.6 1.5-.1.4-.2 1-.4 1.8s-.3 1.4-.4 1.8c-.1.4-.3.8-.5 1.4-.3.6-.6 1.1-.9 1.4-.6.6-1.6 1.8-3 3.5-1 1.3-2 2.4-3 3.5s-1.8 1.7-2.2 1.7c-.5 0-.9.2-1.3.6-.1.1-.2.2-.2.3-.2.3-.3.6-.3.9V46.2c0 .9.7 1.6 1.6 1.6h.5c.8.1 2.2.5 4.5 1.3l3.6 1.2c.9.3 2.1.5 3.6.8 1.5.3 3 .5 4.3.5H45.4c2.6 0 4.6-.8 5.8-2.3 1.1-1.3 1.6-3.1 1.4-5.3.8-.7 1.3-1.6 1.6-2.8.3-1.2.3-2.3 0-3.4.9-1.2 1.3-2.5 1.3-4-.2-.7-.3-1.4-.6-2.3z"/></symbol><symbol viewBox="0 0 64 64" id="ticket"><title>ticket</title><path class="ewcls-1" d="M53.59 29.62l-24.3 24.32a3.46 3.46 0 0 1-4.85 0l-3.37-3.37a5.14 5.14 0 0 0-3.64-8.79 5 5 0 0 0-3.64 1.5l-3.35-3.38a3.46 3.46 0 0 1 0-4.85l24.29-24.26a3.46 3.46 0 0 1 4.85 0l3.35 3.35a5.17 5.17 0 0 0 0 7.29 5.17 5.17 0 0 0 7.29 0l3.38 3.35a3.46 3.46 0 0 1 0 4.85zM29.78 46.68l16.55-16.56a1.68 1.68 0 0 0 0-2.41L36.63 18a1.75 1.75 0 0 0-2.41 0L17.67 34.57a1.68 1.68 0 0 0 0 2.41l9.7 9.7a1.75 1.75 0 0 0 2.41 0zm5.65-26.22l8.46 8.46-15.32 15.32-8.46-8.46z"/></symbol><symbol id="train" viewBox="0 0 64 64"><style>.st0{fill:#d0b152}.st1{fill:#f9c14f}.st2{fill:#fdd895}.st3{fill:#010101}.st4{fill:none}.st5{stroke:#000;stroke-width:4.8066;stroke-miterlimit:10}</style><path d="M52 13.1v23.5c0 4.5-5 8.2-11.3 8.4l5.6 5.3c.6.5.2 1.4-.6 1.4H18c-.8 0-1.1-.9-.6-1.4L23 45c-6.3-.2-11.3-3.8-11.3-8.4V13.1c0-4.6 5.3-8.4 11.7-8.4h16.8c6.5 0 11.8 3.7 11.8 8.4zm-5-1.7H16.8v13.4H47V11.4zM36.9 34.9c0-2.8-2.3-5-5-5s-5 2.3-5 5c0 2.8 2.3 5 5 5s5-2.2 5-5z"/></symbol><symbol viewBox="0 0 64 64" id="trashcan"><path d="M51.7 17h-9.1l-2.1-4.9c-.6-1.4-2.3-2.6-3.9-2.6h-9.4c-1.6 0-3.3 1.2-3.9 2.6L21.4 17h-9.1c-.5 0-.9.4-.9.9v1.9c0 .5.4.9.9.9h2.8v27.9c0 3.2 2.1 5.9 4.7 5.9h24.4c2.6 0 4.7-2.8 4.7-6V20.8h2.8c.5 0 .9-.4.9-.9V18c0-.6-.4-1-.9-1zm-24.8-3.4c.1-.1.3-.3.5-.3h9.3c.1 0 .4.2.5.3l1.4 3.4H25.4l1.5-3.4zm-.5 32.5c0 .5-.4.9-.9.9h-1.9c-.5 0-.9-.4-.9-.9V25.4c0-.5.4-.9.9-.9h1.9c.5 0 .9.4.9.9v20.7zm7.5 0c0 .5-.4.9-.9.9h-1.9c-.5 0-.9-.4-.9-.9V25.4c0-.5.4-.9.9-.9H33c.5 0 .9.4.9.9v20.7zm7.5 0c0 .5-.4.9-.9.9h-1.9c-.5 0-.9-.4-.9-.9V25.4c0-.5.4-.9.9-.9h1.9c.5 0 .9.4.9.9v20.7z"/></symbol><symbol viewBox="0 0 64 64" id="travel"><path d="M32 9.5C19.6 9.5 9.5 19.6 9.5 32S19.6 54.5 32 54.5 54.5 44.4 54.5 32 44.4 9.5 32 9.5zm12.1 35.6c-.7.6-.9 1.2-1.4 1.9-.7 1.2-6.8 6.5-8.7 4.4-1-1.1 1.7-2.9 1.9-4 .4-1.7 1.2-2-.3-3.4-1-1-1.5-1.3-1.9-2.7-.2-.8-1.4-2.8-.4-3.4.1-1.5-2.1-1.9-3.4-2.6-.8-.4-1.9-.2-2.8-.4-.4-.1-.7-.4-1.3-.5-.7-.2-1.7-.5-2.3-1-1-.8-1.7-2.4-2.5-3.4-1-1.3-1.6-3.3-1.7-4.8-.1-1.6 1.3-2.9.9-4.5-.3-1.3-1.4-2.9-.4-4.2.7-.9.7-1.2 1.8-1.2s2.1.2 3.2 0c1.6-.2 2.6-1 3.9-1.8 1.2-.7 2.5-.6 3.9-.5.8 0 1.7.2 2.2.8 1.9 2.4-2.1 1.4-3.3 1.9-2.7 1 2.7 5 4.8 4.7.4-1-.7-3.2.6-3.4 2.4-.6 1.8 1 2.4 1.5 1.2.8 2.2 1 3 2.2.9 1.3 2.1 3.5 0 4.1-1.2.4-2.7.2-3.8.7-1.1.5-1.3 1.7-2.2 2.4-.8.8-1.2.7-1.3 1.7 0 .4.3 1.7-.8 1.4-.8-.3-.5-1.1-1-1.5-.4-.3-1.2-.3-1.7-.3-.6 0-3.1.1-3.2.9-.1 1.8-.7 1.4 0 2.9 2.3.5 2.1-1.7 3.6-.5-.7 1.8-.2 1 .6 1.9.3.3.9.6 1.2 1 1.6 2 5.9-1.3 8.2.3.9.6 1.3 1.7 1.9 2.5.6.7 1.4 1.3 1.9 2.1 1.5 2 .1 3.5-1.6 4.8z"/></symbol><symbol viewBox="0 0 64 64" id="twitter"><path d="M59 14.5c-2 .9-4.1 1.5-6.4 1.7 2.3-1.4 4-3.5 4.9-6.1-2.1 1.3-4.5 2.2-7 2.7-2-2.2-4.9-3.5-8.1-3.5-6.1 0-11.1 5-11.1 11.1 0 .9.1 1.7.3 2.5-9.2-.5-17.4-4.9-22.8-11.6-1 1.6-1.5 3.5-1.5 5.6 0 3.8 2 7.2 4.9 9.2-1.8-.1-3.5-.6-5-1.4v.1c0 5.4 3.8 9.8 8.9 10.9-.9.3-1.9.4-2.9.4-.7 0-1.4-.1-2.1-.2 1.4 4.4 5.5 7.6 10.3 7.7-3.8 3-8.6 4.7-13.8 4.7-.9 0-1.8-.1-2.6-.2 4.9 3.1 10.7 5 17 5 20.4 0 31.5-16.9 31.5-31.5v-1.4c2.1-1.6 4-3.5 5.5-5.7z"/></symbol><symbol id="undo" viewBox="0 0 64 64"><style>.st0{fill:#d0b152}.st1{fill:#f9c14f}.st2{fill:#fdd895}.st3{fill:#010101}.st4{fill:none}.st5{stroke:#000;stroke-width:4.8066;stroke-miterlimit:10}</style><path d="M32.9 55.8c-7.3 0-14.3-3.2-19-8.9-.3-.4-.3-1 .1-1.4l4.4-4.4c.2-.2.5-.3.8-.3.3 0 .6.2.7.4 3.1 4.1 7.9 6.4 13 6.4 9 0 16.4-7.4 16.4-16.4s-7.4-16.4-16.4-16.4c-4.2 0-8.2 1.6-11.2 4.4l4.4 4.4c.6.6.8 1.5.4 2.2-.3.8-1.1 1.3-1.9 1.3H10.3c-1.1 0-2.1-.9-2.1-2.1V10.6c0-.8.5-1.6 1.3-1.9.7-.3 1.6-.2 2.2.4l4.2 4.1c4.5-4.3 10.7-6.8 17-6.8 13.6 0 24.6 11.1 24.6 24.6S46.4 55.8 32.9 55.8z"/></symbol><symbol viewBox="0 0 64 64" id="unlock"><path d="M50 35v18c0 1.7-1.3 3-3 3H17c-1.7 0-3-1.3-3-3V35c0-1.7 1.3-3 3-3h1V22c0-7.7 6.3-14 14-14s14 6.3 14 14c0 1.1-.9 2-2 2h-2c-1.1 0-2-.9-2-2 0-4.4-3.6-8-8-8s-8 3.6-8 8v10h23c1.7 0 3 1.3 3 3z"/></symbol><symbol id="upload" viewBox="0 0 64 64"><style>.st0{fill:#d0b152}.st1{fill:#f9c14f}.st2{fill:#fdd895}.st3{fill:#010101}.st4{fill:none}.st5{stroke:#000;stroke-width:4.8066;stroke-miterlimit:10}</style><path d="M54.7 49.1c0 1.5-1.2 2.6-2.6 2.6H11.5c-1.5 0-2.6-1.2-2.6-2.6v-8.8c0-1.5 1.2-2.6 2.6-2.6h11.8c.7 2 2.7 3.5 5 3.5h7.1c2.3 0 4.2-1.5 5-3.5H52c1.5 0 2.6 1.2 2.6 2.6v8.8zM44.1 23.5H37v12.3c0 1-.8 1.8-1.8 1.8h-7.1c-1 0-1.8-.8-1.8-1.8V23.5h-7.1c-.7 0-1.4-.4-1.6-1.1-.3-.6-.1-1.4.4-1.9L30.5 8.2c.3-.4.8-.5 1.2-.5.4 0 .9.2 1.2.5l12.3 12.3c.5.5.7 1.3.4 1.9-.2.7-.8 1.1-1.5 1.1zm-1.8 21.2c-1 0-1.8.8-1.8 1.8s.8 1.8 1.8 1.8 1.8-.8 1.8-1.8-.8-1.8-1.8-1.8zm7.1 0c-1 0-1.8.8-1.8 1.8s.8 1.8 1.8 1.8 1.8-.8 1.8-1.8-.8-1.8-1.8-1.8z"/></symbol><symbol id="user" viewBox="0 0 64 64"><style>.st0{fill:#f9c14f}.st1{fill:#fdd895}.st2{fill:#d0b152}</style><path d="M55 46.2c0-2.1-1.7-3.7-3.3-4.6-1.3-.7-8.4-4.9-12.7-6.7v-7.5c1.2-.9 2-2.3 2-4.4v-7.1C41 11 36.8 7 32 7c-5 0-9 4-9 8.9V23c0 2.1.8 3.5 2 4.4v7.5c-4.1 1.7-11.1 5.7-12.4 6.5-1.5.9-3.5 2.6-3.6 4.6v5.8c0 .6.5 1.1 1.2 1.1h43.7c.6 0 1.1-.5 1.1-1.1v-5.6z"/></symbol><symbol viewBox="0 0 64 64" id="user-group"><path d="M43.9 41.9c-1.3-.7-9.7-5.7-14-7.4V27c1.2-.9 2-2.3 2-4.4v-6c0-4.9-3-9-9-9s-9 4-9 9v6c0 2.1.8 3.6 2 4.5v7.5c-4.1 1.7-12.7 6.7-14 7.4-1.6.9-2 1.8-2 3.9v4.7c0 .5.5 1 1 1h43.9c.5 0 1-.4 1-1v-4.7c.1-2.2-.3-3.1-1.9-4zm18 3.7c-1.3-.7-6-3-10-4.7v-4c4-.2 6.7-2.3 7.8-3.5 1.2-1.2-1-2.4-2.7-4.4-1.7-2-2-3.7-2-7.6 0-3.7-3-7.8-7.9-7.9-4.9.1-7.9 4.2-7.9 7.9 0 4-.3 5.7-2 7.6-1.7 2-4 3.2-2.9 4.4.4.4.8.9 1.4 1.3.9.5 1.9 1 2.8 1.5.9.3 2 .6 3.2.7v.7c1 .5 1.8 1.1 2.6 1.5 2.8 1.6 3.4 3.2 3.4 5.8v6.6H63c.5 0 .9-.5.9-1v-2c0-1.4-.8-2.2-2-2.9z"/></symbol><symbol viewBox="0 0 64 64" id="video"><path d="M56 45.7c0 .7-.4 1.2-1 1.5-.2.1-.4.1-.6.1-.4 0-.8-.2-1.1-.5L43.1 36.7v4.2c0 4-3.2 7.2-7.2 7.2H18.2c-4 0-7.2-3.2-7.2-7.2V23.2c0-4 3.2-7.2 7.2-7.2h17.7c4 0 7.2 3.2 7.2 7.2v4.1l10.1-10.1c.3-.3.7-.5 1.1-.5.2 0 .4 0 .6.1.6.3 1 .8 1 1.5v27.4z"/></symbol><symbol id="walk" viewBox="0 0 64 64"><style>.st0{fill:#d0b152}.st1{fill:#f9c14f}.st2{fill:#fdd895}.fhst3{fill:#010101}.st4{fill:none}.st5{stroke:#000;stroke-width:4.8066;stroke-miterlimit:10}</style><circle class="fhst3" cx="34.9" cy="7.1" r="4.4"/><path class="fhst3" d="M50.7 28.4c0 1.2-1 2.2-2.2 2.2h-.3s-7.5-1.5-8.1-1.7c-.6-.1-1.2-.8-1.4-1.2-.2-.4-2-3.9-2-3.9l-1.4 6.7s6.3 6.7 6.5 6.9c.2.2 1 .7.9 3-.1 2.1 0 11.1 0 12.9V53.6c-.1 1.3-1.3 2.4-2.6 2.4-1.4 0-2.5-1-2.6-2.4V41.8L30.6 35s-1.2 7.1-1.3 7.7c-.1.6-.3 1-1 1.8-.6.8-7.2 8.5-8.6 10.1-.5.7-1.3 1.1-2.1 1.1-1.5 0-2.6-1.2-2.6-2.6 0-.8.3-1.4.8-1.9l7.2-8.6 2-11.7s2-9.8 2.2-10.3L25 21.7l-3.5 6.7c-.2 1-1.1 1.8-2.2 1.8-1.3 0-2.3-1-2.3-2.3 0-.5.2-1 .5-1.4l3.8-7.1s.5-.9 1-1.2c.5-.3 8.6-4.9 8.6-4.9s1.6-.8 3.3-.3c1.6.5 2.8 1.7 3.2 2.2.4.5 4.7 9.6 4.8 9.7.1.2-.2.1.1.2.3.1 5.2.9 6.4 1.2 1.2 0 2 .9 2 2.1z"/></symbol><symbol viewBox="0 0 64 64" id="x"><path d="M12.2 14l4.6-4.6 14.8 14.7L46.3 9.4 51 14 36.2 28.8 51 43.5l-4.7 4.7-14.8-14.8-14.7 14.8-4.5-4.7L27 28.8 12.2 14z"/></symbol><symbol viewBox="0 0 64 64" id="x-con"><path d="M53 18.6l-8.4-8.4L32 22.8 19.4 10.2 11 18.6l12.6 12.6L11 43.8l8.4 8.4L32 39.6l12.6 12.6 8.4-8.4-12.6-12.6z"/></symbol><symbol viewBox="0 0 64 64" id="zoom"><path d="M58 52.1c0 1.1-.4 2-1.2 2.8-.8.8-1.7 1.2-2.8 1.2-1.1 0-2-.4-2.8-1.2L40.8 44.4c-3.7 2.5-7.7 3.8-12.2 3.8-2.9 0-5.7-.6-8.4-1.7s-5-2.7-6.9-4.6C11.4 40 9.8 37.7 8.7 35 7.6 32.3 7 29.5 7 26.6c0-2.9.6-5.7 1.7-8.4s2.7-5 4.6-6.9c1.9-1.9 4.2-3.5 6.9-4.6C22.9 5.6 25.7 5 28.6 5s5.7.6 8.4 1.7 5 2.7 6.9 4.6 3.5 4.2 4.6 6.9c1.1 2.7 1.7 5.5 1.7 8.4 0 4.5-1.3 8.6-3.8 12.2l10.5 10.5c.7.8 1.1 1.7 1.1 2.8zM38.3 36.3c2.7-2.7 4-5.9 4-9.7 0-3.8-1.3-7-4-9.7-2.7-2.7-5.9-4-9.7-4-3.8 0-7 1.3-9.7 4-2.7 2.7-4 5.9-4 9.7 0 3.8 1.3 7 4 9.7 2.7 2.7 5.9 4 9.7 4 3.8 0 7-1.3 9.7-4zm.1-10.7v2c0 .3-.1.5-.3.7-.2.2-.4.3-.7.3h-6.9v6.9c0 .3-.1.5-.3.7-.2.2-.4.3-.7.3h-2c-.3 0-.5-.1-.7-.3-.2-.2-.3-.4-.3-.7v-6.9h-6.9c-.3 0-.5-.1-.7-.3-.2-.2-.3-.4-.3-.7v-2c0-.3.1-.5.3-.7.2-.2.4-.3.7-.3h6.9v-6.9c0-.3.1-.5.3-.7s.4-.3.7-.3h2c.3 0 .5.1.7.3.2.2.3.4.3.7v6.9h6.9c.3 0 .5.1.7.3.2.2.3.5.3.7z"/></symbol></svg>