<?xml version="1.0" encoding="UTF-8"?>
<!DOCTYPE svg PUBLIC "-//W3C//DTD SVG 1.1//EN" "http://www.w3.org/Graphics/SVG/1.1/DTD/svg11.dtd">
<!-- Creator: CorelDRAW X6 -->
<svg xmlns="http://www.w3.org/2000/svg" xml:space="preserve" width="10.7582mm" height="14.5887mm" version="1.1" style="shape-rendering:geometricPrecision; text-rendering:geometricPrecision; image-rendering:optimizeQuality; fill-rule:evenodd; clip-rule:evenodd"
viewBox="0 0 281 381"
 xmlns:xlink="http://www.w3.org/1999/xlink">
 <defs>
  <style type="text/css">
   <![CDATA[
    .fil0 {fill:#0ABBA4}
   ]]>
  </style>
 </defs>
 <g id="Layer_x0020_1">
  <metadata id="CorelCorpID_0Corel-Layer"/>
  <path class="fil0" d="M101 159l0 31c-1,39 -43,69 -61,101l66 2c0,33 -11,66 6,80 6,5 15,8 28,8 13,0 22,-2 28,-7 19,-14 11,-46 11,-81l62 -1c-21,-39 -50,-59 -57,-102 -1,-9 -2,-19 -1,-30l19 17 47 45c5,4 10,7 13,8 6,2 11,-1 14,-4 5,-5 9,-13 0,-23l-88 -98c-9,-10 -28,-5 -46,-5 -19,0 -38,-5 -47,5l-90 100c-5,6 -5,15 0,20 6,8 13,12 23,5 18,-12 52,-53 74,-72z"/>
  <circle class="fil0" cx="143" cy="48" r="48"/>
 </g>
</svg>
