<?xml version="1.0" encoding="utf-8"?>
<!-- Generator: Adobe Illustrator 17.0.0, SVG Export Plug-In . SVG Version: 6.00 Build 0)  -->
<!DOCTYPE svg PUBLIC "-//W3C//DTD SVG 1.1//EN" "http://www.w3.org/Graphics/SVG/1.1/DTD/svg11.dtd">
<svg version="1.1" id="Layer_1" xmlns="http://www.w3.org/2000/svg" xmlns:xlink="http://www.w3.org/1999/xlink" x="0px" y="0px"
	 width="150px" height="40px" viewBox="0 0 150 40" enable-background="new 0 0 150 40" xml:space="preserve">
<g>
	
		<linearGradient id="SVGID_1_" gradientUnits="userSpaceOnUse" x1="10.8823" y1="75.8516" x2="19.9689" y2="84.9382" gradientTransform="matrix(1 0 0 -1 0 86)">
		<stop  offset="0" style="stop-color:#A22633"/>
		<stop  offset="0.1" style="stop-color:#A22633"/>
		<stop  offset="0.15" style="stop-color:#A9283F"/>
		<stop  offset="0.23" style="stop-color:#B12A4D"/>
		<stop  offset="0.31" style="stop-color:#B92D5B"/>
		<stop  offset="0.4" style="stop-color:#BF2E65"/>
		<stop  offset="0.5" style="stop-color:#C42F6D"/>
		<stop  offset="0.6" style="stop-color:#C83274"/>
		<stop  offset="0.73" style="stop-color:#CC3378"/>
		<stop  offset="0.94" style="stop-color:#CD347A"/>
		<stop  offset="1" style="stop-color:#CD347A"/>
	</linearGradient>
	<path fill="url(#SVGID_1_)" d="M12.099,11.334c2.127-2.226,5.054-3.512,8.132-3.573V1.354C15.41,1.348,10.787,3.266,7.386,6.683
		l2.002,2.002l0.031-0.031L12.099,11.334z"/>
	
		<linearGradient id="SVGID_2_" gradientUnits="userSpaceOnUse" x1="10.8352" y1="55.8265" x2="3.2145" y2="67.1252" gradientTransform="matrix(1 0 0 -1 0 86)">
		<stop  offset="0" style="stop-color:#D35C32"/>
		<stop  offset="0.1" style="stop-color:#D35C32"/>
		<stop  offset="0.12" style="stop-color:#D56433"/>
		<stop  offset="0.22" style="stop-color:#DA7B37"/>
		<stop  offset="0.33" style="stop-color:#DF8D40"/>
		<stop  offset="0.45" style="stop-color:#E39D45"/>
		<stop  offset="0.58" style="stop-color:#E6A749"/>
		<stop  offset="0.74" style="stop-color:#E8AC4C"/>
		<stop  offset="0.99" style="stop-color:#E7AE4D"/>
		<stop  offset="1" style="stop-color:#E7AE4D"/>
	</linearGradient>
	<path fill="url(#SVGID_2_)" d="M4.984,19.528H2.273c-0.006,4.821,1.912,9.444,5.329,12.844l4.59-4.59
		c-2.171-2.187-3.389-5.143-3.388-8.224L4.984,19.528z"/>
	
		<linearGradient id="SVGID_3_" gradientUnits="userSpaceOnUse" x1="29.764" y1="57.0931" x2="20.6774" y2="48.0065" gradientTransform="matrix(1 0 0 -1 0 86)">
		<stop  offset="0" style="stop-color:#3C693D"/>
		<stop  offset="0.1" style="stop-color:#3C693D"/>
		<stop  offset="0.14" style="stop-color:#427141"/>
		<stop  offset="0.25" style="stop-color:#518648"/>
		<stop  offset="0.37" style="stop-color:#5D974D"/>
		<stop  offset="0.51" style="stop-color:#67A550"/>
		<stop  offset="0.67" style="stop-color:#6DAE52"/>
		<stop  offset="0.94" style="stop-color:#70B352"/>
		<stop  offset="1" style="stop-color:#70B352"/>
	</linearGradient>
	<path fill="url(#SVGID_3_)" d="M20.446,31.294v5.052h-0.062v1.355c4.821,0.006,9.444-1.912,12.844-5.329l-4.436-4.436
		c-2.198,2.15-5.15,3.355-8.224,3.357H20.446z"/>
	
		<linearGradient id="SVGID_4_" gradientUnits="userSpaceOnUse" x1="29.724" y1="76.138" x2="39.057" y2="66.805" gradientTransform="matrix(1 0 0 -1 0 86)">
		<stop  offset="0" style="stop-color:#334893"/>
		<stop  offset="0.1" style="stop-color:#334893"/>
		<stop  offset="0.17" style="stop-color:#37539C"/>
		<stop  offset="0.28" style="stop-color:#3D60A6"/>
		<stop  offset="0.39" style="stop-color:#426AAE"/>
		<stop  offset="0.53" style="stop-color:#4671B4"/>
		<stop  offset="0.68" style="stop-color:#4774B7"/>
		<stop  offset="0.94" style="stop-color:#4876B7"/>
		<stop  offset="1" style="stop-color:#4876B7"/>
	</linearGradient>
	<path fill="url(#SVGID_4_)" d="M28.732,11.026c2.275,2.197,3.574,5.215,3.604,8.378l3.45-0.062v0.154h2.926
		c-0.064-4.93-2.054-9.64-5.544-13.122l-1.14,1.17c0.031,0.031,0.062,0.031,0.062,0.062L28.732,11.026z"/>
	
		<linearGradient id="SVGID_5_" gradientUnits="userSpaceOnUse" x1="20.2492" y1="79.1166" x2="32.1389" y2="79.1166" gradientTransform="matrix(1 0 0 -1 0 86)">
		<stop  offset="0" style="stop-color:#2A2A5E"/>
		<stop  offset="0.1" style="stop-color:#2A2A5E"/>
		<stop  offset="0.14" style="stop-color:#382A65"/>
		<stop  offset="0.23" style="stop-color:#4D2D70"/>
		<stop  offset="0.33" style="stop-color:#5D2D77"/>
		<stop  offset="0.44" style="stop-color:#6A2C7E"/>
		<stop  offset="0.56" style="stop-color:#742D84"/>
		<stop  offset="0.7" style="stop-color:#7A2E87"/>
		<stop  offset="0.94" style="stop-color:#7D2E89"/>
		<stop  offset="1" style="stop-color:#7D2E89"/>
	</linearGradient>
	<path fill="url(#SVGID_5_)" d="M20.57,7.761c3.045,0.001,5.971,1.182,8.163,3.296l3.327-3.481C28.93,4.45,24.685,2.699,20.262,2.71
		v5.052H20.57z"/>
	
		<linearGradient id="SVGID_6_" gradientUnits="userSpaceOnUse" x1="30.3462" y1="76.7633" x2="39.6823" y2="67.4272" gradientTransform="matrix(1 0 0 -1 0 86)">
		<stop  offset="0" style="stop-color:#334893"/>
		<stop  offset="0.1" style="stop-color:#334893"/>
		<stop  offset="0.17" style="stop-color:#37539C"/>
		<stop  offset="0.28" style="stop-color:#3D60A6"/>
		<stop  offset="0.39" style="stop-color:#426AAE"/>
		<stop  offset="0.53" style="stop-color:#4671B4"/>
		<stop  offset="0.68" style="stop-color:#4774B7"/>
		<stop  offset="0.94" style="stop-color:#4876B7"/>
		<stop  offset="1" style="stop-color:#4876B7"/>
	</linearGradient>
	<path fill="url(#SVGID_6_)" d="M28.732,11.026l3.419-3.388C32.12,7.607,32.09,7.607,32.09,7.576L28.732,11.026z"/>
	
		<linearGradient id="SVGID_7_" gradientUnits="userSpaceOnUse" x1="20.2492" y1="76.6986" x2="32.1389" y2="76.6986" gradientTransform="matrix(1 0 0 -1 0 86)">
		<stop  offset="0" style="stop-color:#2A2A5E"/>
		<stop  offset="0.1" style="stop-color:#2A2A5E"/>
		<stop  offset="0.14" style="stop-color:#382A65"/>
		<stop  offset="0.23" style="stop-color:#4D2D70"/>
		<stop  offset="0.33" style="stop-color:#5D2D77"/>
		<stop  offset="0.44" style="stop-color:#6A2C7E"/>
		<stop  offset="0.56" style="stop-color:#742D84"/>
		<stop  offset="0.7" style="stop-color:#7A2E87"/>
		<stop  offset="0.94" style="stop-color:#7D2E89"/>
		<stop  offset="1" style="stop-color:#7D2E89"/>
	</linearGradient>
	<path fill="url(#SVGID_7_)" d="M28.732,11.026l3.419-3.388C32.12,7.607,32.09,7.607,32.09,7.576L28.732,11.026z"/>
	
		<linearGradient id="SVGID_8_" gradientUnits="userSpaceOnUse" x1="20.4341" y1="53.9359" x2="8.5444" y2="53.9359" gradientTransform="matrix(1 0 0 -1 0 86)">
		<stop  offset="0" style="stop-color:#DF9231"/>
		<stop  offset="0.1" style="stop-color:#DF9231"/>
		<stop  offset="0.19" style="stop-color:#E3A734"/>
		<stop  offset="0.3" style="stop-color:#E9BA34"/>
		<stop  offset="0.41" style="stop-color:#EFCA37"/>
		<stop  offset="0.54" style="stop-color:#F1D436"/>
		<stop  offset="0.69" style="stop-color:#F4DA35"/>
		<stop  offset="0.94" style="stop-color:#F4DC35"/>
		<stop  offset="1" style="stop-color:#F4DC35"/>
	</linearGradient>
	<path fill="url(#SVGID_8_)" d="M12.191,27.783l-3.635,3.635c3.14,3.136,7.39,4.907,11.828,4.928v-5.052
		C17.297,31.254,14.35,29.991,12.191,27.783z"/>
	
		<linearGradient id="SVGID_9_" gradientUnits="userSpaceOnUse" x1="27.537" y1="59.3016" x2="18.4566" y2="50.2211" gradientTransform="matrix(1 0 0 -1 0 86)">
		<stop  offset="0" style="stop-color:#3C693D"/>
		<stop  offset="0.1" style="stop-color:#3C693D"/>
		<stop  offset="0.14" style="stop-color:#427141"/>
		<stop  offset="0.25" style="stop-color:#518648"/>
		<stop  offset="0.37" style="stop-color:#5D974D"/>
		<stop  offset="0.51" style="stop-color:#67A550"/>
		<stop  offset="0.67" style="stop-color:#6DAE52"/>
		<stop  offset="0.94" style="stop-color:#70B352"/>
		<stop  offset="1" style="stop-color:#70B352"/>
	</linearGradient>
	<path fill="url(#SVGID_9_)" d="M20.446,31.294h-0.062v5.052h0.062V31.294z"/>
	
		<linearGradient id="SVGID_10_" gradientUnits="userSpaceOnUse" x1="20.4341" y1="52.1802" x2="8.5475" y2="52.1802" gradientTransform="matrix(1 0 0 -1 0 86)">
		<stop  offset="0" style="stop-color:#DF9231"/>
		<stop  offset="0.1" style="stop-color:#DF9231"/>
		<stop  offset="0.19" style="stop-color:#E3A734"/>
		<stop  offset="0.3" style="stop-color:#E9BA34"/>
		<stop  offset="0.41" style="stop-color:#EFCA37"/>
		<stop  offset="0.54" style="stop-color:#F1D436"/>
		<stop  offset="0.69" style="stop-color:#F4DA35"/>
		<stop  offset="0.94" style="stop-color:#F4DC35"/>
		<stop  offset="1" style="stop-color:#F4DC35"/>
	</linearGradient>
	<path fill="url(#SVGID_10_)" d="M20.446,31.294h-0.062v5.052h0.062V31.294z"/>
	
		<linearGradient id="SVGID_11_" gradientUnits="userSpaceOnUse" x1="32.3052" y1="66.6479" x2="32.3052" y2="55.4667" gradientTransform="matrix(1 0 0 -1 0 86)">
		<stop  offset="0" style="stop-color:#3D6C66"/>
		<stop  offset="0.1" style="stop-color:#3D6C66"/>
		<stop  offset="0.17" style="stop-color:#477B6B"/>
		<stop  offset="0.28" style="stop-color:#538D70"/>
		<stop  offset="0.4" style="stop-color:#5D9D72"/>
		<stop  offset="0.53" style="stop-color:#64A773"/>
		<stop  offset="0.68" style="stop-color:#69B076"/>
		<stop  offset="0.94" style="stop-color:#6BB477"/>
		<stop  offset="1" style="stop-color:#6BB477"/>
	</linearGradient>
	<path fill="url(#SVGID_11_)" d="M28.794,27.937l2.587,2.587c2.772-2.772,4.374-6.807,4.436-11.027h-3.481
		C32.35,22.674,31.071,25.721,28.794,27.937z"/>
	
		<linearGradient id="SVGID_12_" gradientUnits="userSpaceOnUse" x1="27.0965" y1="73.5137" x2="36.4296" y2="64.1807" gradientTransform="matrix(1 0 0 -1 0 86)">
		<stop  offset="0" style="stop-color:#334893"/>
		<stop  offset="0.1" style="stop-color:#334893"/>
		<stop  offset="0.17" style="stop-color:#37539C"/>
		<stop  offset="0.28" style="stop-color:#3D60A6"/>
		<stop  offset="0.39" style="stop-color:#426AAE"/>
		<stop  offset="0.53" style="stop-color:#4671B4"/>
		<stop  offset="0.68" style="stop-color:#4774B7"/>
		<stop  offset="0.94" style="stop-color:#4876B7"/>
		<stop  offset="1" style="stop-color:#4876B7"/>
	</linearGradient>
	<path fill="url(#SVGID_12_)" d="M32.336,19.404v0.123h3.45v-0.154L32.336,19.404z"/>
	
		<linearGradient id="SVGID_13_" gradientUnits="userSpaceOnUse" x1="34.0609" y1="66.6479" x2="34.0609" y2="55.4698" gradientTransform="matrix(1 0 0 -1 0 86)">
		<stop  offset="0" style="stop-color:#3D6C66"/>
		<stop  offset="0.1" style="stop-color:#3D6C66"/>
		<stop  offset="0.17" style="stop-color:#477B6B"/>
		<stop  offset="0.28" style="stop-color:#538D70"/>
		<stop  offset="0.4" style="stop-color:#5D9D72"/>
		<stop  offset="0.53" style="stop-color:#64A773"/>
		<stop  offset="0.68" style="stop-color:#69B076"/>
		<stop  offset="0.94" style="stop-color:#6BB477"/>
		<stop  offset="1" style="stop-color:#6BB477"/>
	</linearGradient>
	<path fill="url(#SVGID_13_)" d="M32.336,19.404v0.123h3.45v-0.154L32.336,19.404z"/>
	
		<linearGradient id="SVGID_14_" gradientUnits="userSpaceOnUse" x1="8.449" y1="66.4077" x2="8.449" y2="77.3486" gradientTransform="matrix(1 0 0 -1 0 86)">
		<stop  offset="0" style="stop-color:#A22633"/>
		<stop  offset="0.1" style="stop-color:#A22633"/>
		<stop  offset="0.13" style="stop-color:#A72D31"/>
		<stop  offset="0.27" style="stop-color:#B84130"/>
		<stop  offset="0.43" style="stop-color:#C55131"/>
		<stop  offset="0.62" style="stop-color:#D05930"/>
		<stop  offset="0.94" style="stop-color:#D35C32"/>
		<stop  offset="1" style="stop-color:#D35C32"/>
	</linearGradient>
	<path fill="url(#SVGID_14_)" d="M12.099,11.365l-2.68-2.68c-2.926,2.852-4.59,6.756-4.62,10.842h4.035
		C8.804,16.483,9.977,13.549,12.099,11.365z"/>
	
		<linearGradient id="SVGID_15_" gradientUnits="userSpaceOnUse" x1="10.7422" y1="75.9887" x2="19.8319" y2="85.0814" gradientTransform="matrix(1 0 0 -1 0 86)">
		<stop  offset="0" style="stop-color:#A22633"/>
		<stop  offset="0.1" style="stop-color:#A22633"/>
		<stop  offset="0.15" style="stop-color:#A9283F"/>
		<stop  offset="0.23" style="stop-color:#B12A4D"/>
		<stop  offset="0.31" style="stop-color:#B92D5B"/>
		<stop  offset="0.4" style="stop-color:#BF2E65"/>
		<stop  offset="0.5" style="stop-color:#C42F6D"/>
		<stop  offset="0.6" style="stop-color:#C83274"/>
		<stop  offset="0.73" style="stop-color:#CC3378"/>
		<stop  offset="0.94" style="stop-color:#CD347A"/>
		<stop  offset="1" style="stop-color:#CD347A"/>
	</linearGradient>
	<path fill="url(#SVGID_15_)" d="M12.099,11.334l-2.68-2.68L9.388,8.685L12.099,11.334z"/>
	
		<linearGradient id="SVGID_16_" gradientUnits="userSpaceOnUse" x1="10.7437" y1="66.4077" x2="10.7437" y2="77.3486" gradientTransform="matrix(1 0 0 -1 0 86)">
		<stop  offset="0" style="stop-color:#A22633"/>
		<stop  offset="0.1" style="stop-color:#A22633"/>
		<stop  offset="0.13" style="stop-color:#A72D31"/>
		<stop  offset="0.27" style="stop-color:#B84130"/>
		<stop  offset="0.43" style="stop-color:#C55131"/>
		<stop  offset="0.62" style="stop-color:#D05930"/>
		<stop  offset="0.94" style="stop-color:#D35C32"/>
		<stop  offset="1" style="stop-color:#D35C32"/>
	</linearGradient>
	<path fill="url(#SVGID_16_)" d="M12.099,11.334l-2.68-2.68L9.388,8.685L12.099,11.334z"/>
	<polygon fill="#FFFFFF" points="20.292,19.528 20.354,19.589 20.354,19.528 	"/>
	<polygon fill="#FFFFFF" points="20.385,19.558 20.446,19.528 20.354,19.528 	"/>
	<polygon fill="#FFFFFF" points="20.354,19.528 20.354,19.589 20.354,19.589 20.385,19.558 	"/>
	<polygon fill="#FFFFFF" points="28.732,11.026 28.732,11.026 28.701,11.057 	"/>
	<polygon fill="#FFFFFF" points="20.446,19.589 20.446,19.528 20.385,19.558 20.446,19.589 	"/>
	<polygon fill="#FFFFFF" points="20.262,19.528 20.292,19.528 20.262,19.497 	"/>
	
		<linearGradient id="SVGID_17_" gradientUnits="userSpaceOnUse" x1="17.7358" y1="69.0597" x2="21.5244" y2="72.8484" gradientTransform="matrix(1 0 0 -1 0 86)">
		<stop  offset="0" style="stop-color:#A22633"/>
		<stop  offset="0.1" style="stop-color:#A22633"/>
		<stop  offset="0.15" style="stop-color:#A9283F"/>
		<stop  offset="0.23" style="stop-color:#B12A4D"/>
		<stop  offset="0.31" style="stop-color:#B92D5B"/>
		<stop  offset="0.4" style="stop-color:#BF2E65"/>
		<stop  offset="0.5" style="stop-color:#C42F6D"/>
		<stop  offset="0.6" style="stop-color:#C83274"/>
		<stop  offset="0.73" style="stop-color:#CC3378"/>
		<stop  offset="0.94" style="stop-color:#CD347A"/>
		<stop  offset="1" style="stop-color:#CD347A"/>
	</linearGradient>
	<path fill="url(#SVGID_17_)" d="M20.416,19.62v-7.577c-2.008,0.007-3.934,0.803-5.36,2.218L20.416,19.62z"/>
	
		<linearGradient id="SVGID_18_" gradientUnits="userSpaceOnUse" x1="17.949" y1="62.9413" x2="14.6193" y2="67.882" gradientTransform="matrix(1 0 0 -1 0 86)">
		<stop  offset="0" style="stop-color:#D35C32"/>
		<stop  offset="0.1" style="stop-color:#D35C32"/>
		<stop  offset="0.12" style="stop-color:#D56433"/>
		<stop  offset="0.22" style="stop-color:#DA7B37"/>
		<stop  offset="0.33" style="stop-color:#DF8D40"/>
		<stop  offset="0.45" style="stop-color:#E39D45"/>
		<stop  offset="0.58" style="stop-color:#E6A749"/>
		<stop  offset="0.74" style="stop-color:#E8AC4C"/>
		<stop  offset="0.99" style="stop-color:#E7AE4D"/>
		<stop  offset="1" style="stop-color:#E7AE4D"/>
	</linearGradient>
	<path fill="url(#SVGID_18_)" d="M14.779,25.195l5.606-5.606h-7.916C12.479,21.688,13.308,23.699,14.779,25.195z"/>
	
		<linearGradient id="SVGID_19_" gradientUnits="userSpaceOnUse" x1="23.1724" y1="63.7464" x2="19.3098" y2="59.8838" gradientTransform="matrix(1 0 0 -1 0 86)">
		<stop  offset="0" style="stop-color:#3C693D"/>
		<stop  offset="0.1" style="stop-color:#3C693D"/>
		<stop  offset="0.14" style="stop-color:#427141"/>
		<stop  offset="0.25" style="stop-color:#518648"/>
		<stop  offset="0.37" style="stop-color:#5D974D"/>
		<stop  offset="0.51" style="stop-color:#67A550"/>
		<stop  offset="0.67" style="stop-color:#6DAE52"/>
		<stop  offset="0.94" style="stop-color:#70B352"/>
		<stop  offset="1" style="stop-color:#70B352"/>
	</linearGradient>
	<path fill="url(#SVGID_19_)" d="M20.446,19.528v7.701c2.044,0.004,4.005-0.805,5.452-2.249L20.446,19.528z"/>
	
		<linearGradient id="SVGID_20_" gradientUnits="userSpaceOnUse" x1="23.1138" y1="69.3493" x2="27.0935" y2="65.3696" gradientTransform="matrix(1 0 0 -1 0 86)">
		<stop  offset="0" style="stop-color:#334893"/>
		<stop  offset="0.1" style="stop-color:#334893"/>
		<stop  offset="0.17" style="stop-color:#37539C"/>
		<stop  offset="0.28" style="stop-color:#3D60A6"/>
		<stop  offset="0.39" style="stop-color:#426AAE"/>
		<stop  offset="0.53" style="stop-color:#4671B4"/>
		<stop  offset="0.68" style="stop-color:#4774B7"/>
		<stop  offset="0.94" style="stop-color:#4876B7"/>
		<stop  offset="1" style="stop-color:#4876B7"/>
	</linearGradient>
	<path fill="url(#SVGID_20_)" d="M20.446,19.528h7.762c-0.012-2.107-0.84-4.127-2.31-5.637L20.446,19.528z"/>
	
		<linearGradient id="SVGID_21_" gradientUnits="userSpaceOnUse" x1="20.4094" y1="70.0763" x2="25.5441" y2="70.0763" gradientTransform="matrix(1 0 0 -1 0 86)">
		<stop  offset="0" style="stop-color:#2A2A5E"/>
		<stop  offset="0.1" style="stop-color:#2A2A5E"/>
		<stop  offset="0.14" style="stop-color:#382A65"/>
		<stop  offset="0.23" style="stop-color:#4D2D70"/>
		<stop  offset="0.33" style="stop-color:#5D2D77"/>
		<stop  offset="0.44" style="stop-color:#6A2C7E"/>
		<stop  offset="0.56" style="stop-color:#742D84"/>
		<stop  offset="0.7" style="stop-color:#7A2E87"/>
		<stop  offset="0.94" style="stop-color:#7D2E89"/>
		<stop  offset="1" style="stop-color:#7D2E89"/>
	</linearGradient>
	<path fill="url(#SVGID_21_)" d="M25.529,14.353c-1.386-1.32-3.23-2.049-5.144-2.033v7.208L25.529,14.353z"/>
	
		<linearGradient id="SVGID_22_" gradientUnits="userSpaceOnUse" x1="20.4094" y1="63.0071" x2="15.5427" y2="63.0071" gradientTransform="matrix(1 0 0 -1 0 86)">
		<stop  offset="0" style="stop-color:#DF9231"/>
		<stop  offset="0.1" style="stop-color:#DF9231"/>
		<stop  offset="0.19" style="stop-color:#E3A734"/>
		<stop  offset="0.3" style="stop-color:#E9BA34"/>
		<stop  offset="0.41" style="stop-color:#EFCA37"/>
		<stop  offset="0.54" style="stop-color:#F1D436"/>
		<stop  offset="0.69" style="stop-color:#F4DA35"/>
		<stop  offset="0.94" style="stop-color:#F4DC35"/>
		<stop  offset="1" style="stop-color:#F4DC35"/>
	</linearGradient>
	<path fill="url(#SVGID_22_)" d="M15.549,24.425c1.292,1.287,3.043,2.008,4.867,2.002v-6.869L15.549,24.425z"/>
	
		<linearGradient id="SVGID_23_" gradientUnits="userSpaceOnUse" x1="23.542" y1="66.4847" x2="23.542" y2="62.1416" gradientTransform="matrix(1 0 0 -1 0 86)">
		<stop  offset="0" style="stop-color:#3D6C66"/>
		<stop  offset="0.1" style="stop-color:#3D6C66"/>
		<stop  offset="0.17" style="stop-color:#477B6B"/>
		<stop  offset="0.28" style="stop-color:#538D70"/>
		<stop  offset="0.4" style="stop-color:#5D9D72"/>
		<stop  offset="0.53" style="stop-color:#64A773"/>
		<stop  offset="0.68" style="stop-color:#69B076"/>
		<stop  offset="0.94" style="stop-color:#6BB477"/>
		<stop  offset="1" style="stop-color:#6BB477"/>
	</linearGradient>
	<path fill="url(#SVGID_23_)" d="M24.82,23.871c1.149-1.153,1.792-2.715,1.787-4.343h-6.13L24.82,23.871z"/>
	
		<linearGradient id="SVGID_24_" gradientUnits="userSpaceOnUse" x1="17.1968" y1="66.4631" x2="17.1968" y2="70.8894" gradientTransform="matrix(1 0 0 -1 0 86)">
		<stop  offset="0" style="stop-color:#A22633"/>
		<stop  offset="0.1" style="stop-color:#A22633"/>
		<stop  offset="0.13" style="stop-color:#A72D31"/>
		<stop  offset="0.27" style="stop-color:#B84130"/>
		<stop  offset="0.43" style="stop-color:#C55131"/>
		<stop  offset="0.62" style="stop-color:#D05930"/>
		<stop  offset="0.94" style="stop-color:#D35C32"/>
		<stop  offset="1" style="stop-color:#D35C32"/>
	</linearGradient>
	<path fill="url(#SVGID_24_)" d="M15.918,15.123c-1.181,1.174-1.846,2.77-1.848,4.436h6.253L15.918,15.123z"/>
</g>
<path fill="#010302" d="M142.63,2.029c0.911,0.904,0.917,2.375,0.013,3.285s-2.375,0.917-3.285,0.013
	c-0.911-0.904-0.917-2.375-0.013-3.285c0.436-0.44,1.03-0.687,1.649-0.687C141.609,1.344,142.201,1.588,142.63,2.029z
	 M142.437,5.109c0.769-0.809,0.769-2.079,0-2.888c-0.377-0.393-0.899-0.613-1.444-0.61c-0.547-0.018-1.075,0.205-1.444,0.61
	c-0.383,0.381-0.592,0.904-0.578,1.444c-0.009,0.539,0.199,1.06,0.578,1.444c0.377,0.393,0.899,0.613,1.444,0.61
	C141.541,5.737,142.069,5.514,142.437,5.109z M142.117,3.216c0.037,0.357-0.196,0.687-0.546,0.77l0.674,0.898h-0.546l-0.61-0.834
	h-0.546v0.834h-0.449V2.382h0.931c0.281-0.026,0.563,0.042,0.802,0.193C142.034,2.719,142.145,2.965,142.117,3.216z M141.571,3.569
	c0.171-0.204,0.171-0.502,0-0.706c-0.148-0.076-0.315-0.109-0.481-0.096h-0.546v0.898h0.513
	C141.234,3.714,141.424,3.679,141.571,3.569z"/>
<g enable-background="new    ">
	<path fill="#010302" d="M42.388,18.877l1.391-0.772c0.979,1.668,2.109,2.502,3.392,2.502c0.549,0,1.064-0.118,1.546-0.355
		c0.482-0.236,0.849-0.554,1.101-0.952s0.378-0.821,0.378-1.267c0-0.508-0.185-1.006-0.556-1.493
		c-0.511-0.673-1.446-1.483-2.803-2.431c-1.364-0.954-2.213-1.645-2.547-2.07c-0.578-0.714-0.867-1.486-0.867-2.317
		c0-0.659,0.17-1.26,0.511-1.803c0.341-0.542,0.821-0.97,1.44-1.282c0.619-0.312,1.292-0.468,2.019-0.468
		c0.771,0,1.492,0.177,2.164,0.53c0.671,0.354,1.381,1.004,2.13,1.952l-1.335,0.937c-0.615-0.755-1.14-1.253-1.574-1.493
		s-0.906-0.36-1.418-0.36c-0.66,0-1.2,0.185-1.619,0.556c-0.419,0.371-0.628,0.827-0.628,1.37c0,0.33,0.074,0.649,0.223,0.958
		c0.148,0.309,0.419,0.645,0.812,1.009c0.215,0.192,0.919,0.697,2.113,1.514c1.416,0.968,2.388,1.83,2.914,2.585
		c0.526,0.755,0.79,1.514,0.79,2.276c0,1.099-0.45,2.053-1.351,2.863c-0.901,0.81-1.997,1.215-3.287,1.215
		c-0.994,0-1.895-0.245-2.703-0.736C43.815,20.854,43.07,20.031,42.388,18.877z"/>
	<path fill="#010302" d="M53.8,8.032V6.549h8.965v1.483h-3.648v13.667h-1.668V8.032H53.8z"/>
	<path fill="#010302" d="M65.178,6.549h1.635v9.146c0,1.085,0.022,1.761,0.067,2.029c0.082,0.598,0.271,1.097,0.567,1.499
		c0.296,0.401,0.752,0.738,1.368,1.009c0.616,0.271,1.235,0.407,1.858,0.407c0.541,0,1.06-0.106,1.557-0.319
		c0.497-0.213,0.912-0.508,1.246-0.886c0.334-0.378,0.579-0.834,0.734-1.37c0.111-0.384,0.167-1.174,0.167-2.369V6.549h1.636v9.146
		c0,1.353-0.144,2.446-0.429,3.281c-0.286,0.834-0.856,1.56-1.713,2.178s-1.893,0.927-3.109,0.927c-1.32,0-2.451-0.292-3.393-0.875
		c-0.942-0.584-1.572-1.356-1.891-2.317c-0.2-0.59-0.301-1.655-0.301-3.193V6.549z"/>
	<path fill="#010302" d="M80.04,21.699V6.549h3.393c2.446,0,4.223,0.182,5.327,0.546c1.587,0.515,2.827,1.408,3.721,2.678
		c0.894,1.271,1.341,2.784,1.341,4.542c0,1.518-0.354,2.853-1.063,4.006c-0.708,1.153-1.628,2.005-2.759,2.554
		c-1.131,0.55-2.716,0.824-4.755,0.824H80.04z M81.608,20.268h1.891c2.262,0,3.83-0.13,4.705-0.391
		c1.23-0.371,2.198-1.038,2.903-2.002c0.704-0.964,1.057-2.142,1.057-3.535c0-1.461-0.382-2.709-1.146-3.746
		c-0.765-1.036-1.828-1.746-3.192-2.13c-1.023-0.288-2.711-0.433-5.062-0.433h-1.156V20.268z"/>
	<path fill="#010302" d="M95.701,6.549h1.881l4.187,6.248l4.121-6.248h1.891l-5.184,7.91v7.24h-1.612v-7.24L95.701,6.549z"/>
	<path fill="#010302" d="M110.46,6.549h3.26c1.868,0,3.129,0.076,3.781,0.227c0.935,0.213,1.698,0.651,2.292,1.313
		c0.593,0.663,0.89,1.495,0.89,2.498c0,1.009-0.289,1.842-0.868,2.498c-0.578,0.656-1.375,1.097-2.392,1.324
		c-0.741,0.165-2.128,0.247-4.159,0.247h-1.168v7.044h-1.636V6.549z M112.096,8.032v5.139l2.77,0.031
		c1.119,0,1.938-0.094,2.458-0.283c0.519-0.188,0.927-0.493,1.224-0.915c0.296-0.421,0.444-0.892,0.444-1.413
		c0-0.507-0.148-0.971-0.444-1.393c-0.297-0.421-0.688-0.721-1.174-0.899s-1.281-0.268-2.386-0.268H112.096z"/>
	<path fill="#010302" d="M123.72,6.549h1.635v15.15h-1.635V6.549z"/>
	<path fill="#010302" d="M129.113,6.549h9.377v1.483h-7.742v4.748h7.676v1.483h-7.676v5.953h7.676v1.483h-9.311V6.549z"/>
</g>
<path fill="#5863AA" d="M46.661,25.195c0.647,0,1.171,0.237,1.571,0.71c0.399,0.474,0.6,1.096,0.6,1.866
	c0,1.066-0.292,1.953-0.875,2.66c-0.583,0.708-1.279,1.062-2.087,1.062c-0.639,0-1.163-0.241-1.573-0.726
	c-0.41-0.482-0.615-1.104-0.615-1.863c0-0.945,0.279-1.801,0.837-2.563C45.077,25.577,45.791,25.195,46.661,25.195z M45.887,30.755
	c0.568,0,1.063-0.306,1.483-0.916c0.42-0.611,0.63-1.349,0.63-2.213c0-0.527-0.122-0.941-0.365-1.241
	c-0.243-0.301-0.571-0.451-0.984-0.451c-0.633,0-1.148,0.316-1.545,0.947c-0.397,0.632-0.595,1.345-0.595,2.139
	c0,0.535,0.125,0.959,0.374,1.27S45.468,30.755,45.887,30.755z"/>
<path fill="#5863AA" d="M50.548,27.371l-0.103,0.715l0.021,0.015c0.431-0.527,0.877-0.791,1.34-0.791
	c0.313,0,0.557,0.115,0.729,0.345c0.173,0.23,0.259,0.527,0.259,0.891c0,0.103-0.009,0.209-0.026,0.32l-0.388,2.549h-0.755
	l0.369-2.575c0.015-0.091,0.022-0.174,0.022-0.251c0-0.211-0.044-0.371-0.132-0.482c-0.088-0.111-0.198-0.168-0.331-0.168
	c-0.076,0-0.162,0.02-0.258,0.058c-0.095,0.038-0.197,0.097-0.306,0.176c-0.108,0.079-0.243,0.199-0.403,0.36
	c-0.16,0.16-0.243,0.264-0.25,0.308l-0.37,2.575h-0.754l0.567-4.043H50.548z"/>
<path fill="#5863AA" d="M56.483,30.359l-0.11,0.729c-0.41,0.302-0.86,0.452-1.349,0.452c-0.51,0-0.919-0.178-1.228-0.533
	c-0.31-0.356-0.464-0.83-0.464-1.422c0-0.659,0.185-1.214,0.556-1.663c0.371-0.45,0.824-0.675,1.36-0.675
	c0.41,0,0.751,0.157,1.024,0.473c0.272,0.314,0.409,0.722,0.409,1.219c0,0.123-0.009,0.25-0.026,0.379h-2.522
	c-0.023,0.135-0.035,0.264-0.035,0.387c0,0.372,0.102,0.665,0.306,0.881c0.203,0.215,0.459,0.322,0.767,0.322
	C55.544,30.908,55.982,30.726,56.483,30.359z M54.25,28.786h1.693c0-0.281-0.064-0.503-0.191-0.666
	c-0.127-0.162-0.307-0.243-0.539-0.243C54.773,27.877,54.452,28.18,54.25,28.786z"/>
<path fill="#5863AA" d="M61.98,27.67v0.8c-0.466-0.354-0.872-0.532-1.217-0.532c-0.155,0-0.286,0.042-0.391,0.126
	c-0.105,0.083-0.158,0.184-0.158,0.301c0,0.076,0.033,0.157,0.099,0.244c0.066,0.086,0.274,0.247,0.624,0.481
	s0.586,0.449,0.708,0.646c0.121,0.196,0.182,0.396,0.182,0.598c0,0.354-0.118,0.645-0.354,0.87s-0.535,0.338-0.898,0.338
	c-0.448,0-0.916-0.177-1.402-0.531l0.132-0.738c0.504,0.401,0.918,0.602,1.244,0.602c0.152,0,0.277-0.042,0.376-0.127
	c0.098-0.085,0.147-0.192,0.147-0.321c0-0.097-0.036-0.195-0.107-0.297c-0.072-0.101-0.28-0.271-0.626-0.512
	s-0.574-0.454-0.686-0.642c-0.111-0.188-0.167-0.376-0.167-0.566c0-0.349,0.116-0.629,0.347-0.842
	c0.231-0.212,0.539-0.318,0.923-0.318C61.159,27.248,61.567,27.389,61.98,27.67z"/>
<path fill="#5863AA" d="M64.644,27.371l-0.083,0.598h-0.804l-0.393,2.21c-0.021,0.111-0.031,0.205-0.031,0.281
	c0,0.265,0.142,0.396,0.427,0.396c0.211,0,0.458-0.08,0.739-0.241l-0.044,0.747c-0.281,0.12-0.561,0.18-0.839,0.18
	c-0.331,0-0.593-0.084-0.784-0.252c-0.192-0.169-0.288-0.391-0.288-0.666c0-0.067,0.006-0.137,0.019-0.207l0.425-2.447h-0.712
	l0.093-0.598h0.739l0.148-0.826h0.754l-0.147,0.826H64.644z"/>
<path fill="#5863AA" d="M66.683,27.248c0.454,0,0.818,0.16,1.092,0.481c0.274,0.32,0.411,0.748,0.411,1.28
	c0,0.738-0.185,1.346-0.554,1.82s-0.823,0.711-1.362,0.711c-0.475,0-0.847-0.159-1.116-0.479S64.75,30.3,64.75,29.73
	c0-0.705,0.186-1.296,0.558-1.771S66.138,27.248,66.683,27.248z M66.683,27.85c-0.313,0-0.584,0.194-0.811,0.583
	c-0.228,0.388-0.341,0.848-0.341,1.378c0,0.316,0.068,0.574,0.204,0.773c0.137,0.199,0.306,0.299,0.508,0.299
	c0.319,0,0.592-0.182,0.819-0.545s0.341-0.82,0.341-1.371c0-0.34-0.066-0.611-0.198-0.813S66.9,27.85,66.683,27.85z"/>
<path fill="#5863AA" d="M70.158,26.348l-0.145,1.023c0.205-0.082,0.434-0.123,0.686-0.123c0.475,0,0.873,0.179,1.194,0.536
	c0.321,0.357,0.481,0.806,0.481,1.345c0,0.642-0.218,1.204-0.653,1.688c-0.436,0.483-1.031,0.725-1.787,0.725h-0.506l-0.268,1.943
	h-0.763l0.716-5.111c-0.164,0.117-0.313,0.27-0.446,0.457s-0.208,0.281-0.226,0.281c-0.023,0-0.035-0.019-0.035-0.057
	c0-0.135,0.077-0.329,0.231-0.583c0.153-0.253,0.337-0.466,0.551-0.64l0.207-1.484H70.158z M69.934,27.937l-0.413,2.953h0.37
	c0.519,0,0.932-0.175,1.24-0.524c0.308-0.351,0.462-0.763,0.462-1.237c0-0.41-0.108-0.73-0.326-0.96
	c-0.217-0.23-0.493-0.345-0.827-0.345C70.261,27.824,70.092,27.862,69.934,27.937z"/>
<path fill="#5863AA" d="M76.71,26.348l-0.145,1.023c0.205-0.082,0.434-0.123,0.686-0.123c0.475,0,0.873,0.179,1.193,0.536
	c0.322,0.357,0.482,0.806,0.482,1.345c0,0.642-0.219,1.204-0.654,1.688c-0.434,0.483-1.029,0.725-1.787,0.725h-0.503l-0.27,1.943
	H74.95l0.716-5.111c-0.164,0.117-0.313,0.27-0.445,0.457c-0.134,0.188-0.209,0.281-0.227,0.281c-0.023,0-0.035-0.019-0.035-0.057
	c0-0.135,0.076-0.329,0.23-0.583c0.154-0.253,0.338-0.466,0.552-0.64l0.206-1.484H76.71z M76.485,27.937l-0.412,2.953h0.369
	c0.52,0,0.932-0.175,1.24-0.524c0.307-0.351,0.461-0.763,0.461-1.237c0-0.41-0.107-0.73-0.324-0.96
	c-0.217-0.23-0.494-0.345-0.828-0.345C76.813,27.824,76.644,27.862,76.485,27.937z"/>
<path fill="#5863AA" d="M81.321,27.248c0.454,0,0.818,0.16,1.092,0.481c0.274,0.32,0.411,0.748,0.411,1.28
	c0,0.738-0.185,1.346-0.554,1.82s-0.823,0.711-1.362,0.711c-0.475,0-0.847-0.159-1.116-0.479s-0.404-0.763-0.404-1.332
	c0-0.705,0.186-1.296,0.558-1.771S80.776,27.248,81.321,27.248z M81.321,27.85c-0.313,0-0.584,0.194-0.811,0.583
	c-0.228,0.388-0.341,0.848-0.341,1.378c0,0.316,0.068,0.574,0.204,0.773c0.137,0.199,0.306,0.299,0.508,0.299
	c0.319,0,0.593-0.182,0.819-0.545c0.228-0.363,0.341-0.82,0.341-1.371c0-0.34-0.065-0.611-0.198-0.813
	C81.713,27.951,81.538,27.85,81.321,27.85z"/>
<path fill="#5863AA" d="M84.581,27.371l-0.118,0.77l0.018,0.018c0.24-0.344,0.431-0.57,0.571-0.682s0.308-0.167,0.502-0.167
	c0.12,0,0.231,0.021,0.334,0.062v0.865c-0.161-0.09-0.318-0.136-0.471-0.136c-0.149,0-0.283,0.037-0.4,0.112
	c-0.117,0.074-0.26,0.234-0.427,0.479c-0.167,0.245-0.253,0.394-0.259,0.446l-0.316,2.276h-0.764l0.566-4.043H84.581z"/>
<path fill="#5863AA" d="M88.48,27.371l-0.083,0.598h-0.805l-0.393,2.21c-0.021,0.111-0.03,0.205-0.03,0.281
	c0,0.265,0.142,0.396,0.427,0.396c0.211,0,0.457-0.08,0.739-0.241l-0.045,0.747c-0.281,0.12-0.561,0.18-0.839,0.18
	c-0.331,0-0.593-0.084-0.784-0.252c-0.192-0.169-0.288-0.391-0.288-0.666c0-0.067,0.006-0.137,0.019-0.207l0.425-2.447h-0.712
	l0.094-0.598h0.739l0.147-0.826h0.755l-0.147,0.826H88.48z"/>
<path fill="#5863AA" d="M92.273,27.371l-0.568,4.043h-0.764l0.075-0.466l-0.02-0.022c-0.354,0.378-0.717,0.567-1.089,0.567
	c-0.369,0-0.684-0.156-0.942-0.468c-0.259-0.313-0.389-0.689-0.389-1.132c0-0.768,0.241-1.4,0.723-1.898
	c0.482-0.498,1.155-0.747,2.02-0.747C91.672,27.248,91.989,27.289,92.273,27.371z M91.107,30.245l0.331-2.333
	c-0.083-0.006-0.162-0.01-0.238-0.01c-0.601,0-1.058,0.191-1.371,0.574c-0.313,0.382-0.47,0.81-0.47,1.281
	c0,0.324,0.075,0.591,0.227,0.797c0.151,0.207,0.343,0.311,0.574,0.311c0.186,0,0.388-0.092,0.608-0.275
	C90.988,30.407,91.102,30.292,91.107,30.245z"/>
<path fill="#5863AA" d="M94.141,25.275l-0.866,6.139h-0.763l0.865-6.139H94.141z"/>
<path fill="#5863AA" d="M93.602,32.711l0.053-0.396c0.395-0.129,0.593-0.387,0.593-0.773c-0.234-0.105-0.352-0.259-0.352-0.461
	c0-0.155,0.054-0.282,0.16-0.383c0.107-0.099,0.242-0.148,0.407-0.148c0.16,0,0.295,0.067,0.404,0.204
	c0.107,0.136,0.162,0.306,0.162,0.507c0,0.331-0.127,0.63-0.383,0.896C94.393,32.423,94.043,32.607,93.602,32.711z"/>
<path fill="#5863AA" d="M101.141,25.275l-0.864,6.139c-0.296,0.085-0.64,0.127-1.032,0.127c-0.683,0-1.208-0.162-1.576-0.487
	c-0.367-0.325-0.551-0.786-0.551-1.384c0-0.586,0.238-1.137,0.718-1.65c0.479-0.515,1.127-0.771,1.946-0.771h0.321l0.274-1.973
	H101.141z M99.596,30.891l0.418-3.006h-0.198c-0.572,0-1.034,0.174-1.386,0.521c-0.351,0.347-0.526,0.762-0.526,1.246
	c0,0.401,0.115,0.711,0.347,0.929c0.231,0.219,0.563,0.327,0.994,0.327C99.398,30.908,99.516,30.903,99.596,30.891z"/>
<path fill="#5863AA" d="M103.142,27.248c0.454,0,0.818,0.16,1.092,0.481c0.274,0.32,0.411,0.748,0.411,1.28
	c0,0.738-0.185,1.346-0.554,1.82s-0.823,0.711-1.362,0.711c-0.475,0-0.847-0.159-1.116-0.479s-0.404-0.763-0.404-1.332
	c0-0.705,0.186-1.296,0.558-1.771S102.597,27.248,103.142,27.248z M103.142,27.85c-0.313,0-0.584,0.194-0.811,0.583
	c-0.228,0.388-0.341,0.848-0.341,1.378c0,0.316,0.068,0.574,0.204,0.773c0.137,0.199,0.306,0.299,0.508,0.299
	c0.319,0,0.593-0.182,0.819-0.545c0.228-0.363,0.341-0.82,0.341-1.371c0-0.34-0.065-0.611-0.198-0.813
	C103.533,27.951,103.358,27.85,103.142,27.85z"/>
<path fill="#5863AA" d="M108.595,27.371l-0.567,4.043h-0.763l0.566-4.043H108.595z M107.915,26.105c0-0.123,0.043-0.228,0.129-0.314
	c0.087-0.086,0.189-0.129,0.311-0.129c0.119,0,0.223,0.043,0.31,0.129c0.086,0.087,0.13,0.191,0.13,0.314
	c0,0.12-0.044,0.224-0.13,0.31c-0.087,0.087-0.19,0.13-0.31,0.13c-0.121,0-0.224-0.043-0.311-0.13
	C107.958,26.329,107.915,26.226,107.915,26.105z"/>
<path fill="#5863AA" d="M111.136,27.371l-0.083,0.598h-0.805l-0.393,2.21c-0.021,0.111-0.03,0.205-0.03,0.281
	c0,0.265,0.142,0.396,0.427,0.396c0.211,0,0.457-0.08,0.739-0.241l-0.045,0.747c-0.281,0.12-0.561,0.18-0.839,0.18
	c-0.331,0-0.593-0.084-0.784-0.252c-0.192-0.169-0.288-0.391-0.288-0.666c0-0.067,0.006-0.137,0.019-0.207l0.425-2.447h-0.712
	l0.094-0.598h0.739l0.147-0.826h0.755l-0.147,0.826H111.136z"/>
<path fill="#5863AA" d="M116.841,27.371l-2.901,6.113h-0.813l1.104-2.327l-0.787-3.786h0.763l0.562,2.781l1.274-2.781H116.841z"/>
<path fill="#5863AA" d="M118.69,27.248c0.454,0,0.818,0.16,1.092,0.481c0.274,0.32,0.411,0.748,0.411,1.28
	c0,0.738-0.185,1.346-0.554,1.82s-0.823,0.711-1.362,0.711c-0.475,0-0.847-0.159-1.116-0.479s-0.404-0.763-0.404-1.332
	c0-0.705,0.186-1.296,0.558-1.771S118.146,27.248,118.69,27.248z M118.69,27.85c-0.313,0-0.584,0.194-0.811,0.583
	c-0.228,0.388-0.341,0.848-0.341,1.378c0,0.316,0.068,0.574,0.204,0.773c0.137,0.199,0.306,0.299,0.508,0.299
	c0.319,0,0.593-0.182,0.819-0.545c0.228-0.363,0.341-0.82,0.341-1.371c0-0.34-0.065-0.611-0.198-0.813
	C119.082,27.951,118.907,27.85,118.69,27.85z"/>
<path fill="#5863AA" d="M124.231,27.371l-0.576,4.043h-0.754l0.07-0.686c-0.467,0.498-0.91,0.747-1.332,0.747
	c-0.272,0-0.503-0.098-0.692-0.292c-0.188-0.195-0.283-0.473-0.283-0.833c0-0.103,0.007-0.206,0.022-0.312l0.377-2.668h0.764
	l-0.377,2.667c-0.012,0.088-0.018,0.17-0.018,0.246c0,0.405,0.149,0.606,0.448,0.606c0.313,0,0.72-0.297,1.218-0.892l0.369-2.628
	H124.231z"/>
<path fill="#5863AA" d="M125.993,27.371l-0.118,0.77l0.018,0.018c0.24-0.344,0.431-0.57,0.571-0.682s0.308-0.167,0.502-0.167
	c0.12,0,0.231,0.021,0.334,0.062v0.865c-0.161-0.09-0.318-0.136-0.471-0.136c-0.149,0-0.283,0.037-0.4,0.112
	c-0.117,0.074-0.26,0.234-0.427,0.479c-0.167,0.245-0.253,0.394-0.259,0.446l-0.316,2.276h-0.764l0.566-4.043H125.993z"/>
<path fill="#5863AA" d="M130.056,27.67v0.8c-0.466-0.354-0.872-0.532-1.218-0.532c-0.155,0-0.285,0.042-0.391,0.126
	c-0.105,0.083-0.158,0.184-0.158,0.301c0,0.076,0.033,0.157,0.099,0.244c0.066,0.086,0.274,0.247,0.624,0.481
	c0.351,0.234,0.586,0.449,0.708,0.646c0.121,0.196,0.183,0.396,0.183,0.598c0,0.354-0.118,0.645-0.354,0.87
	c-0.235,0.226-0.535,0.338-0.898,0.338c-0.448,0-0.916-0.177-1.401-0.531l0.131-0.738c0.504,0.401,0.919,0.602,1.244,0.602
	c0.152,0,0.277-0.042,0.376-0.127c0.098-0.085,0.147-0.192,0.147-0.321c0-0.097-0.036-0.195-0.108-0.297
	c-0.071-0.101-0.28-0.271-0.626-0.512s-0.574-0.454-0.686-0.642s-0.167-0.376-0.167-0.566c0-0.349,0.115-0.629,0.347-0.842
	c0.231-0.212,0.539-0.318,0.924-0.318C129.234,27.248,129.643,27.389,130.056,27.67z"/>
<path fill="#5863AA" d="M133.646,30.359l-0.11,0.729c-0.41,0.302-0.86,0.452-1.349,0.452c-0.51,0-0.92-0.178-1.229-0.533
	c-0.31-0.356-0.464-0.83-0.464-1.422c0-0.659,0.186-1.214,0.556-1.663c0.371-0.45,0.824-0.675,1.36-0.675
	c0.41,0,0.751,0.157,1.024,0.473c0.271,0.314,0.408,0.722,0.408,1.219c0,0.123-0.009,0.25-0.026,0.379h-2.522
	c-0.023,0.135-0.035,0.264-0.035,0.387c0,0.372,0.102,0.665,0.306,0.881c0.203,0.215,0.459,0.322,0.767,0.322
	C132.707,30.908,133.145,30.726,133.646,30.359z M131.412,28.786h1.693c0-0.281-0.063-0.503-0.191-0.666
	c-0.127-0.162-0.307-0.243-0.538-0.243C131.936,27.877,131.615,28.18,131.412,28.786z"/>
<path fill="#5863AA" d="M135.75,25.275l-0.866,6.139h-0.763l0.865-6.139H135.75z"/>
<path fill="#5863AA" d="M138.01,27.371l-0.102,0.677h-0.817l-0.649,5.067h-0.748l0.651-5.067h-0.651l0.102-0.677h0.636
	c0.051-0.694,0.245-1.23,0.584-1.608c0.338-0.378,0.793-0.567,1.364-0.567c0.299,0,0.625,0.063,0.98,0.189l-0.11,0.756
	c-0.275-0.149-0.538-0.225-0.79-0.225c-0.755,0-1.179,0.485-1.271,1.455H138.01z"/>
</svg>
