<?xml version="1.0" encoding="utf-8"?>
<!DOCTYPE svg PUBLIC "-//W3C//DTD SVG 1.1//EN" "http://www.w3.org/Graphics/SVG/1.1/DTD/svg11.dtd">
<svg version="1.1" id="Layer_1" xmlns="http://www.w3.org/2000/svg" xmlns:xlink="http://www.w3.org/1999/xlink" x="0px" y="0px"
	 viewBox="0 0 1600 1600" width="1600" height="1600" enable-background="new 0 0 1600 1600" xml:space="preserve">

<defs>
	<g id="nicheword">
		<path d="M896.763,201.656c-1.953,0-3.536,1.188-3.536,4.176v56.415c0,1.951,1.583,3.534,3.536,3.534
			c1.952,0,3.535-1.583,3.535-3.534v-56.331C900.298,203.011,898.715,201.656,896.763,201.656z"/>
		<path d="M867.912,201.656c-1.953,0-3.536,1.188-3.536,4.176v46.176l-42.519-48.933
			c-0.28-0.331-0.612-0.59-0.974-0.78c-0.577-0.425-1.279-0.639-2.04-0.639c-1.953,0-3.536,1.188-3.536,4.176v56.415
			c0,1.951,1.583,3.534,3.536,3.534c1.952,0,3.535-1.583,3.535-3.534v-48.372l42.739,50.673c0.503,0.597,1.174,0.962,1.884,1.1
			c0.292,0.078,0.594,0.133,0.911,0.133c1.952,0,3.535-1.583,3.535-3.534v-56.331C871.447,203.011,869.864,201.656,867.912,201.656z"
			/>
		<path d="M1049.808,201.656c-1.951,0-3.534,1.188-3.534,4.176v24.441h-41.999v-24.357c0-2.905-1.581-4.26-3.534-4.26
			c-0.016,0-0.03,0.003-0.045,0.003c-0.014,0-0.027-0.003-0.04-0.003c-1.951,0-3.534,1.188-3.534,4.176v56.415
			c0,1.951,1.583,3.534,3.534,3.534c0.015,0,0.027-0.004,0.042-0.004c0.016,0,0.029,0.004,0.043,0.004
			c1.953,0,3.534-1.583,3.534-3.534v-26.02h41.999v26.02c0,1.951,1.583,3.534,3.534,3.534c1.954,0,3.535-1.583,3.535-3.534v-56.331
			C1053.343,203.011,1051.762,201.656,1049.808,201.656z"/>
		<path d="M940.268,209.451c10.104-5.061,22.052-2.173,29.767,5.706c1.478,1.507,3.81,1.824,5.313,0.453
			c1.244-1.137,1.568-3.287-0.046-4.933c-9.506-9.709-23.658-12.348-36.27-7.781c-11.041,3.996-19.157,14.566-20.698,26.102
			c-1.585,11.858,3.642,23.712,13.317,30.702c10.603,7.66,25.086,8.284,36.425,1.846c2.342-1.33,4.496-2.985,6.448-4.832
			c1.771-1.68,0.853-4.033-0.609-5.083c-1.38-0.987-3.213-0.769-4.661,0.602c-8.06,7.636-19.616,9.61-29.597,4.612
			c-9.073-4.543-14.294-14.311-14.174-24.274C925.601,222.752,931.58,213.802,940.268,209.451z"/>
		<path d="M1122.578,207.612c2.446,0,3.589-1.333,3.589-2.978c0-1.644-1.001-2.979-3.519-2.979h-43.269
			c-0.007,0-0.015,0.002-0.021,0.003c-0.009-0.001-0.016-0.003-0.024-0.003c-1.951,0-3.534,1.188-3.534,4.176v56.415
			c0,1.951,1.583,3.534,3.534,3.534c0.015,0,0.027-0.004,0.043-0.004c0.015,0,0.027,0.004,0.042,0.004c0.039,0,0.075-0.01,0.114-0.012
			h43.045c2.446,0,3.589-1.333,3.589-2.977c0-1.645-1.001-2.978-3.519-2.978h-39.695v-23.588h32.05c2.446,0,3.587-1.332,3.587-2.976
			c0-1.646-0.999-2.979-3.515-2.979h-32.122v-22.66h39.625V207.612z"/>
		<path d="M1142.167,215.167c-3.859,0-7-3.141-7-7s3.141-7,7-7s7,3.141,7,7S1146.026,215.167,1142.167,215.167z
			 M1142.167,202.063c-3.309,0-6,2.796-6,6.104s2.691,6.166,6,6.166s6-2.858,6-6.166S1145.476,202.063,1142.167,202.063z"/>
		<path d="M1143.084,208.555c1.288-0.128,1.953-1.113,1.953-2.217c0-1.225-0.942-2.177-2.129-2.255v-0.008h-2.746
			c-0.213,0-0.386,0.173-0.386,0.386c0,0.024,0.003,0.047,0.007,0.069c-0.004,0.032-0.007,0.064-0.007,0.101v7.077
			c0,0.505,0.117,0.646,0.456,0.646c0.277,0,0.445-0.173,0.445-0.65c0-0.617,0-3.136,0-3.136h1.487l1.581,3.148
			c0,0,0.34,0.762,0.755,0.555c0.431-0.216,0.015-0.94,0.015-0.94L1143.084,208.555z M1140.676,204.849h2.111v0.007
			c0.746,0.021,1.349,0.721,1.349,1.484c0,0.75-0.583,1.418-1.312,1.459h-2.148V204.849z"/>
	</g>
	<g id="nichemark">
		<path d="M902.518,54.189c-2.381,0-4.311,1.931-4.311,4.312v67.237l-59.183-70.157
			c-0.956-1.157-2.418-1.628-3.798-1.391c-2.38,0.001-4.309,1.931-4.309,4.311v79.608c0,2.381,1.93,4.311,4.312,4.311
			c2.381,0,4.312-1.93,4.312-4.311V70.377l59.402,70.422c0.483,0.584,1.102,0.976,1.768,1.212c0.551,0.256,1.16,0.409,1.807,0.409
			c2.382,0,4.312-1.93,4.312-4.311V58.501C906.83,56.12,904.899,54.189,902.518,54.189z"/>
		<path d="M951.076,97.673c-0.116-24.5-11.228-47.762-30.163-63.3c-19.301-15.838-45.267-21.753-69.617-16.74
			c-23.577,4.854-44.314,20.633-55.596,41.829c-11.636,21.862-12.599,48.468-2.587,71.119c9.816,22.209,29.334,38.87,52.542,45.722
			c24.009,7.087,50.32,2.247,70.756-11.93C938.062,149.352,950.952,123.901,951.076,97.673z M911.844,158.694
			c-19.536,14.348-45.427,17.534-68.159,9.662c-22.228-7.698-39.468-26.71-46.279-49.014c-7.131-23.356-1.947-49.081,12.955-68.269
			c14.717-18.949,38.198-29.306,62.037-28.288c23.759,1.014,45.654,14.28,58.583,34.033c7.923,12.105,11.942,26.43,12.01,40.855
			C942.876,121.843,931.31,144.396,911.844,158.694z"/>
		<g>
			<defs>
				<g id="wavy">
					<path d="M965.956,52.702c3.529,2.838,7.806,5.471,13.46,8.288c11.93,5.942,25.253,8.848,38.395,8.344
						c13.954-0.54,26.758-5.259,38.676-10.045c9.548-3.836,20.95-8.055,33.408-8.055c1.14,0,2.291,0.032,3.423,0.097
						c10.285,0.579,20.896,4.126,31.465,9.955c4.777,2.634,8.706,5.345,12.006,8.285c1.038,0.926,2.322,1.437,3.613,1.437
						c1.531,0,2.979-0.947,3.494-2.224c0.501-1.243,0.64-2.858-0.271-4.125c-1.129-1.572-1.78-2.011-2.504-2.599
						c-4.279-3.479-8.999-6.206-12.79-8.263c-11.633-6.311-24.637-9.861-37.605-10.265c-13.706-0.416-26.413,3.865-38.058,8.523
						c-11.602,4.643-24.017,9.656-37.584,9.836l-0.792,0.005c-15.87,0.001-32.607-6.546-43.603-16.336
						c-1.743-1.55-4.906-1.323-6.269,0.872c-1.001,1.612-0.46,3.73-0.012,4.458C964.744,51.434,965.169,52.067,965.956,52.702z"/>
				</g>
			</defs>
			<use xlink:href="#wavy" x="0" y="0" />
			<use xlink:href="#wavy" x="0" y="42.5" />
			<use xlink:href="#wavy" x="0" y="85" />
		</g>
	</g>
	<g id="star-full">
		<path d="M121,46.4c-0.5-1.5-2.1-3.9-7.4-3.9H78.4L67.5,8.8c-1.6-4.8-4.2-5.8-6.1-5.8c-1.9,0-4.6,1.1-6.2,6L44.4,42.4H9.1c-5.1,0-6.5,3.2-6.8,4.2c-0.3,1-1,4.4,3.2,7.6l28.3,20.4l-10.9,33.6c-0.8,2.5-0.5,4.9,0.8,6.5c1,1.4,2.7,2.2,4.4,2.2c1.5,0,3.1-0.6,4.6-1.7l28.9-20.7l28.3,20.6c1.6,1.1,3.2,1.7,4.8,1.7c1.8,0,3.3-0.8,4.4-2.1c0.9-1.2,1.7-3.3,0.8-6.6L89,74.6l28.3-20.4C121.7,51,121.5,47.9,121,46.4z"/>
	</g>
	<g id="star-empty">
		<path d="M154.1,116.9c-1.8,0-3.4-0.8-4.4-2.2c-1.3-1.7-1.5-4-0.8-6.5l10.9-33.6l-28.3-20.4c-4.3-3.1-3.6-6.6-3.2-7.6c0.3-1,1.7-4.1,6.8-4.1l35.3,0l10.8-33.4c1.6-4.9,4.2-5.9,6.2-5.9c1.9,0,4.6,1,6.1,5.9l10.9,33.4h35.2c5.3,0,6.9,2.6,7.4,4.1c0.5,1.5,0.7,4.6-3.7,7.7L215,74.5l10.8,33.7c1,3.3,0.1,5.4-0.8,6.6c-1,1.4-2.6,2.1-4.4,2.1c-1.5,0-3.1-0.6-4.8-1.7l-28.3-20.6l-28.9,20.7C157.2,116.3,155.6,116.9,154.1,116.9z M140.1,50.4l29.1,21l-11.1,34.4l29.6-21.2l29,21.1l-11.1-34.3l29.3-21h-36.3L187.3,16l-11.1,34.4L140.1,50.4z"/>
	</g>
	<g id="star-half">
		<path d="M247,46.5c-0.5-1.5-2.1-4.1-7.4-4.1h-35.2L193.5,9c-1.6-4.8-4.2-5.9-6.1-5.9c-1.9,0-4.6,1-6.2,5.9l-10.8,33.4l-35.3,0c-5.1,0-6.5,3.1-6.8,4.1c-0.3,1-1,4.4,3.2,7.6l28.3,20.4l-10.9,33.6c-0.8,2.5-0.5,4.9,0.8,6.5c1,1.4,2.7,2.2,4.4,2.2c1.5,0,3.1-0.6,4.6-1.7l28.9-20.7l28.3,20.6c1.6,1.1,3.2,1.7,4.8,1.7c1.8,0,3.3-0.8,4.4-2.1c0.9-1.2,1.7-3.3,0.8-6.6L215,74.5l28.3-20.3C247.7,51.1,247.5,48,247,46.5z M205.6,71.4l11.1,34.3l-29-21.1l0,0V16.9l11,33.5h36.3L205.6,71.4z"/>
	</g>

<!-- ///////////////////////////
	 GRADES
     /////////////////////////// -->
	<g id="a-large">
		<path fill="#FFFFFF" d="M127,372.6l-13.7-30.2c-0.6-1.2-0.8-2.1-2-2.1c-1,0-1.5,1-2,2.1l-13.6,30.2c-0.2,0.5-0.2,1-0.1,1.4c0.2,0.5,0.7,1,1.4,1c1.5,0,2.1-1.2,2.3-1.8l3-6.6h17.9l3.3,7.4c0.3,0.7,1,1.1,1.7,1.1c0.9,0,1.4-0.4,1.6-0.8C127.2,373.9,127.3,373.2,127,372.6z M118.6,363.3h-14.5l3.3-7.6l4-9.6l4.1,9.9L118.6,363.3z"/>
	</g>
	<g id="b-large">
		<path fill="#FFFFFF" d="M203.2,375.1L203.2,375.1c0,0,3.9,0,10.7,0c6.4,0,10.7-3.8,10.7-9.4c0-4.2-2.2-7.4-5.8-8.6c1.3-1.2,3.4-3.4,3.4-6.6c0-3.3-1.6-6-3.1-7.2c-2.4-1.9-5.2-2.1-7.4-2.1h-8.9c-1.7,0-2.2,0.6-2.2,2.4v28.7C200.6,374.6,201.1,375.1,203.2,375.1z M204.5,371.7v-12h9.2c4.8,0,7,3.1,7,6c0,2.9-2.5,6-6.6,6c-0.6,0-1,0-1.3,0c-0.3,0-0.5,0-0.5,0H204.5z M218.3,350.5c0,3-2.3,5.6-5.2,5.8h-8.6v-11.7h8C212.7,344.6,218.3,344.7,218.3,350.5z"/>
	</g>
	<g id="c-large">
		<path fill="#FFFFFF" d="M326.2,368.8c-0.1-0.5-0.4-0.9-0.8-1.2c-0.2-0.1-0.5-0.2-0.8-0.2c-0.6,0-1.3,0.3-1.8,0.7c-2.6,2.5-5.9,3.8-9.4,3.8c-2.1,0-4.1-0.5-6-1.4c-4.5-2.3-7.4-7.2-7.3-12.6c0.1-5,3.1-9.7,7.6-12c1.7-0.8,3.5-1.3,5.5-1.3c3.2,0,6.5,1.2,8.9,3.2c0.5,0.4,1.2,0.7,1.9,0.7c0.5,0,0.9-0.1,1.1-0.4c0.3-0.3,0.4-0.7,0.4-1.2c0-0.6-0.3-1.3-0.8-1.7c-2.8-2.6-6.9-4.1-11.2-4.1c-2.2,0-4.4,0.4-6.6,1.2c-5.7,2.1-10.1,7.6-10.9,13.7c-0.8,6.2,1.9,12.4,7,16.1c3,2.1,6.5,3.3,10.3,3.3c3.1,0,6.2-0.8,8.8-2.3c1.2-0.7,2.4-1.6,3.3-2.6C326,370.1,326.3,369.4,326.2,368.8z"/>
	</g>
	<g id="d-large">
		<path fill="#FFFFFF" d="M417.1,342.8c-2.6-0.9-6.5-1.3-9-1.3h-7.9c-1.7,0-2.3,0.6-2.3,2.5v28.8c0,1.9,0.3,2.5,2.4,2.5h10.3c0.1,0,0.2,0,0.3,0l0,0c3.8,0,7.3-1.1,10.3-3.2c5.5-3.9,6.2-9.3,6.2-14.1C427.4,351.1,423.1,344.9,417.1,342.8z M423.6,358c0,6.2-2.1,10.1-6.7,12.3c-2.9,1.4-6.1,1.4-6.3,1.4l0,0h-8.8v-26.8h5.7c0,0,0.4,0,1,0c1.9,0,5.5,0.2,8,1.4C421.2,348.6,423.6,352.6,423.6,358z"/>
	</g>
	<g id="plus">
		<path fill="#FFFFFF" d="M143.7,357.7H137v-6.2c0-0.8-0.6-1.4-1.4-1.4s-1.4,0.6-1.4,1.4v6.2h-6.7c-0.7,0-1.3,0.6-1.3,1.3s0.6,1.3,1.3,1.3h6.7v6.2c0,0.8,0.6,1.4,1.4,1.4s1.4-0.6,1.4-1.4v-6.2h6.7c0.7,0,1.3-0.6,1.3-1.3S144.5,357.7,143.7,357.7z"/>
	</g>
	<g id="minus">
		<path fill="#FFFFFF" d="M141.4,557.5h-12.2c-0.7,0-1.3,0.6-1.3,1.3s0.6,1.3,1.3,1.3h12.2c0.7,0,1.3-0.6,1.3-1.3S142.1,557.5,141.4,557.5z"/>
	</g>
	<g id="a-small">
		<path fill="#FFFFFF" d="M91.1,632.6c-0.1-0.3-0.4-0.4-0.7-0.4l0,0c-0.3,0-0.6,0.2-0.7,0.4l-5,11.1c-0.1,0.2-0.1,0.4,0,0.6c0.1,0.2,0.2,0.3,0.4,0.4c0.1,0.1,0.6,0.1,0.6,0.1c0.3,0,0.8-0.5,0.9-0.7l1.1-2.4h5.6l1.1,2.3c0.1,0.2,0.6,0.8,0.9,0.8c0,0,0.5,0,0.6-0.1c0.2-0.1,0.3-0.2,0.4-0.4c0.1-0.2,0.1-0.4,0-0.6L91.1,632.6z M92.5,640h-4.2l2.1-5.1L92.5,640z"/>
	</g>
	<g id="b-small">
		<path fill="#FFFFFF" d="M138.2,644.8c0,0,1.7,0,4.1,0s4-1.4,4-3.4c0-1.4-0.9-2.7-2-3.1c0.7-0.5,1.1-1.4,1.1-2.3c0-1.5-0.6-2.1-1.1-2.6c-0.7-0.5-1.6-0.8-2.8-0.8h-3.4c-0.7,0-0.9,0.2-0.9,0.9v10.3C137.2,644.6,137.4,644.8,138.2,644.8zM143.7,636c0,1-0.7,1.8-1.7,1.9h-3v-3.6h2.8C142.4,634.2,143.7,634.5,143.7,636z M142.4,643.2c-0.2,0-0.3,0-0.4,0c-0.1,0-0.2,0-0.2,0h-2.7v-3.7h3.2c1.4,0,2.3,0.7,2.3,1.9C144.5,642.5,143.7,643.2,142.4,643.2z"/>
	</g>
	<g id="c-small">
		<path fill="#FFFFFF" d="M188.2,643.8c1.1,0.8,2.4,1.2,3.7,1.2c1.1,0,2.2-0.3,3.2-0.8c0.4-0.2,0.7-0.5,1-0.8c0.2-0.2,0.3-0.5,0.3-0.7c0-0.3-0.1-0.5-0.3-0.7c-0.4-0.3-1-0.3-1.5,0.2c-0.6,0.6-1.6,1-2.6,1c-0.7,0-1.5-0.2-2.2-0.6c-1.6-0.8-2.5-2.2-2.5-3.9s1-3.2,2.7-3.9c1.6-0.7,3.1-0.5,4.4,0.5c0.5,0.4,1.1,0.5,1.5,0.1c0.5-0.5,0.2-1.1-0.4-1.6c-0.8-0.6-2.1-1.2-3.7-1.2c-0.8,0-1.6,0.1-2.3,0.4c-2.1,0.7-3.7,2.7-4,5C185.4,640.2,186.3,642.5,188.2,643.8z"/>
	</g>
	<g id="d-small">
		<path fill="#FFFFFF" d="M242.4,633.1c-0.9-0.3-2.3-0.5-3.3-0.5h-2.4c-0.6,0-0.9,0.3-0.9,1V644c0,0.7,0.1,1,0.9,1h3.3h0.1c1.4,0,2.7-0.4,3.8-1.2c2-1.4,2.3-3.4,2.3-5.1C246.2,636.1,244.7,633.9,242.4,633.1z M244.4,638.7c0,2.2-0.6,3.3-2.2,4.1c-1.1,0.5-2.7,0.5-2.7,0.5h-1.9v-9h1.3c0,0,0.2,0,0.4,0c0.6,0,1.8,0.1,2.7,0.5C243.7,635.6,244.4,636.8,244.4,638.7z"/>
	</g>
	<g id="minus-small">
		<path fill="#FFFFFF" d="M98.5,719.8h5.2c0.4,0,0.7-0.3,0.7-0.7l0,0c0-0.4-0.3-0.7-0.7-0.7h-5.2c-0.4,0-0.7,0.3-0.7,0.7l0,0C97.8,719.5,98.2,719.8,98.5,719.8z"/>
	</g>
	<g id="a-section">
		<path fill="#409126" d="M292.1,633.1c-0.1-0.2-0.3-0.4-0.6-0.4l0,0l0,0c-0.2,0-0.5,0.1-0.6,0.4l-5,11.1c-0.1,0.2-0.1,0.3,0,0.5s0.2,0.3,0.3,0.4c0.1,0,0.5,0.1,0.6,0.1c0.3,0,0.7-0.4,0.8-0.6l1.1-2.5h5.8l1.1,2.4c0.1,0.2,0.5,0.7,0.8,0.7c0.1,0,0.5,0,0.6,0c0.3-0.1,0.5-0.5,0.3-0.8L292.1,633.1z M293.8,640.5h-4.6l2.3-5L293.8,640.5z"/>
	</g>
	<g id="b-section">
		<path fill="#53A63A" d="M342.4,644.9c2.4,0,3.9-1.5,3.9-3.3c0-1.4-0.9-2.8-2.1-3.1c0.8-0.5,1.3-1.4,1.3-2.4c0-1.4-0.5-2-1.1-2.5c-0.9-0.7-2.1-0.8-2.8-0.8c-0.7,0-3.4,0-3.4,0c-0.6,0-0.8,0.2-0.8,0.8v10.3c0,0.8,0.1,0.9,0.9,0.9C338.3,644.9,339.9,644.9,342.4,644.9z M343.9,636.1c0,1.1-0.7,2-1.8,2H339v-3.8c0,0,2.3,0,2.9,0S343.9,634.5,343.9,636.1zM342.5,643.6C341,643.6,342.5,643.6,342.5,643.6H339v-4c0,0,1.6,0,3.3,0c1.7,0,2.4,0.9,2.4,2C344.7,642.7,343.9,643.6,342.5,643.6z"/>
	</g>
	<g id="c-section">
		<path fill="#CEA600" d="M389.9,634.8c1.8-0.8,3.3-0.4,4.5,0.5c0.4,0.3,0.9,0.5,1.3,0.2c0.4-0.3,0.3-0.8,0-1.1c-1.5-1.4-3.9-1.9-6.2-1c-2.1,0.7-3.6,2.7-3.9,4.9c-0.3,2.2,0.7,4.4,2.5,5.7c2,1.4,4.7,1.5,6.8,0.3c0.4-0.2,0.7-0.5,1-0.8c0.4-0.4,0.4-0.9,0-1.3c-0.3-0.3-0.8-0.2-1.3,0.2c-1.1,1.1-3.1,1.4-4.9,0.4c-1.5-0.8-2.6-2.2-2.6-4C387.2,637,388.2,635.6,389.9,634.8z"/>
	</g>
	<g id="d-section">
		<path fill="#E25333" d="M446.4,638.9c0-2.5-1.4-4.6-3.7-5.4c-0.9-0.3-2.3-0.5-3.2-0.5h-2.3c-0.5,0-0.8,0.2-0.8,0.8c0,0.5,0,9.8,0,10.4c0,0.7,0.1,0.8,0.8,0.8h3.2c1.3,0,2.7-0.4,3.8-1.1C446,642.6,446.4,640.9,446.4,638.9z M442.6,643.1c-1.1,0.5-2.8,0.5-2.8,0.5h-1.9v-9.3h1.3c0,0,1.9-0.1,3.1,0.5c1.6,0.8,2.5,2,2.5,4C444.9,641.1,444.3,642.3,442.6,643.1z"/>
	</g>
	<g id="minus-section">
		<path d="M297.5,719.8h5.2c0.4,0,0.7-0.3,0.7-0.7l0,0c0-0.4-0.3-0.7-0.7-0.7h-5.2c-0.4,0-0.7,0.3-0.7,0.7l0,0C296.8,719.5,297.1,719.8,297.5,719.8z"/>
	</g>
	<g id="ng">
		<path fill="#919191" d="M515.4,346.8c-0.7,0-1.4,0.5-1.4,1.6v17.7l-16.2-18.8c-0.1-0.1-0.2-0.2-0.3-0.3c-0.2-0.2-0.4-0.2-0.7-0.2c-0.7,0-1.3,0.5-1.3,1.6v21.6c0,0.8,0.6,1.4,1.4,1.4c0.7,0,1.4-0.6,1.4-1.4v-18.5l16.3,19.4c0.2,0.2,0.4,0.4,0.7,0.4c0.1,0,0.2,0.1,0.3,0.1c0.7,0,1.3-0.6,1.3-1.4v-21.6C516.8,347.4,516.2,346.8,515.4,346.8z"/>
		<path fill="#919191" d="M531.8,349.9c3.9-2,8.5-0.8,11.5,2.2c0.6,0.6,1.5,0.7,2.1,0.2c0.5-0.4,0.6-1.3,0-1.9c-3.7-3.8-9.2-4.8-14.1-3c-4.3,1.6-7.4,5.7-8,10.1c-0.6,4.6,1.4,9.2,5.2,11.9c4.1,3,9.7,3.2,14.1,0.7c0.9-0.5,1.7-1.2,2.5-1.9c0.1-0.1,0.2-0.3,0.3-0.4c0.3-0.2,0.4-0.6,0.4-1v-7.4c0-0.3-0.1-0.5-0.3-0.8c-0.2-0.3-0.6-0.4-1-0.4h-10.7c-0.6,0-1.2,0.6-1.2,1.3c0,0.6,0.5,1.3,1.2,1.3h9.5v5.7c0,0-0.1,0-0.1,0c-3.1,3-7.6,3.7-11.5,1.8c-3.5-1.8-5.6-5.5-5.5-9.4C526.1,355,528.4,351.6,531.8,349.9z"/>
	</g>
	<g id="poll-bubble">
		<rect fill="#F4724A" x="14" y="0" width="81" height="60" rx="5" ry="5" /> 
		<circle fill="#FFEADC" cx="36.5" cy="29.5" r="5.7"/>
		<circle fill="#FFEADC" cx="55.5" cy="29.5" r="5.7"/>
		<circle fill="#FFEADC" cx="74.5" cy="29.5" r="5.7"/>
		<polygon fill="#F4724A" points="80.2,57.1 80.2,70 55.3,56.3 "/>
	</g>
</defs>

<!-- Niche stacked logo -->
<g transform="translate(-780 0)">
	<use xlink:href="#nicheword" fill="#464646" x="0" y="0" />
	<use xlink:href="#nichemark" fill="#53a63a" x="0" y="0" />
</g>


<!-- Niche horizontal logo (all green) -->
<g transform="translate(-725 0)">
	<use xlink:href="#nicheword" fill="#53a63a" x="1157" y="-177" transform="scale(0.6)" />
	<use xlink:href="#nichemark" fill="#53a63a" x="4860" y="42" transform="scale(0.245)" />
</g>



<!-- Social Icons -->
<g transform="translate(0 350)">

	<!-- Facebook -->
	<path d="M42.6,37.5H37c0,9,0,20.1,0,20.1h-8.4c0,0,0-11,0-20.1h-4v-7.1h4v-4.6c0-3.3,1.6-8.4,8.4-8.4l6.2,0v6.9c0,0-3.8,0-4.5,0c-0.7,0-1.8,0.4-1.8,1.9v4.2h6.4L42.6,37.5z" fill="#ffffff"/>

	<!-- Twitter -->
	<path transform="translate(25 0)" d="M119.7,31.8c0,0.4,0,0.7,0,1.1c0,10.8-8.3,23.4-23.4,23.4c-4.6,0-8.9-1.4-12.6-3.7c0.6,0.1,1.3,0.1,2,0.1
		c3.8,0,7.4-1.3,10.2-3.5c-3.6-0.1-6.6-2.4-7.7-5.7c0.5,0.1,1,0.1,1.5,0.1c0.7,0,1.5-0.1,2.2-0.3c-3.8-0.8-6.6-4.1-6.6-8
		c0,0,0-0.1,0-0.1c1.1,0.6,2.4,1,3.7,1c-2.2-1.5-3.7-4-3.7-6.8c0-1.5,0.4-2.9,1.1-4.1c4,5,10.1,8.2,16.9,8.6
		c-0.1-0.6-0.2-1.2-0.2-1.9c0-4.5,3.7-8.2,8.2-8.2c2.4,0,4.5,1,6,2.6c1.9-0.4,3.6-1,5.2-2c-0.6,1.9-1.9,3.5-3.6,4.5
		c1.7-0.2,3.2-0.6,4.7-1.3C122.7,29.2,121.3,30.7,119.7,31.8z" fill="#ffffff"/>

	<!-- Google Plus -->
	<g transform="translate(210 20) scale(0.8)" >
		<polygon fill="#ffffff" points="69,21 63,21 63,15 57,15 57,21 51.1,21 51.1,27 57,27 57,33 63,33 63,27 69,27 "/>
		<path fill="#ffffff" d="M24.3,21v7h12.6c-1.7,5.6-6.9,9.6-13,9.6c-7.5,0-13.6-6.1-13.6-13.6s6.1-13.6,13.6-13.6
			c3.5,0,6.7,1.3,9.1,3.5l5.1-5.7c-3.8-3.4-8.7-5.5-14.2-5.5C12.2,2.8,2.7,12.3,2.7,24s9.5,21.2,21.2,21.2c11.7,0,21.2-9.5,21.2-21.2
			c0-1-0.1-2-0.2-3H24.3z"/>
	</g>
</g>

<!-- Stars - Green - Row of 5 full and 5 empty -->
<g transform="translate(450 100)">
	<use xlink:href="#star-full" fill="#e0c43f" x="0" y="0" transform="scale(0.2)" />
	<use xlink:href="#star-full" fill="#e0c43f" x="130" y="0" transform="scale(0.2)" />
	<use xlink:href="#star-full" fill="#e0c43f" x="260" y="0" transform="scale(0.2)" />
	<use xlink:href="#star-full" fill="#e0c43f" x="390" y="0" transform="scale(0.2)" />
	<use xlink:href="#star-full" fill="#e0c43f" x="520" y="0" transform="scale(0.2)" />
	<use xlink:href="#star-empty" fill="#e0c43f" x="525" y="0" transform="scale(0.2)" />
	<use xlink:href="#star-empty" fill="#e0c43f" x="655" y="0" transform="scale(0.2)" />
	<use xlink:href="#star-empty" fill="#e0c43f" x="785" y="0" transform="scale(0.2)" />
	<use xlink:href="#star-empty" fill="#e0c43f" x="915" y="0" transform="scale(0.2)" />
	<use xlink:href="#star-empty" fill="#e0c43f" x="1045" y="0" transform="scale(0.2)" />
</g>

<!-- Stars - Green - Row of 4 full, 1 half, and 4 empty -->
<g transform="translate(450 150)">
	<use xlink:href="#star-full" fill="#e0c43f" x="0" y="0" transform="scale(0.2)" />
	<use xlink:href="#star-full" fill="#e0c43f" x="130" y="0" transform="scale(0.2)" />
	<use xlink:href="#star-full" fill="#e0c43f" x="260" y="0" transform="scale(0.2)" />
	<use xlink:href="#star-full" fill="#e0c43f" x="390" y="0" transform="scale(0.2)" />
	<use xlink:href="#star-half" fill="#e0c43f" x="395" y="0" transform="scale(0.2)" />
	<use xlink:href="#star-empty" fill="#e0c43f" x="525" y="0" transform="scale(0.2)" />
	<use xlink:href="#star-empty" fill="#e0c43f" x="655" y="0" transform="scale(0.2)" />
	<use xlink:href="#star-empty" fill="#e0c43f" x="785" y="0" transform="scale(0.2)" />
	<use xlink:href="#star-empty" fill="#e0c43f" x="915" y="0" transform="scale(0.2)" />
</g>

<!-- Stars - White - Row of 5 full and 5 empty -->
<g transform="translate(450 200)">
	<use xlink:href="#star-full" fill="#fff" x="0" y="0" transform="scale(0.2)" />
	<use xlink:href="#star-full" fill="#fff" x="130" y="0" transform="scale(0.2)" />
	<use xlink:href="#star-full" fill="#fff" x="260" y="0" transform="scale(0.2)" />
	<use xlink:href="#star-full" fill="#fff" x="390" y="0" transform="scale(0.2)" />
	<use xlink:href="#star-full" fill="#fff" x="520" y="0" transform="scale(0.2)" />
	<use xlink:href="#star-empty" fill="#fff" x="525" y="0" transform="scale(0.2)" />
	<use xlink:href="#star-empty" fill="#fff" x="655" y="0" transform="scale(0.2)" />
	<use xlink:href="#star-empty" fill="#fff" x="785" y="0" transform="scale(0.2)" />
	<use xlink:href="#star-empty" fill="#fff" x="915" y="0" transform="scale(0.2)" />
	<use xlink:href="#star-empty" fill="#fff" x="1045" y="0" transform="scale(0.2)" />
</g>

<!-- Stars - White - Row of 4 full, 1 half, and 4 empty -->
<g transform="translate(450 250)">
	<use xlink:href="#star-full" fill="#fff" x="0" y="0" transform="scale(0.2)" />
	<use xlink:href="#star-full" fill="#fff" x="130" y="0" transform="scale(0.2)" />
	<use xlink:href="#star-full" fill="#fff" x="260" y="0" transform="scale(0.2)" />
	<use xlink:href="#star-full" fill="#fff" x="390" y="0" transform="scale(0.2)" />
	<use xlink:href="#star-half" fill="#fff" x="395" y="0" transform="scale(0.2)" />
	<use xlink:href="#star-empty" fill="#fff" x="525" y="0" transform="scale(0.2)" />
	<use xlink:href="#star-empty" fill="#fff" x="655" y="0" transform="scale(0.2)" />
	<use xlink:href="#star-empty" fill="#fff" x="785" y="0" transform="scale(0.2)" />
	<use xlink:href="#star-empty" fill="#fff" x="915" y="0" transform="scale(0.2)" />
</g>

<!-- Stars - Gray - Row of 5 full and 5 empty -->
<g transform="translate(450 300)">
	<use xlink:href="#star-full" fill="#919191" x="0" y="0" transform="scale(0.2)" />
	<use xlink:href="#star-full" fill="#919191" x="130" y="0" transform="scale(0.2)" />
	<use xlink:href="#star-full" fill="#919191" x="260" y="0" transform="scale(0.2)" />
	<use xlink:href="#star-full" fill="#919191" x="390" y="0" transform="scale(0.2)" />
	<use xlink:href="#star-full" fill="#919191" x="520" y="0" transform="scale(0.2)" />
	<use xlink:href="#star-empty" fill="#919191" x="525" y="0" transform="scale(0.2)" />
	<use xlink:href="#star-empty" fill="#919191" x="655" y="0" transform="scale(0.2)" />
	<use xlink:href="#star-empty" fill="#919191" x="785" y="0" transform="scale(0.2)" />
	<use xlink:href="#star-empty" fill="#919191" x="915" y="0" transform="scale(0.2)" />
	<use xlink:href="#star-empty" fill="#919191" x="1045" y="0" transform="scale(0.2)" />
</g>

<!-- Stars - Gray - Row of 4 full, 1 half, and 4 empty -->
<g transform="translate(450 350)">
	<use xlink:href="#star-full" fill="#919191" x="0" y="0" transform="scale(0.2)" />
	<use xlink:href="#star-full" fill="#919191" x="130" y="0" transform="scale(0.2)" />
	<use xlink:href="#star-full" fill="#919191" x="260" y="0" transform="scale(0.2)" />
	<use xlink:href="#star-full" fill="#919191" x="390" y="0" transform="scale(0.2)" />
	<use xlink:href="#star-half" fill="#919191" x="395" y="0" transform="scale(0.2)" />
	<use xlink:href="#star-empty" fill="#919191" x="525" y="0" transform="scale(0.2)" />
	<use xlink:href="#star-empty" fill="#919191" x="655" y="0" transform="scale(0.2)" />
	<use xlink:href="#star-empty" fill="#919191" x="785" y="0" transform="scale(0.2)" />
	<use xlink:href="#star-empty" fill="#919191" x="915" y="0" transform="scale(0.2)" />
</g>

<g transform="translate(-75 140)">
	<!-- A+ -->
	<circle fill="#409126" cx="119" cy="359" r="38"/>
	<use xlink:href="#a-large" x="0" y="0" />
	<use xlink:href="#plus" x="0" y="0" />

	<!-- B+ -->
	<circle fill="#9BCC46" cx="219" cy="359" r="38"/>
	<use xlink:href="#b-large" x="0" y="0" />
	<use xlink:href="#plus" fill="#fff" x="100" y="0" />

	<!-- C+ -->
	<circle fill="#E0C43F" cx="319" cy="359" r="38"/>
	<use xlink:href="#c-large" x="0" y="0" />
	<use xlink:href="#plus" x="200" y="0" />

	<!-- D+ -->
	<circle fill="#E25333" cx="419" cy="359" r="38"/>
	<use xlink:href="#d-large" x="0" y="0" />
	<use xlink:href="#plus" x="304" y="0" />

	<!-- A -->
	<circle fill="#409126" cx="119" cy="459" r="38"/>
	<use xlink:href="#a-large" x="7" y="100" />

	<!-- B -->
	<circle fill="#9BCC46" cx="219" cy="459" r="38"/>
	<use xlink:href="#b-large" x="8" y="100" />

	<!-- C -->
	<circle fill="#E0C43F" cx="319" cy="459" r="38"/>
	<use xlink:href="#c-large" x="6" y="100" />

	<!-- D -->
	<circle fill="#E25333" cx="419" cy="459" r="38"/>
	<use xlink:href="#d-large" x="9" y="100" />

	<!-- A- -->
	<circle fill="#409126" cx="119" cy="559" r="38"/>
	<use xlink:href="#a-large" x="1" y="200" />
	<use xlink:href="#minus" x="0" y="0" />

	<!-- B- -->
	<circle fill="#9BCC46" cx="219" cy="559" r="38"/>
	<use xlink:href="#b-large" x="2" y="200" />
	<use xlink:href="#minus" x="102" y="0" />

	<!-- C- -->
	<circle fill="#E0C43F" cx="319" cy="559" r="38"/>
	<use xlink:href="#c-large" x="1" y="200" />
	<use xlink:href="#minus" x="201" y="0" />

	<!-- D- -->
	<circle fill="#E25333" cx="419" cy="559" r="38"/>
	<use xlink:href="#d-large" x="0" y="200" />
	<use xlink:href="#minus" x="305" y="0" />

	<!-- Small A+ -->
	<circle fill="#409126" cx="94" cy="639" r="14"/>
	<use xlink:href="#a-small" x="0" y="0" />
	<path fill="#FFFFFF" d="M104.2,638.6H101v-3.2c0-0.4-0.4-0.8-0.8-0.8c-0.4,0-0.7,0.4-0.7,0.8v3.2h-3.2c-0.4,0-0.4,0.3-0.3,0.6c0.2,0.5,0.2,0.7,0.6,0.7h2.9v3.2c0,0.4,0.4,0.8,0.8,0.8c0.4,0,0.8-0.4,0.8-0.8V640h3.2c0.4,0,0.7-0.3,0.7-0.7C104.9,638.9,104.6,638.6,104.2,638.6z"/>

	<!-- Small B+ -->
	<circle fill="#9BCC46" cx="144" cy="639" r="14"/>
	<use xlink:href="#b-small" x="0" y="0" />
	<path fill="#FFFFFF" d="M154.6,637.8h-3.2v-3.2c0-0.4-0.4-0.8-0.8-0.8s-0.8,0.4-0.8,0.8v3.2h-2.9c-0.4,0-0.5,0.2-0.3,0.7c0.2,0.4,0.4,0.7,0.8,0.7h2.4v3.2c0,0.4,0.4,0.8,0.8,0.8s0.8-0.4,0.8-0.8v-3.2h3.2c0.4,0,0.7-0.3,0.7-0.7C155.2,638.1,154.9,637.8,154.6,637.8z"/>

	<!-- Small C+ -->
	<circle fill="#E0C43F" cx="194" cy="639" r="14"/>
	<use xlink:href="#c-small" x="0" y="0" />
	<path fill="#FFFFFF" d="M204.8,638.1h-3.2v-3.2c0-0.4-0.4-0.8-0.8-0.8c-0.4,0-0.8,0.4-0.8,0.8v3.2h-3.2c-0.4,0-0.8,0.2-0.8,0.6c0,0.6,0.3,0.7,0.7,0.7h3.3v3.2c0,0.4,0.4,0.8,0.8,0.8c0.4,0,0.8-0.4,0.8-0.8v-3.2h3.2c0.4,0,0.7-0.3,0.7-0.7C205.5,638.4,205.2,638.1,204.8,638.1z"/>

	<!-- Small D+ -->
	<circle fill="#E25333" cx="244" cy="639" r="14"/>
	<use xlink:href="#d-small" x="0" y="0" />
	<path fill="#FFFFFF" d="M254.8,638h-3.2v-3.2c0-0.4-0.4-0.8-0.8-0.8s-0.8,0.4-0.8,0.8v3.2h-2.5c-0.4,0-0.3,0.3-0.3,0.7c0,0.5-0.1,0.7,0.3,0.7h2.6v3.2c0,0.4,0.4,0.8,0.8,0.8s0.8-0.4,0.8-0.8v-3.2h3.2c0.4,0,0.7-0.3,0.7-0.7C255.5,638.3,255.2,638,254.8,638z"/>

	<!-- Small A -->
	<circle fill="#409126" cx="94" cy="679" r="14"/>
	<use xlink:href="#a-small" x="3.25" y="40" />

	<!-- Small B -->
	<circle fill="#9BCC46" cx="144" cy="679" r="14"/>
	<use xlink:href="#b-small" x="2.7" y="40" />

	<!-- Small C -->
	<circle fill="#E0C43F" cx="194" cy="679" r="14"/>
	<use xlink:href="#c-small" x="2.4" y="40" />

	<!-- Small D -->
	<circle fill="#E25333" cx="244" cy="679" r="14"/>
	<use xlink:href="#d-small" x="3.5" y="40" />

	<!-- Small A- -->
	<circle fill="#409126" cx="94" cy="719" r="14"/>
	<use xlink:href="#a-small" x="1" y="80" />
	<use xlink:href="#minus-small" x="0" y="0" />

	<!-- Small B- -->
	<circle fill="#9BCC46" cx="144" cy="719" r="14"/>
	<use xlink:href="#b-small" x="0" y="80" />
	<use xlink:href="#minus-small" x="49" y="0" />

	<!-- Small C- -->
	<circle fill="#E0C43F" cx="194" cy="719" r="14"/>
	<use xlink:href="#c-small" x="0" y="80" />
	<use xlink:href="#minus-small" x="100" y="0" />

	<!-- Small D- -->
	<circle fill="#E25333" cx="244" cy="719" r="14"/>
	<use xlink:href="#d-small" x="1" y="80" />
	<use xlink:href="#minus-small" x="151" y="0" />

	<!-- Section A+ -->
	<circle fill="#CDE9C1" cx="294" cy="639" r="14"/>
	<use xlink:href="#a-section" x="0" y="0" />
	<path fill="#409126" d="M304,638.3h-3.3V635c0-0.4-0.3-0.7-0.7-0.7s-0.7,0.3-0.7,0.7v3.3h-3c-0.3,0-0.4,0.3-0.3,0.6c0.2,0.4,0.3,0.6,0.6,0.6h2.8v3.3c0,0.4,0.3,0.7,0.7,0.7s0.7-0.3,0.7-0.7v-3.3h3.3c0.3,0,0.6-0.3,0.6-0.6C304.6,638.6,304.3,638.3,304,638.3z"/>

	<!-- Section B+ -->
	<circle fill="#E1F2B8" cx="344" cy="639" r="14"/>
	<use xlink:href="#b-section" x="0" y="0" />
	<path fill="#53A63A" d="M354.5,638.3h-3.3V635c0-0.4-0.3-0.7-0.7-0.7s-0.7,0.3-0.7,0.7v3.3h-2.6c-0.3,0-0.6,0.3-0.6,0.6c0,0.3,0.3,0.6,0.6,0.6h2.6v3.3c0,0.4,0.3,0.7,0.7,0.7s0.7-0.3,0.7-0.7v-3.3h3.3c0.3,0,0.6-0.3,0.6-0.6C355,638.6,354.8,638.3,354.5,638.3z"/>

	<!-- Section C+ -->
	<circle fill="#FCF4C9" cx="394" cy="639" r="14"/>
	<use xlink:href="#c-section" x="0" y="0" />
	<path fill="#CEA600" d="M404,638.3h-3.3V635c0-0.4-0.3-0.7-0.7-0.7s-0.7,0.3-0.7,0.7v3.3H396c-0.3,0-0.6,0.3-0.6,0.6c0,0.3,0.3,0.6,0.6,0.6h3.3v3.3c0,0.4,0.3,0.7,0.7,0.7s0.7-0.3,0.7-0.7v-3.3h3.3c0.3,0,0.6-0.3,0.6-0.6C404.6,638.6,404.3,638.3,404,638.3z"/>

	<!-- Section D+ -->
	<circle fill="#FCCEC7" cx="444" cy="639" r="14"/>
	<use xlink:href="#d-section" x="0" y="0" />
	<path fill="#E25333" d="M454.2,638.3h-3.3V635c0-0.4-0.3-0.7-0.7-0.7s-0.7,0.3-0.7,0.7v3.3h-2c-0.3,0-0.2,0.2-0.2,0.5s-0.1,0.6,0.2,0.6h2v3.3c0,0.4,0.3,0.7,0.7,0.7s0.7-0.3,0.7-0.7v-3.3h3.3c0.3,0,0.6-0.3,0.6-0.6C454.8,638.6,454.5,638.3,454.2,638.3z"/>

	<!-- Section A -->
	<circle fill="#CDE9C1" cx="294" cy="679" r="14"/>
	<use xlink:href="#a-section" x="2" y="40" />

	<!-- Section B -->
	<circle fill="#E1F2B8" cx="344" cy="679" r="14"/>
	<use xlink:href="#b-section" x="2.5" y="40" />

	<!-- Section C -->
	<circle fill="#FCF4C9" cx="394" cy="679" r="14"/>
	<use xlink:href="#c-section" x="2" y="40" />

	<!-- Section D -->
	<circle fill="#FCCEC7" cx="444" cy="679" r="14"/>
	<use xlink:href="#d-section" x="3" y="40" />

	<!-- Section A- -->
	<circle fill="#CDE9C1" cx="294" cy="719" r="14"/>
	<use xlink:href="#a-section" x="0" y="80" />
	<use xlink:href="#minus-section" x="0" y="0" fill="#409126" />

	<!-- Section B- -->
	<circle fill="#E1F2B8" cx="344" cy="719" r="14"/>
	<use xlink:href="#b-section" x="0" y="80" />
	<use xlink:href="#minus-section" x="50" y="0" fill="#53A63A" />

	<!-- Section C- -->
	<circle fill="#FCF4C9" cx="394" cy="719" r="14"/>
	<use xlink:href="#c-section" x="0" y="80" />
	<use xlink:href="#minus-section" x="100" y="0" fill="#CEA600" />

	<!-- Section D- -->
	<circle fill="#FCCEC7" cx="444" cy="719" r="14"/>
	<use xlink:href="#d-section" x="0" y="80" />
	<use xlink:href="#minus-section" x="151" y="0" fill="#E25333" />

	<!-- Small NG -->
	<circle fill="#EEEEEE" cx="494" cy="639.2" r="14"/>
	<use xlink:href="#ng" x="747" y="1280" stroke="#919191" stroke-width="1.5" transform="scale(0.39)" />


	<!-- NG -->
	<circle fill="#EEEEEE" cx="519.4" cy="359" r="38"/>
	<use xlink:href="#ng" x="0" y="0" />
</g>



<g transform="translate(0 950)">
	<!-- Poll Bubble -->
	<rect fill="#F78F6A" x="0" y="23" width="67" height="50" rx="5" ry="5" /> 
	<polygon fill="#F78F6A" points="9.7,70.1 9.7,83 34.6,69.3 "/>
	<use xlink:href="#poll-bubble" />

	<!-- Simple Poll Bubble -->
	<use xlink:href="#poll-bubble" transform="translate(150 0)" />
</g>

</svg>