<?xml version="1.0" encoding="UTF-8"?>
<!DOCTYPE svg PUBLIC "-//W3C//DTD SVG 1.1//EN" "http://www.w3.org/Graphics/SVG/1.1/DTD/svg11.dtd">
<!-- Creator: CorelDRAW X6 -->
<svg xmlns="http://www.w3.org/2000/svg" xml:space="preserve" width="12.6323mm" height="14.0731mm" version="1.1" style="shape-rendering:geometricPrecision; text-rendering:geometricPrecision; image-rendering:optimizeQuality; fill-rule:evenodd; clip-rule:evenodd"
viewBox="0 0 90 100"
 xmlns:xlink="http://www.w3.org/1999/xlink">
 <defs>
  <style type="text/css">
   <![CDATA[
    .fil0 {fill:#43B6AB}
   ]]>
  </style>
 </defs>
 <g id="Layer_x0020_1">
  <metadata id="CorelCorpID_0Corel-Layer"/>
  <path class="fil0" d="M0 0l0 5 52 0 0 19c-18,1 -35,9 -35,26 14,11 56,8 72,2 0,-19 -14,-26 -32,-28 0,-24 5,-24 -18,-24l-40 0zm23 49c21,3 41,4 62,0 -2,-14 -13,-20 -30,-20 -16,0 -30,5 -32,20z"/>
  <path class="fil0" d="M23 83c0,0 11,1 3,-13 -5,2 -4,-3 -6,5 -2,8 2,8 3,8z"/>
  <path class="fil0" d="M53 83c0,0 11,1 3,-13 -5,2 -4,-3 -6,5 -2,8 2,8 3,8z"/>
  <path class="fil0" d="M83 83c0,0 11,1 3,-13 -5,2 -4,-3 -6,5 -2,8 2,8 3,8z"/>
  <path class="fil0" d="M39 100c0,0 11,1 3,-13 -5,2 -4,-3 -6,5 -2,8 2,8 3,8z"/>
  <path class="fil0" d="M70 100c0,0 11,1 3,-13 -5,2 -4,-3 -6,5 -2,8 2,8 3,8z"/>
 </g>
</svg>
